<mxfile host="Electron" agent="Mozilla/5.0 (Macintosh; Intel Mac OS X 10_15_7) AppleWebKit/537.36 (KHTML, like Gecko) draw.io/27.0.9 Chrome/134.0.6998.205 Electron/35.4.0 Safari/537.36" version="27.0.9">
  <diagram name="페이지-1" id="HeLJ8z-ihjbbx8HL-2YR">
    <mxGraphModel dx="2852" dy="1718" grid="1" gridSize="10" guides="1" tooltips="1" connect="1" arrows="1" fold="1" page="1" pageScale="1" pageWidth="3300" pageHeight="4681" math="0" shadow="0">
      <root>
        <mxCell id="0" />
        <mxCell id="1" parent="0" />
        <mxCell id="itcXOkuhVqPN7WuCLbZP-383" value="Modules" style="fillColor=none;strokeColor=#5A6C86;verticalAlign=top;fontStyle=0;fontColor=#5A6C86;whiteSpace=wrap;html=1;movable=0;resizable=0;rotatable=0;deletable=0;editable=0;locked=1;connectable=0;" parent="1" vertex="1">
          <mxGeometry x="660" y="822.5" width="920" height="640" as="geometry" />
        </mxCell>
        <mxCell id="itcXOkuhVqPN7WuCLbZP-423" value="" style="fillColor=none;strokeColor=light-dark(#909090,#9577A3);verticalAlign=top;fontStyle=0;whiteSpace=wrap;html=1;fontColor=none;noLabel=1;" parent="1" vertex="1">
          <mxGeometry x="730" y="852.5" width="780" height="60" as="geometry" />
        </mxCell>
        <mxCell id="itcXOkuhVqPN7WuCLbZP-421" value="" style="fillColor=none;strokeColor=light-dark(#A4A27E,#9577A3);verticalAlign=top;fontStyle=0;whiteSpace=wrap;html=1;fontColor=none;noLabel=1;" parent="1" vertex="1">
          <mxGeometry x="730" y="1172.5" width="780" height="60" as="geometry" />
        </mxCell>
        <mxCell id="itcXOkuhVqPN7WuCLbZP-420" value="" style="fillColor=none;strokeColor=light-dark(#AE5A41,#9577A3);verticalAlign=top;fontStyle=0;whiteSpace=wrap;html=1;fontColor=none;noLabel=1;" parent="1" vertex="1">
          <mxGeometry x="730" y="1092.5" width="780" height="60" as="geometry" />
        </mxCell>
        <mxCell id="itcXOkuhVqPN7WuCLbZP-419" value="" style="fillColor=none;strokeColor=light-dark(#9a99ff, #9577a3);verticalAlign=top;fontStyle=0;whiteSpace=wrap;html=1;fontColor=none;noLabel=1;" parent="1" vertex="1">
          <mxGeometry x="730" y="932.5" width="780" height="60" as="geometry" />
        </mxCell>
        <mxCell id="itcXOkuhVqPN7WuCLbZP-204" value="Backend" style="points=[[0,0],[0.25,0],[0.5,0],[0.75,0],[1,0],[1,0.25],[1,0.5],[1,0.75],[1,1],[0.75,1],[0.5,1],[0.25,1],[0,1],[0,0.75],[0,0.5],[0,0.25]];outlineConnect=0;gradientColor=none;html=1;whiteSpace=wrap;fontSize=12;fontStyle=0;container=0;pointerEvents=0;collapsible=0;recursiveResize=0;shape=mxgraph.aws4.group;grIcon=mxgraph.aws4.group_on_premise;strokeColor=#000000;fillColor=none;verticalAlign=top;align=left;spacingLeft=30;fontColor=#000000;dashed=0;strokeWidth=2;" parent="1" vertex="1">
          <mxGeometry x="20" y="782.5" width="1600" height="720" as="geometry" />
        </mxCell>
        <mxCell id="itcXOkuhVqPN7WuCLbZP-202" value="DevOps (AWS, CI/CD)" style="points=[[0,0],[0.25,0],[0.5,0],[0.75,0],[1,0],[1,0.25],[1,0.5],[1,0.75],[1,1],[0.75,1],[0.5,1],[0.25,1],[0,1],[0,0.75],[0,0.5],[0,0.25]];outlineConnect=0;gradientColor=none;html=1;whiteSpace=wrap;fontSize=12;fontStyle=0;container=1;pointerEvents=0;collapsible=0;recursiveResize=0;shape=mxgraph.aws4.group;grIcon=mxgraph.aws4.group_on_premise;strokeColor=#000000;fillColor=none;verticalAlign=top;align=left;spacingLeft=30;fontColor=#000000;dashed=0;strokeWidth=2;" parent="1" vertex="1">
          <mxGeometry x="20" y="20" width="1600" height="682.5" as="geometry" />
        </mxCell>
        <mxCell id="itcXOkuhVqPN7WuCLbZP-203" value="Database ERD" style="points=[[0,0],[0.25,0],[0.5,0],[0.75,0],[1,0],[1,0.25],[1,0.5],[1,0.75],[1,1],[0.75,1],[0.5,1],[0.25,1],[0,1],[0,0.75],[0,0.5],[0,0.25]];outlineConnect=0;gradientColor=none;html=1;whiteSpace=wrap;fontSize=12;fontStyle=0;container=0;pointerEvents=0;collapsible=0;recursiveResize=0;shape=mxgraph.aws4.group;grIcon=mxgraph.aws4.group_on_premise;strokeColor=#000000;fillColor=none;verticalAlign=top;align=left;spacingLeft=30;fontColor=#000000;dashed=0;movable=0;resizable=0;rotatable=0;deletable=0;editable=0;locked=1;connectable=0;strokeWidth=2;" parent="1" vertex="1">
          <mxGeometry x="20" y="1582.5" width="1600" height="977.5" as="geometry" />
        </mxCell>
        <mxCell id="itcXOkuhVqPN7WuCLbZP-1" value="Github Actions CI/CD" style="fillColor=none;strokeColor=#5A6C86;dashed=1;verticalAlign=top;fontStyle=0;fontColor=#5A6C86;whiteSpace=wrap;html=1;movable=1;resizable=1;rotatable=1;deletable=1;editable=1;locked=0;connectable=1;" parent="1" vertex="1">
          <mxGeometry x="1170" y="112.5" width="370" height="210" as="geometry" />
        </mxCell>
        <mxCell id="itcXOkuhVqPN7WuCLbZP-2" value="&lt;span&gt;&lt;font style=&quot;color: rgb(0, 0, 0);&quot;&gt;VPC 10.0.0.0/16 -&amp;nbsp;&lt;/font&gt;&lt;/span&gt;&lt;font color=&quot;#000000&quot;&gt;ap-northeast-2 (seoul)&lt;/font&gt;" style="points=[[0,0],[0.25,0],[0.5,0],[0.75,0],[1,0],[1,0.25],[1,0.5],[1,0.75],[1,1],[0.75,1],[0.5,1],[0.25,1],[0,1],[0,0.75],[0,0.5],[0,0.25]];outlineConnect=0;gradientColor=none;html=1;whiteSpace=wrap;fontSize=12;fontStyle=0;container=0;pointerEvents=0;collapsible=0;recursiveResize=0;shape=mxgraph.aws4.group;grIcon=mxgraph.aws4.group_vpc2;strokeColor=#8C4FFF;fillColor=none;verticalAlign=top;align=left;spacingLeft=30;fontColor=#AAB7B8;dashed=0;" parent="1" vertex="1">
          <mxGeometry x="210" y="142.5" width="940" height="490" as="geometry" />
        </mxCell>
        <mxCell id="itcXOkuhVqPN7WuCLbZP-3" style="edgeStyle=orthogonalEdgeStyle;rounded=0;orthogonalLoop=1;jettySize=auto;html=1;" parent="1" source="itcXOkuhVqPN7WuCLbZP-4" target="itcXOkuhVqPN7WuCLbZP-46" edge="1">
          <mxGeometry relative="1" as="geometry" />
        </mxCell>
        <mxCell id="itcXOkuhVqPN7WuCLbZP-4" value="Client" style="sketch=0;outlineConnect=0;fontColor=#232F3E;gradientColor=none;fillColor=#232F3D;strokeColor=none;dashed=0;verticalLabelPosition=bottom;verticalAlign=top;align=center;html=1;fontSize=12;fontStyle=0;aspect=fixed;pointerEvents=1;shape=mxgraph.aws4.users;" parent="1" vertex="1">
          <mxGeometry x="120" y="382.5" width="40" height="40" as="geometry" />
        </mxCell>
        <mxCell id="itcXOkuhVqPN7WuCLbZP-5" value="AWS Cloud" style="points=[[0,0],[0.25,0],[0.5,0],[0.75,0],[1,0],[1,0.25],[1,0.5],[1,0.75],[1,1],[0.75,1],[0.5,1],[0.25,1],[0,1],[0,0.75],[0,0.5],[0,0.25]];outlineConnect=0;gradientColor=none;html=1;whiteSpace=wrap;fontSize=12;fontStyle=0;container=0;pointerEvents=0;collapsible=0;recursiveResize=0;shape=mxgraph.aws4.group;grIcon=mxgraph.aws4.group_aws_cloud_alt;strokeColor=#232F3E;fillColor=none;verticalAlign=top;align=left;spacingLeft=30;fontColor=#232F3E;dashed=0;" parent="1" vertex="1">
          <mxGeometry x="200" y="112.5" width="960" height="530" as="geometry" />
        </mxCell>
        <mxCell id="itcXOkuhVqPN7WuCLbZP-6" value="Availability Zone 1 (ap-northest-2a)" style="fillColor=none;strokeColor=#147EBA;dashed=1;verticalAlign=bottom;fontStyle=0;fontColor=#147EBA;whiteSpace=wrap;html=1;labelPosition=center;verticalLabelPosition=top;align=center;movable=1;resizable=1;rotatable=1;deletable=1;editable=1;locked=0;connectable=1;labelBackgroundColor=default;" parent="1" vertex="1">
          <mxGeometry x="370" y="225" width="620" height="150" as="geometry" />
        </mxCell>
        <mxCell id="itcXOkuhVqPN7WuCLbZP-7" value="Public subnet A - 10.0.0.0/24" style="points=[[0,0],[0.25,0],[0.5,0],[0.75,0],[1,0],[1,0.25],[1,0.5],[1,0.75],[1,1],[0.75,1],[0.5,1],[0.25,1],[0,1],[0,0.75],[0,0.5],[0,0.25]];outlineConnect=0;gradientColor=none;html=1;whiteSpace=wrap;fontSize=12;fontStyle=0;container=1;pointerEvents=0;collapsible=0;recursiveResize=0;shape=mxgraph.aws4.group;grIcon=mxgraph.aws4.group_security_group;grStroke=0;strokeColor=#7AA116;fillColor=#F2F6E8;verticalAlign=top;align=left;spacingLeft=30;fontColor=#248814;dashed=0;" parent="1" vertex="1">
          <mxGeometry x="380" y="235" width="200" height="130" as="geometry" />
        </mxCell>
        <mxCell id="itcXOkuhVqPN7WuCLbZP-8" value="NAT Gateway" style="sketch=0;outlineConnect=0;fontColor=#232F3E;gradientColor=none;fillColor=#8C4FFF;strokeColor=none;dashed=0;verticalLabelPosition=bottom;verticalAlign=top;align=center;html=1;fontSize=10;fontStyle=0;aspect=fixed;pointerEvents=1;shape=mxgraph.aws4.nat_gateway;" parent="itcXOkuhVqPN7WuCLbZP-7" vertex="1">
          <mxGeometry x="81" y="47" width="38" height="38" as="geometry" />
        </mxCell>
        <mxCell id="itcXOkuhVqPN7WuCLbZP-9" value="Private subnet A - 10.0.1.0/24" style="points=[[0,0],[0.25,0],[0.5,0],[0.75,0],[1,0],[1,0.25],[1,0.5],[1,0.75],[1,1],[0.75,1],[0.5,1],[0.25,1],[0,1],[0,0.75],[0,0.5],[0,0.25]];outlineConnect=0;gradientColor=none;html=1;whiteSpace=wrap;fontSize=12;fontStyle=0;container=1;pointerEvents=0;collapsible=0;recursiveResize=0;shape=mxgraph.aws4.group;grIcon=mxgraph.aws4.group_security_group;grStroke=0;strokeColor=#00A4A6;fillColor=#E6F6F7;verticalAlign=top;align=left;spacingLeft=30;fontColor=#147EBA;dashed=0;" parent="1" vertex="1">
          <mxGeometry x="590" y="235" width="390" height="130" as="geometry" />
        </mxCell>
        <mxCell id="itcXOkuhVqPN7WuCLbZP-10" value="Frontend Container" style="sketch=0;points=[[0,0,0],[0.25,0,0],[0.5,0,0],[0.75,0,0],[1,0,0],[0,1,0],[0.25,1,0],[0.5,1,0],[0.75,1,0],[1,1,0],[0,0.25,0],[0,0.5,0],[0,0.75,0],[1,0.25,0],[1,0.5,0],[1,0.75,0]];outlineConnect=0;fontColor=#232F3E;fillColor=#ED7100;strokeColor=#ffffff;dashed=0;verticalLabelPosition=bottom;verticalAlign=top;align=center;html=1;fontSize=12;fontStyle=0;aspect=fixed;shape=mxgraph.aws4.resourceIcon;resIcon=mxgraph.aws4.fargate;" parent="itcXOkuhVqPN7WuCLbZP-9" vertex="1">
          <mxGeometry x="60" y="45" width="40" height="40" as="geometry" />
        </mxCell>
        <mxCell id="itcXOkuhVqPN7WuCLbZP-11" value="Backend Container" style="sketch=0;points=[[0,0,0],[0.25,0,0],[0.5,0,0],[0.75,0,0],[1,0,0],[0,1,0],[0.25,1,0],[0.5,1,0],[0.75,1,0],[1,1,0],[0,0.25,0],[0,0.5,0],[0,0.75,0],[1,0.25,0],[1,0.5,0],[1,0.75,0]];outlineConnect=0;fontColor=#232F3E;fillColor=#ED7100;strokeColor=#ffffff;dashed=0;verticalLabelPosition=bottom;verticalAlign=top;align=center;html=1;fontSize=12;fontStyle=0;aspect=fixed;shape=mxgraph.aws4.resourceIcon;resIcon=mxgraph.aws4.fargate;" parent="itcXOkuhVqPN7WuCLbZP-9" vertex="1">
          <mxGeometry x="290" y="45" width="40" height="40" as="geometry" />
        </mxCell>
        <mxCell id="itcXOkuhVqPN7WuCLbZP-12" value="ALB" style="sketch=0;outlineConnect=0;fontColor=#232F3E;gradientColor=none;fillColor=#8C4FFF;strokeColor=none;dashed=0;verticalLabelPosition=middle;verticalAlign=middle;align=left;html=1;fontSize=12;fontStyle=0;aspect=fixed;pointerEvents=1;shape=mxgraph.aws4.application_load_balancer;labelPosition=right;" parent="1" vertex="1">
          <mxGeometry x="765" y="382.5" width="40" height="40" as="geometry" />
        </mxCell>
        <mxCell id="itcXOkuhVqPN7WuCLbZP-13" value="Availability Zone 2&lt;span style=&quot;background-color: rgb(255, 255, 255);&quot;&gt;&amp;nbsp;(ap-northest-2b)&lt;/span&gt;" style="fillColor=none;strokeColor=#147EBA;dashed=1;verticalAlign=top;fontStyle=0;fontColor=#147EBA;whiteSpace=wrap;html=1;labelPosition=center;verticalLabelPosition=bottom;align=center;movable=1;resizable=1;rotatable=1;deletable=1;editable=1;locked=0;connectable=1;" parent="1" vertex="1">
          <mxGeometry x="370" y="435" width="620" height="150" as="geometry" />
        </mxCell>
        <mxCell id="itcXOkuhVqPN7WuCLbZP-14" value="Public subnet B - 10.0.2.0/24" style="points=[[0,0],[0.25,0],[0.5,0],[0.75,0],[1,0],[1,0.25],[1,0.5],[1,0.75],[1,1],[0.75,1],[0.5,1],[0.25,1],[0,1],[0,0.75],[0,0.5],[0,0.25]];outlineConnect=0;gradientColor=none;html=1;whiteSpace=wrap;fontSize=12;fontStyle=0;container=1;pointerEvents=0;collapsible=0;recursiveResize=0;shape=mxgraph.aws4.group;grIcon=mxgraph.aws4.group_security_group;grStroke=0;strokeColor=#7AA116;fillColor=#F2F6E8;verticalAlign=top;align=left;spacingLeft=30;fontColor=#248814;dashed=0;" parent="1" vertex="1">
          <mxGeometry x="380" y="445" width="200" height="130" as="geometry" />
        </mxCell>
        <mxCell id="itcXOkuhVqPN7WuCLbZP-15" value="NAT Gateway" style="sketch=0;outlineConnect=0;fontColor=#232F3E;gradientColor=none;fillColor=#8C4FFF;strokeColor=none;dashed=0;verticalLabelPosition=bottom;verticalAlign=top;align=center;html=1;fontSize=10;fontStyle=0;aspect=fixed;pointerEvents=1;shape=mxgraph.aws4.nat_gateway;opacity=70;textOpacity=70;" parent="itcXOkuhVqPN7WuCLbZP-14" vertex="1">
          <mxGeometry x="81" y="47" width="38" height="38" as="geometry" />
        </mxCell>
        <mxCell id="itcXOkuhVqPN7WuCLbZP-16" value="Private subnet B - 10.0.3.0/24" style="points=[[0,0],[0.25,0],[0.5,0],[0.75,0],[1,0],[1,0.25],[1,0.5],[1,0.75],[1,1],[0.75,1],[0.5,1],[0.25,1],[0,1],[0,0.75],[0,0.5],[0,0.25]];outlineConnect=0;gradientColor=none;html=1;whiteSpace=wrap;fontSize=12;fontStyle=0;container=1;pointerEvents=0;collapsible=0;recursiveResize=0;shape=mxgraph.aws4.group;grIcon=mxgraph.aws4.group_security_group;grStroke=0;strokeColor=#00A4A6;fillColor=#E6F6F7;verticalAlign=top;align=left;spacingLeft=30;fontColor=#147EBA;dashed=0;" parent="1" vertex="1">
          <mxGeometry x="590" y="445" width="390" height="130" as="geometry" />
        </mxCell>
        <mxCell id="itcXOkuhVqPN7WuCLbZP-17" value="Frontend Container" style="sketch=0;points=[[0,0,0],[0.25,0,0],[0.5,0,0],[0.75,0,0],[1,0,0],[0,1,0],[0.25,1,0],[0.5,1,0],[0.75,1,0],[1,1,0],[0,0.25,0],[0,0.5,0],[0,0.75,0],[1,0.25,0],[1,0.5,0],[1,0.75,0]];outlineConnect=0;fontColor=#232F3E;fillColor=#ED7100;strokeColor=#ffffff;dashed=0;verticalLabelPosition=bottom;verticalAlign=top;align=center;html=1;fontSize=12;fontStyle=0;aspect=fixed;shape=mxgraph.aws4.resourceIcon;resIcon=mxgraph.aws4.fargate;" parent="itcXOkuhVqPN7WuCLbZP-16" vertex="1">
          <mxGeometry x="60" y="44" width="40" height="40" as="geometry" />
        </mxCell>
        <mxCell id="itcXOkuhVqPN7WuCLbZP-18" value="Backend Container" style="sketch=0;points=[[0,0,0],[0.25,0,0],[0.5,0,0],[0.75,0,0],[1,0,0],[0,1,0],[0.25,1,0],[0.5,1,0],[0.75,1,0],[1,1,0],[0,0.25,0],[0,0.5,0],[0,0.75,0],[1,0.25,0],[1,0.5,0],[1,0.75,0]];outlineConnect=0;fontColor=#232F3E;fillColor=#ED7100;strokeColor=#ffffff;dashed=0;verticalLabelPosition=bottom;verticalAlign=top;align=center;html=1;fontSize=12;fontStyle=0;aspect=fixed;shape=mxgraph.aws4.resourceIcon;resIcon=mxgraph.aws4.fargate;" parent="itcXOkuhVqPN7WuCLbZP-16" vertex="1">
          <mxGeometry x="290" y="45" width="40" height="40" as="geometry" />
        </mxCell>
        <mxCell id="itcXOkuhVqPN7WuCLbZP-19" value="" style="endArrow=classic;html=1;rounded=0;" parent="1" source="itcXOkuhVqPN7WuCLbZP-12" target="itcXOkuhVqPN7WuCLbZP-10" edge="1">
          <mxGeometry width="50" height="50" relative="1" as="geometry">
            <mxPoint x="740" y="335" as="sourcePoint" />
            <mxPoint x="790" y="285" as="targetPoint" />
            <Array as="points">
              <mxPoint x="785" y="300" />
            </Array>
          </mxGeometry>
        </mxCell>
        <mxCell id="itcXOkuhVqPN7WuCLbZP-20" value="Route /" style="edgeLabel;html=1;align=center;verticalAlign=middle;resizable=0;points=[];labelBackgroundColor=light-dark(#e6f5f7, #ededed);" parent="itcXOkuhVqPN7WuCLbZP-19" vertex="1" connectable="0">
          <mxGeometry x="0.4667" y="1" relative="1" as="geometry">
            <mxPoint x="2" y="-1" as="offset" />
          </mxGeometry>
        </mxCell>
        <mxCell id="itcXOkuhVqPN7WuCLbZP-21" value="" style="endArrow=classic;html=1;rounded=0;labelBackgroundColor=default;" parent="1" source="itcXOkuhVqPN7WuCLbZP-12" target="itcXOkuhVqPN7WuCLbZP-11" edge="1">
          <mxGeometry width="50" height="50" relative="1" as="geometry">
            <mxPoint x="835" y="430" as="sourcePoint" />
            <mxPoint x="770" y="345" as="targetPoint" />
            <Array as="points">
              <mxPoint x="785" y="300" />
            </Array>
          </mxGeometry>
        </mxCell>
        <mxCell id="itcXOkuhVqPN7WuCLbZP-22" value="Route /api" style="edgeLabel;html=1;align=center;verticalAlign=middle;resizable=0;points=[];labelBackgroundColor=light-dark(#e6f5f7, #ededed);" parent="itcXOkuhVqPN7WuCLbZP-21" vertex="1" connectable="0">
          <mxGeometry x="0.314" relative="1" as="geometry">
            <mxPoint x="9" as="offset" />
          </mxGeometry>
        </mxCell>
        <mxCell id="itcXOkuhVqPN7WuCLbZP-23" value="" style="endArrow=classic;html=1;rounded=0;" parent="1" source="itcXOkuhVqPN7WuCLbZP-12" target="itcXOkuhVqPN7WuCLbZP-17" edge="1">
          <mxGeometry width="50" height="50" relative="1" as="geometry">
            <mxPoint x="845" y="510" as="sourcePoint" />
            <mxPoint x="780" y="425" as="targetPoint" />
            <Array as="points">
              <mxPoint x="785" y="509" />
            </Array>
          </mxGeometry>
        </mxCell>
        <mxCell id="itcXOkuhVqPN7WuCLbZP-24" value="Route /" style="edgeLabel;html=1;align=center;verticalAlign=middle;resizable=0;points=[];labelBackgroundColor=light-dark(#e6f5f7, #ededed);" parent="itcXOkuhVqPN7WuCLbZP-23" vertex="1" connectable="0">
          <mxGeometry x="0.529" relative="1" as="geometry">
            <mxPoint x="8" as="offset" />
          </mxGeometry>
        </mxCell>
        <mxCell id="itcXOkuhVqPN7WuCLbZP-25" value="" style="endArrow=classic;html=1;rounded=0;" parent="1" source="itcXOkuhVqPN7WuCLbZP-12" target="itcXOkuhVqPN7WuCLbZP-18" edge="1">
          <mxGeometry width="50" height="50" relative="1" as="geometry">
            <mxPoint x="845" y="510" as="sourcePoint" />
            <mxPoint x="910" y="425" as="targetPoint" />
            <Array as="points">
              <mxPoint x="785" y="509" />
            </Array>
          </mxGeometry>
        </mxCell>
        <mxCell id="itcXOkuhVqPN7WuCLbZP-26" value="Route /api" style="edgeLabel;html=1;align=center;verticalAlign=middle;resizable=0;points=[];labelBackgroundColor=light-dark(#e6f5f7, #ededed);" parent="itcXOkuhVqPN7WuCLbZP-25" vertex="1" connectable="0">
          <mxGeometry x="0.3029" y="-1" relative="1" as="geometry">
            <mxPoint x="13" y="-1" as="offset" />
          </mxGeometry>
        </mxCell>
        <mxCell id="itcXOkuhVqPN7WuCLbZP-27" style="edgeStyle=orthogonalEdgeStyle;rounded=0;orthogonalLoop=1;jettySize=auto;html=1;" parent="1" source="itcXOkuhVqPN7WuCLbZP-28" target="itcXOkuhVqPN7WuCLbZP-12" edge="1">
          <mxGeometry relative="1" as="geometry" />
        </mxCell>
        <mxCell id="itcXOkuhVqPN7WuCLbZP-28" value="IGW" style="sketch=0;outlineConnect=0;fontColor=#232F3E;gradientColor=none;fillColor=#8C4FFF;strokeColor=none;dashed=0;verticalLabelPosition=bottom;verticalAlign=top;align=center;html=1;fontSize=12;fontStyle=0;aspect=fixed;pointerEvents=1;shape=mxgraph.aws4.internet_gateway;" parent="1" vertex="1">
          <mxGeometry x="320" y="382.5" width="40" height="40" as="geometry" />
        </mxCell>
        <mxCell id="itcXOkuhVqPN7WuCLbZP-29" value="ECR" style="sketch=0;points=[[0,0,0],[0.25,0,0],[0.5,0,0],[0.75,0,0],[1,0,0],[0,1,0],[0.25,1,0],[0.5,1,0],[0.75,1,0],[1,1,0],[0,0.25,0],[0,0.5,0],[0,0.75,0],[1,0.25,0],[1,0.5,0],[1,0.75,0]];outlineConnect=0;fontColor=#232F3E;fillColor=#ED7100;strokeColor=#ffffff;dashed=0;verticalLabelPosition=bottom;verticalAlign=top;align=center;html=1;fontSize=12;fontStyle=0;aspect=fixed;shape=mxgraph.aws4.resourceIcon;resIcon=mxgraph.aws4.ecr;" parent="1" vertex="1">
          <mxGeometry x="1210" y="248" width="40" height="40" as="geometry" />
        </mxCell>
        <mxCell id="itcXOkuhVqPN7WuCLbZP-30" style="edgeStyle=orthogonalEdgeStyle;rounded=0;orthogonalLoop=1;jettySize=auto;html=1;startArrow=classic;startFill=1;endArrow=none;" parent="1" target="itcXOkuhVqPN7WuCLbZP-29" edge="1">
          <mxGeometry relative="1" as="geometry">
            <mxPoint x="1230" y="202.5" as="sourcePoint" />
            <Array as="points">
              <mxPoint x="1230" y="222.5" />
              <mxPoint x="1230" y="222.5" />
            </Array>
          </mxGeometry>
        </mxCell>
        <mxCell id="itcXOkuhVqPN7WuCLbZP-31" value="ECS (Fargate)" style="sketch=0;points=[[0,0,0],[0.25,0,0],[0.5,0,0],[0.75,0,0],[1,0,0],[0,1,0],[0.25,1,0],[0.5,1,0],[0.75,1,0],[1,1,0],[0,0.25,0],[0,0.5,0],[0,0.75,0],[1,0.25,0],[1,0.5,0],[1,0.75,0]];outlineConnect=0;fontColor=#232F3E;fillColor=#ED7100;strokeColor=#ffffff;dashed=0;verticalLabelPosition=bottom;verticalAlign=top;align=center;html=1;fontSize=12;fontStyle=0;aspect=fixed;shape=mxgraph.aws4.resourceIcon;resIcon=mxgraph.aws4.ecs;" parent="1" vertex="1">
          <mxGeometry x="1210" y="137.5" width="40" height="40" as="geometry" />
        </mxCell>
        <mxCell id="itcXOkuhVqPN7WuCLbZP-32" style="edgeStyle=orthogonalEdgeStyle;rounded=0;orthogonalLoop=1;jettySize=auto;html=1;" parent="1" target="itcXOkuhVqPN7WuCLbZP-36" edge="1">
          <mxGeometry relative="1" as="geometry">
            <mxPoint x="1480" y="197.5" as="sourcePoint" />
            <Array as="points">
              <mxPoint x="1480" y="207.5" />
              <mxPoint x="1480" y="207.5" />
            </Array>
          </mxGeometry>
        </mxCell>
        <mxCell id="itcXOkuhVqPN7WuCLbZP-33" value="Github" style="dashed=0;outlineConnect=0;html=1;align=center;labelPosition=center;verticalLabelPosition=bottom;verticalAlign=top;shape=mxgraph.weblogos.github" parent="1" vertex="1">
          <mxGeometry x="1460" y="137.5" width="40" height="40" as="geometry" />
        </mxCell>
        <mxCell id="itcXOkuhVqPN7WuCLbZP-34" style="edgeStyle=orthogonalEdgeStyle;rounded=0;orthogonalLoop=1;jettySize=auto;html=1;" parent="1" source="itcXOkuhVqPN7WuCLbZP-36" target="itcXOkuhVqPN7WuCLbZP-39" edge="1">
          <mxGeometry relative="1" as="geometry" />
        </mxCell>
        <mxCell id="itcXOkuhVqPN7WuCLbZP-35" value="Build" style="edgeLabel;html=1;align=center;verticalAlign=middle;resizable=0;points=[];" parent="itcXOkuhVqPN7WuCLbZP-34" vertex="1" connectable="0">
          <mxGeometry x="-0.1734" relative="1" as="geometry">
            <mxPoint x="-4" as="offset" />
          </mxGeometry>
        </mxCell>
        <mxCell id="itcXOkuhVqPN7WuCLbZP-36" value="Github Actions" style="shape=image;verticalLabelPosition=bottom;labelBackgroundColor=default;verticalAlign=top;aspect=fixed;imageAspect=0;image=https://miro.medium.com/v2/resize:fit:400/1*txwKGJOoQ2W0ka_9htbu0Q.png;" parent="1" vertex="1">
          <mxGeometry x="1460" y="247.5" width="40" height="40" as="geometry" />
        </mxCell>
        <mxCell id="itcXOkuhVqPN7WuCLbZP-37" style="edgeStyle=orthogonalEdgeStyle;rounded=0;orthogonalLoop=1;jettySize=auto;html=1;" parent="1" source="itcXOkuhVqPN7WuCLbZP-39" target="itcXOkuhVqPN7WuCLbZP-29" edge="1">
          <mxGeometry relative="1" as="geometry" />
        </mxCell>
        <mxCell id="itcXOkuhVqPN7WuCLbZP-38" value="Upload" style="edgeLabel;html=1;align=center;verticalAlign=middle;resizable=0;points=[];" parent="itcXOkuhVqPN7WuCLbZP-37" vertex="1" connectable="0">
          <mxGeometry x="0.1143" relative="1" as="geometry">
            <mxPoint x="8" y="-1" as="offset" />
          </mxGeometry>
        </mxCell>
        <mxCell id="itcXOkuhVqPN7WuCLbZP-39" value="" style="image;sketch=0;aspect=fixed;html=1;points=[];align=center;fontSize=12;image=img/lib/mscae/Docker.svg;" parent="1" vertex="1">
          <mxGeometry x="1340" y="247.5" width="50" height="41" as="geometry" />
        </mxCell>
        <mxCell id="itcXOkuhVqPN7WuCLbZP-40" value="Auto Scaling group" style="points=[[0,0],[0.25,0],[0.5,0],[0.75,0],[1,0],[1,0.25],[1,0.5],[1,0.75],[1,1],[0.75,1],[0.5,1],[0.25,1],[0,1],[0,0.75],[0,0.5],[0,0.25]];outlineConnect=0;gradientColor=none;html=1;whiteSpace=wrap;fontSize=12;fontStyle=0;container=1;pointerEvents=0;collapsible=0;recursiveResize=0;shape=mxgraph.aws4.groupCenter;grIcon=mxgraph.aws4.group_auto_scaling_group;grStroke=1;strokeColor=#D86613;fillColor=none;verticalAlign=top;align=center;fontColor=#D86613;dashed=1;spacingTop=25;" parent="1" vertex="1">
          <mxGeometry x="610" y="150" width="120" height="475" as="geometry" />
        </mxCell>
        <mxCell id="itcXOkuhVqPN7WuCLbZP-41" value="Auto Scaling group" style="points=[[0,0],[0.25,0],[0.5,0],[0.75,0],[1,0],[1,0.25],[1,0.5],[1,0.75],[1,1],[0.75,1],[0.5,1],[0.25,1],[0,1],[0,0.75],[0,0.5],[0,0.25]];outlineConnect=0;gradientColor=none;html=1;whiteSpace=wrap;fontSize=12;fontStyle=0;container=1;pointerEvents=0;collapsible=0;recursiveResize=0;shape=mxgraph.aws4.groupCenter;grIcon=mxgraph.aws4.group_auto_scaling_group;grStroke=1;strokeColor=#D86613;fillColor=none;verticalAlign=top;align=center;fontColor=#D86613;dashed=1;spacingTop=25;" parent="1" vertex="1">
          <mxGeometry x="840" y="150" width="120" height="475" as="geometry" />
        </mxCell>
        <mxCell id="itcXOkuhVqPN7WuCLbZP-42" value="CloudFront (CDN)" style="sketch=0;points=[[0,0,0],[0.25,0,0],[0.5,0,0],[0.75,0,0],[1,0,0],[0,1,0],[0.25,1,0],[0.5,1,0],[0.75,1,0],[1,1,0],[0,0.25,0],[0,0.5,0],[0,0.75,0],[1,0.25,0],[1,0.5,0],[1,0.75,0]];outlineConnect=0;fontColor=#232F3E;fillColor=#8C4FFF;strokeColor=#ffffff;dashed=0;verticalLabelPosition=bottom;verticalAlign=top;align=center;html=1;fontSize=12;fontStyle=0;aspect=fixed;shape=mxgraph.aws4.resourceIcon;resIcon=mxgraph.aws4.cloudfront;" parent="1" vertex="1">
          <mxGeometry x="1050" y="442.5" width="40" height="40" as="geometry" />
        </mxCell>
        <mxCell id="itcXOkuhVqPN7WuCLbZP-43" value="S3 (Images)" style="sketch=0;points=[[0,0,0],[0.25,0,0],[0.5,0,0],[0.75,0,0],[1,0,0],[0,1,0],[0.25,1,0],[0.5,1,0],[0.75,1,0],[1,1,0],[0,0.25,0],[0,0.5,0],[0,0.75,0],[1,0.25,0],[1,0.5,0],[1,0.75,0]];outlineConnect=0;fontColor=#232F3E;fillColor=#7AA116;strokeColor=#ffffff;dashed=0;verticalLabelPosition=bottom;verticalAlign=top;align=center;html=1;fontSize=12;fontStyle=0;aspect=fixed;shape=mxgraph.aws4.resourceIcon;resIcon=mxgraph.aws4.s3;" parent="1" vertex="1">
          <mxGeometry x="1050" y="532.5" width="40" height="40" as="geometry" />
        </mxCell>
        <mxCell id="itcXOkuhVqPN7WuCLbZP-44" style="edgeStyle=orthogonalEdgeStyle;rounded=0;orthogonalLoop=1;jettySize=auto;html=1;entryX=0.5;entryY=0;entryDx=0;entryDy=0;entryPerimeter=0;" parent="1" target="itcXOkuhVqPN7WuCLbZP-43" edge="1">
          <mxGeometry relative="1" as="geometry">
            <mxPoint x="1070" y="502.5" as="sourcePoint" />
          </mxGeometry>
        </mxCell>
        <mxCell id="itcXOkuhVqPN7WuCLbZP-45" style="edgeStyle=orthogonalEdgeStyle;rounded=0;orthogonalLoop=1;jettySize=auto;html=1;" parent="1" source="itcXOkuhVqPN7WuCLbZP-46" target="itcXOkuhVqPN7WuCLbZP-28" edge="1">
          <mxGeometry relative="1" as="geometry" />
        </mxCell>
        <mxCell id="itcXOkuhVqPN7WuCLbZP-46" value="Route 53" style="sketch=0;points=[[0,0,0],[0.25,0,0],[0.5,0,0],[0.75,0,0],[1,0,0],[0,1,0],[0.25,1,0],[0.5,1,0],[0.75,1,0],[1,1,0],[0,0.25,0],[0,0.5,0],[0,0.75,0],[1,0.25,0],[1,0.5,0],[1,0.75,0]];outlineConnect=0;fontColor=#232F3E;fillColor=#8C4FFF;strokeColor=#ffffff;dashed=0;verticalLabelPosition=bottom;verticalAlign=top;align=center;html=1;fontSize=12;fontStyle=0;aspect=fixed;shape=mxgraph.aws4.resourceIcon;resIcon=mxgraph.aws4.route_53;" parent="1" vertex="1">
          <mxGeometry x="230" y="382.5" width="40" height="40" as="geometry" />
        </mxCell>
        <mxCell id="itcXOkuhVqPN7WuCLbZP-47" value="ElastiCache (Redis)" style="sketch=0;points=[[0,0,0],[0.25,0,0],[0.5,0,0],[0.75,0,0],[1,0,0],[0,1,0],[0.25,1,0],[0.5,1,0],[0.75,1,0],[1,1,0],[0,0.25,0],[0,0.5,0],[0,0.75,0],[1,0.25,0],[1,0.5,0],[1,0.75,0]];outlineConnect=0;fontColor=#232F3E;fillColor=#C925D1;strokeColor=#ffffff;dashed=0;verticalLabelPosition=bottom;verticalAlign=top;align=center;html=1;fontSize=12;fontStyle=0;aspect=fixed;shape=mxgraph.aws4.resourceIcon;resIcon=mxgraph.aws4.elasticache;" parent="1" vertex="1">
          <mxGeometry x="1050" y="232" width="40" height="40" as="geometry" />
        </mxCell>
        <mxCell id="itcXOkuhVqPN7WuCLbZP-48" value="RDS (PostgreSQL)" style="sketch=0;points=[[0,0,0],[0.25,0,0],[0.5,0,0],[0.75,0,0],[1,0,0],[0,1,0],[0.25,1,0],[0.5,1,0],[0.75,1,0],[1,1,0],[0,0.25,0],[0,0.5,0],[0,0.75,0],[1,0.25,0],[1,0.5,0],[1,0.75,0]];outlineConnect=0;fontColor=#232F3E;fillColor=#C925D1;strokeColor=#ffffff;dashed=0;verticalLabelPosition=bottom;verticalAlign=top;align=center;html=1;fontSize=12;fontStyle=0;aspect=fixed;shape=mxgraph.aws4.resourceIcon;resIcon=mxgraph.aws4.rds;" parent="1" vertex="1">
          <mxGeometry x="1050" y="322.5" width="40" height="40" as="geometry" />
        </mxCell>
        <mxCell id="itcXOkuhVqPN7WuCLbZP-378" value="" style="endArrow=classic;html=1;rounded=1;curved=0;fillColor=#dae8fc;strokeColor=#559E83;dashed=1;entryX=0.5;entryY=0;entryDx=0;entryDy=0;strokeWidth=1.5;exitX=0;exitY=0.5;exitDx=0;exitDy=0;" parent="1" source="itcXOkuhVqPN7WuCLbZP-414" target="itcXOkuhVqPN7WuCLbZP-49" edge="1">
          <mxGeometry width="50" height="50" relative="1" as="geometry">
            <mxPoint x="640" y="1452.5" as="sourcePoint" />
            <mxPoint x="750" y="1712.5" as="targetPoint" />
            <Array as="points">
              <mxPoint x="690" y="1042.5" />
              <mxPoint x="690" y="1642.5" />
              <mxPoint x="420" y="1640" />
            </Array>
          </mxGeometry>
        </mxCell>
        <mxCell id="_g8NAPxAyyhOKIvRYlVc-91" value="Topic Repository" style="edgeLabel;html=1;align=center;verticalAlign=middle;resizable=0;points=[];" parent="itcXOkuhVqPN7WuCLbZP-378" vertex="1" connectable="0">
          <mxGeometry x="0.7465" y="-1" relative="1" as="geometry">
            <mxPoint x="21" y="1" as="offset" />
          </mxGeometry>
        </mxCell>
        <mxCell id="itcXOkuhVqPN7WuCLbZP-380" value="" style="endArrow=classic;html=1;rounded=1;fillColor=#ffe6cc;strokeColor=#d79b00;strokeWidth=1.5;curved=0;exitX=1;exitY=0.5;exitDx=0;exitDy=0;" parent="1" source="itcXOkuhVqPN7WuCLbZP-361" target="itcXOkuhVqPN7WuCLbZP-48" edge="1">
          <mxGeometry width="50" height="50" relative="1" as="geometry">
            <mxPoint x="1100" y="672.5" as="sourcePoint" />
            <mxPoint x="1150" y="622.5" as="targetPoint" />
            <Array as="points">
              <mxPoint x="1250" y="882.5" />
              <mxPoint x="1250" y="742.5" />
              <mxPoint x="1250" y="342.5" />
            </Array>
          </mxGeometry>
        </mxCell>
        <mxCell id="itcXOkuhVqPN7WuCLbZP-382" value="" style="endArrow=classic;html=1;rounded=1;fillColor=#ffe6cc;strokeColor=#d79b00;strokeWidth=1.5;curved=0;" parent="1" source="itcXOkuhVqPN7WuCLbZP-362" target="itcXOkuhVqPN7WuCLbZP-47" edge="1">
          <mxGeometry width="50" height="50" relative="1" as="geometry">
            <mxPoint x="1030" y="542.5" as="sourcePoint" />
            <mxPoint x="1080" y="492.5" as="targetPoint" />
            <Array as="points">
              <mxPoint x="1270" y="882.5" />
              <mxPoint x="1270" y="332.5" />
              <mxPoint x="1130" y="332.5" />
              <mxPoint x="1130" y="252.5" />
            </Array>
          </mxGeometry>
        </mxCell>
        <mxCell id="itcXOkuhVqPN7WuCLbZP-384" value="" style="endArrow=classic;html=1;rounded=1;exitX=0;exitY=0.5;exitDx=0;exitDy=0;curved=0;fillColor=#ffe6cc;strokeColor=#d79b00;strokeWidth=1.5;" parent="1" source="itcXOkuhVqPN7WuCLbZP-373" target="itcXOkuhVqPN7WuCLbZP-43" edge="1">
          <mxGeometry width="50" height="50" relative="1" as="geometry">
            <mxPoint x="1030" y="1222.5" as="sourcePoint" />
            <mxPoint x="1080" y="1172.5" as="targetPoint" />
            <Array as="points">
              <mxPoint x="680" y="1282.5" />
              <mxPoint x="680" y="802.5" />
              <mxPoint x="1180" y="802.5" />
              <mxPoint x="1180" y="552.5" />
            </Array>
          </mxGeometry>
        </mxCell>
        <mxCell id="itcXOkuhVqPN7WuCLbZP-385" value="AWS SDK Presigned URL" style="edgeLabel;html=1;align=center;verticalAlign=middle;resizable=0;points=[];" parent="itcXOkuhVqPN7WuCLbZP-384" vertex="1" connectable="0">
          <mxGeometry x="0.2266" y="1" relative="1" as="geometry">
            <mxPoint x="-46" y="1" as="offset" />
          </mxGeometry>
        </mxCell>
        <mxCell id="itcXOkuhVqPN7WuCLbZP-359" value="NestJS" style="shape=image;verticalLabelPosition=bottom;labelBackgroundColor=default;verticalAlign=top;aspect=fixed;imageAspect=0;image=https://upload.wikimedia.org/wikipedia/commons/thumb/a/a8/NestJS.svg/1200px-NestJS.svg.png;" parent="1" vertex="1">
          <mxGeometry x="60" y="822.5" width="41.38" height="40" as="geometry" />
        </mxCell>
        <mxCell id="itcXOkuhVqPN7WuCLbZP-360" value="Config Module (.env)" style="points=[[0,0],[0.25,0],[0.5,0],[0.75,0],[1,0],[1,0.25],[1,0.5],[1,0.75],[1,1],[0.75,1],[0.5,1],[0.25,1],[0,1],[0,0.75],[0,0.5],[0,0.25]];outlineConnect=0;gradientColor=none;html=1;whiteSpace=wrap;fontSize=12;fontStyle=0;container=1;pointerEvents=0;collapsible=0;recursiveResize=0;shape=mxgraph.aws4.group;grIcon=mxgraph.aws4.group_on_premise;strokeColor=#7D8998;fillColor=none;verticalAlign=top;align=left;spacingLeft=30;fontColor=#5A6C86;dashed=0;" parent="1" vertex="1">
          <mxGeometry x="740" y="862.5" width="200" height="40" as="geometry" />
        </mxCell>
        <mxCell id="itcXOkuhVqPN7WuCLbZP-361" value="TypeORM Module" style="points=[[0,0],[0.25,0],[0.5,0],[0.75,0],[1,0],[1,0.25],[1,0.5],[1,0.75],[1,1],[0.75,1],[0.5,1],[0.25,1],[0,1],[0,0.75],[0,0.5],[0,0.25]];outlineConnect=0;gradientColor=none;html=1;whiteSpace=wrap;fontSize=12;fontStyle=0;container=1;pointerEvents=0;collapsible=0;recursiveResize=0;shape=mxgraph.aws4.group;grIcon=mxgraph.aws4.group_on_premise;strokeColor=#7D8998;fillColor=none;verticalAlign=top;align=left;spacingLeft=30;fontColor=#5A6C86;dashed=0;" parent="1" vertex="1">
          <mxGeometry x="1020" y="862.5" width="200" height="40" as="geometry" />
        </mxCell>
        <mxCell id="itcXOkuhVqPN7WuCLbZP-362" value="Redis Module" style="points=[[0,0],[0.25,0],[0.5,0],[0.75,0],[1,0],[1,0.25],[1,0.5],[1,0.75],[1,1],[0.75,1],[0.5,1],[0.25,1],[0,1],[0,0.75],[0,0.5],[0,0.25]];outlineConnect=0;gradientColor=none;html=1;whiteSpace=wrap;fontSize=12;fontStyle=0;container=1;pointerEvents=0;collapsible=0;recursiveResize=0;shape=mxgraph.aws4.group;grIcon=mxgraph.aws4.group_on_premise;strokeColor=#7D8998;fillColor=none;verticalAlign=top;align=left;spacingLeft=30;fontColor=#5A6C86;dashed=0;" parent="1" vertex="1">
          <mxGeometry x="1300" y="862.5" width="200" height="40" as="geometry" />
        </mxCell>
        <mxCell id="itcXOkuhVqPN7WuCLbZP-366" value="Auth Module (/auth)" style="points=[[0,0],[0.25,0],[0.5,0],[0.75,0],[1,0],[1,0.25],[1,0.5],[1,0.75],[1,1],[0.75,1],[0.5,1],[0.25,1],[0,1],[0,0.75],[0,0.5],[0,0.25]];outlineConnect=0;gradientColor=none;html=1;whiteSpace=wrap;fontSize=12;fontStyle=0;container=1;pointerEvents=0;collapsible=0;recursiveResize=0;shape=mxgraph.aws4.group;grIcon=mxgraph.aws4.group_on_premise;strokeColor=#9999FF;fillColor=none;verticalAlign=top;align=left;spacingLeft=30;fontColor=#5A6C86;dashed=0;" parent="1" vertex="1">
          <mxGeometry x="740" y="942.5" width="200" height="40" as="geometry" />
        </mxCell>
        <mxCell id="itcXOkuhVqPN7WuCLbZP-367" value="Users Module (/users)" style="points=[[0,0],[0.25,0],[0.5,0],[0.75,0],[1,0],[1,0.25],[1,0.5],[1,0.75],[1,1],[0.75,1],[0.5,1],[0.25,1],[0,1],[0,0.75],[0,0.5],[0,0.25]];outlineConnect=0;gradientColor=none;html=1;whiteSpace=wrap;fontSize=12;fontStyle=0;container=1;pointerEvents=0;collapsible=0;recursiveResize=0;shape=mxgraph.aws4.group;grIcon=mxgraph.aws4.group_on_premise;strokeColor=#9999FF;fillColor=none;verticalAlign=top;align=left;spacingLeft=30;fontColor=#5A6C86;dashed=0;" parent="1" vertex="1">
          <mxGeometry x="1020" y="942.5" width="200" height="40" as="geometry" />
        </mxCell>
        <mxCell id="itcXOkuhVqPN7WuCLbZP-368" value="Posts Module (/posts)" style="points=[[0,0],[0.25,0],[0.5,0],[0.75,0],[1,0],[1,0.25],[1,0.5],[1,0.75],[1,1],[0.75,1],[0.5,1],[0.25,1],[0,1],[0,0.75],[0,0.5],[0,0.25]];outlineConnect=0;gradientColor=none;html=1;whiteSpace=wrap;fontSize=12;fontStyle=0;container=1;pointerEvents=0;collapsible=0;recursiveResize=0;shape=mxgraph.aws4.group;grIcon=mxgraph.aws4.group_on_premise;strokeColor=light-dark(#AE5A41,#9577A3);fillColor=none;verticalAlign=top;align=left;spacingLeft=30;fontColor=#5A6C86;dashed=0;" parent="1" vertex="1">
          <mxGeometry x="740" y="1102.5" width="200" height="40" as="geometry" />
        </mxCell>
        <mxCell id="itcXOkuhVqPN7WuCLbZP-369" value="Topic Module (/topic)" style="points=[[0,0],[0.25,0],[0.5,0],[0.75,0],[1,0],[1,0.25],[1,0.5],[1,0.75],[1,1],[0.75,1],[0.5,1],[0.25,1],[0,1],[0,0.75],[0,0.5],[0,0.25]];outlineConnect=0;gradientColor=none;html=1;whiteSpace=wrap;fontSize=12;fontStyle=0;container=1;pointerEvents=0;collapsible=0;recursiveResize=0;shape=mxgraph.aws4.group;grIcon=mxgraph.aws4.group_on_premise;strokeColor=#559E83;fillColor=none;verticalAlign=top;align=left;spacingLeft=30;fontColor=#5A6C86;dashed=0;" parent="1" vertex="1">
          <mxGeometry x="740" y="1022.5" width="200" height="40" as="geometry" />
        </mxCell>
        <mxCell id="itcXOkuhVqPN7WuCLbZP-370" value="Topics Module (/topics)" style="points=[[0,0],[0.25,0],[0.5,0],[0.75,0],[1,0],[1,0.25],[1,0.5],[1,0.75],[1,1],[0.75,1],[0.5,1],[0.25,1],[0,1],[0,0.75],[0,0.5],[0,0.25]];outlineConnect=0;gradientColor=none;html=1;whiteSpace=wrap;fontSize=12;fontStyle=0;container=1;pointerEvents=0;collapsible=0;recursiveResize=0;shape=mxgraph.aws4.group;grIcon=mxgraph.aws4.group_on_premise;strokeColor=#559E83;fillColor=none;verticalAlign=top;align=left;spacingLeft=30;fontColor=#5A6C86;dashed=0;" parent="1" vertex="1">
          <mxGeometry x="1020" y="1022.5" width="200" height="40" as="geometry" />
        </mxCell>
        <mxCell id="itcXOkuhVqPN7WuCLbZP-372" value="Comments Module" style="points=[[0,0],[0.25,0],[0.5,0],[0.75,0],[1,0],[1,0.25],[1,0.5],[1,0.75],[1,1],[0.75,1],[0.5,1],[0.25,1],[0,1],[0,0.75],[0,0.5],[0,0.25]];outlineConnect=0;gradientColor=none;html=1;whiteSpace=wrap;fontSize=12;fontStyle=0;container=1;pointerEvents=0;collapsible=0;recursiveResize=0;shape=mxgraph.aws4.group;grIcon=mxgraph.aws4.group_on_premise;strokeColor=light-dark(#A4A27E,#9577A3);fillColor=none;verticalAlign=top;align=left;spacingLeft=30;fontColor=#5A6C86;dashed=0;" parent="1" vertex="1">
          <mxGeometry x="740" y="1182.5" width="200" height="40" as="geometry" />
        </mxCell>
        <mxCell id="itcXOkuhVqPN7WuCLbZP-373" value="Upload Module" style="points=[[0,0],[0.25,0],[0.5,0],[0.75,0],[1,0],[1,0.25],[1,0.5],[1,0.75],[1,1],[0.75,1],[0.5,1],[0.25,1],[0,1],[0,0.75],[0,0.5],[0,0.25]];outlineConnect=0;gradientColor=none;html=1;whiteSpace=wrap;fontSize=12;fontStyle=0;container=1;pointerEvents=0;collapsible=0;recursiveResize=0;shape=mxgraph.aws4.group;grIcon=mxgraph.aws4.group_on_premise;strokeColor=#C3CB71;fillColor=none;verticalAlign=top;align=left;spacingLeft=30;fontColor=#5A6C86;dashed=0;" parent="1" vertex="1">
          <mxGeometry x="740" y="1262.5" width="200" height="40" as="geometry" />
        </mxCell>
        <mxCell id="itcXOkuhVqPN7WuCLbZP-387" value="Database" style="text;html=1;align=center;verticalAlign=middle;whiteSpace=wrap;rounded=0;labelBackgroundColor=default;" parent="1" vertex="1">
          <mxGeometry x="1230" y="787.5" width="60" height="30" as="geometry" />
        </mxCell>
        <mxCell id="itcXOkuhVqPN7WuCLbZP-390" value="Middleware" style="fillColor=none;strokeColor=default;verticalAlign=top;fontStyle=0;fontColor=#000000;whiteSpace=wrap;html=1;fontSize=10;" parent="1" vertex="1">
          <mxGeometry x="60" y="942.5" width="120" height="80" as="geometry" />
        </mxCell>
        <mxCell id="itcXOkuhVqPN7WuCLbZP-391" value="Guard" style="fillColor=none;strokeColor=default;verticalAlign=top;fontStyle=0;fontColor=#000000;whiteSpace=wrap;html=1;fontSize=10;" parent="1" vertex="1">
          <mxGeometry x="200" y="942.5" width="120" height="80" as="geometry" />
        </mxCell>
        <mxCell id="itcXOkuhVqPN7WuCLbZP-392" value="Request Interceptor" style="fillColor=none;strokeColor=default;verticalAlign=top;fontStyle=0;fontColor=#000000;whiteSpace=wrap;html=1;fontSize=10;opacity=50;textOpacity=50;" parent="1" vertex="1">
          <mxGeometry x="340" y="942.5" width="140" height="80" as="geometry" />
        </mxCell>
        <mxCell id="itcXOkuhVqPN7WuCLbZP-393" value="Pipe" style="fillColor=none;strokeColor=default;verticalAlign=top;fontStyle=0;fontColor=#000000;whiteSpace=wrap;html=1;fontSize=10;" parent="1" vertex="1">
          <mxGeometry x="500" y="942.5" width="120" height="80" as="geometry" />
        </mxCell>
        <mxCell id="itcXOkuhVqPN7WuCLbZP-406" style="edgeStyle=orthogonalEdgeStyle;rounded=0;orthogonalLoop=1;jettySize=auto;html=1;" parent="1" source="itcXOkuhVqPN7WuCLbZP-396" target="itcXOkuhVqPN7WuCLbZP-404" edge="1">
          <mxGeometry relative="1" as="geometry" />
        </mxCell>
        <mxCell id="itcXOkuhVqPN7WuCLbZP-396" value="Exception Filter" style="fillColor=none;strokeColor=default;verticalAlign=top;fontStyle=0;fontColor=#000000;whiteSpace=wrap;html=1;fontSize=10;" parent="1" vertex="1">
          <mxGeometry x="320" y="1102.5" width="140" height="80" as="geometry" />
        </mxCell>
        <mxCell id="itcXOkuhVqPN7WuCLbZP-397" value="Response Interceptor" style="fillColor=none;strokeColor=default;verticalAlign=top;fontStyle=0;fontColor=#000000;whiteSpace=wrap;html=1;fontSize=10;" parent="1" vertex="1">
          <mxGeometry x="480" y="1102.5" width="140" height="80" as="geometry" />
        </mxCell>
        <mxCell id="itcXOkuhVqPN7WuCLbZP-398" value="" style="endArrow=classic;html=1;rounded=0;exitX=1;exitY=0.5;exitDx=0;exitDy=0;entryX=0;entryY=0.5;entryDx=0;entryDy=0;" parent="1" source="itcXOkuhVqPN7WuCLbZP-390" target="itcXOkuhVqPN7WuCLbZP-391" edge="1">
          <mxGeometry width="50" height="50" relative="1" as="geometry">
            <mxPoint x="380" y="1092.5" as="sourcePoint" />
            <mxPoint x="430" y="1042.5" as="targetPoint" />
          </mxGeometry>
        </mxCell>
        <mxCell id="itcXOkuhVqPN7WuCLbZP-399" value="" style="endArrow=classic;html=1;rounded=0;exitX=1;exitY=0.5;exitDx=0;exitDy=0;" parent="1" source="itcXOkuhVqPN7WuCLbZP-391" target="itcXOkuhVqPN7WuCLbZP-392" edge="1">
          <mxGeometry width="50" height="50" relative="1" as="geometry">
            <mxPoint x="290" y="992.5" as="sourcePoint" />
            <mxPoint x="310" y="992.5" as="targetPoint" />
          </mxGeometry>
        </mxCell>
        <mxCell id="itcXOkuhVqPN7WuCLbZP-400" value="" style="endArrow=classic;html=1;rounded=0;exitX=1;exitY=0.5;exitDx=0;exitDy=0;entryX=0;entryY=0.5;entryDx=0;entryDy=0;" parent="1" source="itcXOkuhVqPN7WuCLbZP-392" target="itcXOkuhVqPN7WuCLbZP-393" edge="1">
          <mxGeometry width="50" height="50" relative="1" as="geometry">
            <mxPoint x="450" y="1002.5" as="sourcePoint" />
            <mxPoint x="470" y="1002.5" as="targetPoint" />
          </mxGeometry>
        </mxCell>
        <mxCell id="itcXOkuhVqPN7WuCLbZP-401" value="" style="endArrow=classic;html=1;rounded=0;exitX=1;exitY=0.5;exitDx=0;exitDy=0;" parent="1" source="itcXOkuhVqPN7WuCLbZP-393" edge="1">
          <mxGeometry width="50" height="50" relative="1" as="geometry">
            <mxPoint x="600" y="1032.5" as="sourcePoint" />
            <mxPoint x="660" y="982.5" as="targetPoint" />
          </mxGeometry>
        </mxCell>
        <mxCell id="itcXOkuhVqPN7WuCLbZP-402" value="" style="endArrow=classic;html=1;rounded=0;entryX=1;entryY=0.5;entryDx=0;entryDy=0;" parent="1" target="itcXOkuhVqPN7WuCLbZP-397" edge="1">
          <mxGeometry width="50" height="50" relative="1" as="geometry">
            <mxPoint x="660" y="1142.5" as="sourcePoint" />
            <mxPoint x="690" y="1092.5" as="targetPoint" />
          </mxGeometry>
        </mxCell>
        <mxCell id="itcXOkuhVqPN7WuCLbZP-403" value="" style="endArrow=classic;html=1;rounded=0;exitX=0;exitY=0.5;exitDx=0;exitDy=0;entryX=1;entryY=0.5;entryDx=0;entryDy=0;" parent="1" source="itcXOkuhVqPN7WuCLbZP-397" target="itcXOkuhVqPN7WuCLbZP-396" edge="1">
          <mxGeometry width="50" height="50" relative="1" as="geometry">
            <mxPoint x="540" y="1202.5" as="sourcePoint" />
            <mxPoint x="580" y="1202.5" as="targetPoint" />
          </mxGeometry>
        </mxCell>
        <mxCell id="itcXOkuhVqPN7WuCLbZP-405" style="edgeStyle=orthogonalEdgeStyle;rounded=0;orthogonalLoop=1;jettySize=auto;html=1;entryX=0.5;entryY=1;entryDx=0;entryDy=0;" parent="1" source="itcXOkuhVqPN7WuCLbZP-404" target="itcXOkuhVqPN7WuCLbZP-390" edge="1">
          <mxGeometry relative="1" as="geometry" />
        </mxCell>
        <mxCell id="itcXOkuhVqPN7WuCLbZP-404" value="Client" style="sketch=0;outlineConnect=0;fontColor=#232F3E;gradientColor=none;fillColor=#232F3D;strokeColor=none;dashed=0;verticalLabelPosition=bottom;verticalAlign=top;align=center;html=1;fontSize=12;fontStyle=0;aspect=fixed;pointerEvents=1;shape=mxgraph.aws4.users;" parent="1" vertex="1">
          <mxGeometry x="100" y="1122.5" width="40" height="40" as="geometry" />
        </mxCell>
        <mxCell id="itcXOkuhVqPN7WuCLbZP-407" value="&lt;div&gt;ValidationPipe&lt;/div&gt;" style="text;html=1;align=center;verticalAlign=middle;whiteSpace=wrap;rounded=0;fontSize=10;spacing=3;" parent="1" vertex="1">
          <mxGeometry x="500" y="967.5" width="120" height="30" as="geometry" />
        </mxCell>
        <mxCell id="itcXOkuhVqPN7WuCLbZP-408" value="&lt;div&gt;@Exclude, @Expose&lt;/div&gt;&lt;div&gt;instanceToPlain()&lt;/div&gt;" style="text;html=1;align=center;verticalAlign=middle;whiteSpace=wrap;rounded=0;fontSize=10;spacing=3;" parent="1" vertex="1">
          <mxGeometry x="490" y="1127.5" width="120" height="30" as="geometry" />
        </mxCell>
        <mxCell id="itcXOkuhVqPN7WuCLbZP-409" value="TypeORM PostgreSQL&lt;div&gt;Exception to HTTP Error&lt;/div&gt;" style="text;html=1;align=center;verticalAlign=middle;whiteSpace=wrap;rounded=0;fontSize=10;spacing=3;" parent="1" vertex="1">
          <mxGeometry x="330" y="1127.5" width="120" height="30" as="geometry" />
        </mxCell>
        <mxCell id="itcXOkuhVqPN7WuCLbZP-410" value="cookieParser" style="text;html=1;align=center;verticalAlign=middle;whiteSpace=wrap;rounded=0;fontSize=10;spacing=3;" parent="1" vertex="1">
          <mxGeometry x="60" y="967.5" width="120" height="30" as="geometry" />
        </mxCell>
        <mxCell id="itcXOkuhVqPN7WuCLbZP-411" value="JwtAuthGuard" style="text;html=1;align=center;verticalAlign=middle;whiteSpace=wrap;rounded=0;fontSize=10;spacing=3;" parent="1" vertex="1">
          <mxGeometry x="200" y="967.5" width="120" height="30" as="geometry" />
        </mxCell>
        <mxCell id="itcXOkuhVqPN7WuCLbZP-412" value="" style="endArrow=classic;html=1;rounded=1;curved=0;fillColor=#dae8fc;strokeColor=light-dark(#AE5A41,#9577A3);dashed=1;entryX=1.001;entryY=0.062;entryDx=0;entryDy=0;strokeWidth=1.5;entryPerimeter=0;" parent="1" target="itcXOkuhVqPN7WuCLbZP-111" edge="1">
          <mxGeometry width="50" height="50" relative="1" as="geometry">
            <mxPoint x="730" y="1122.5" as="sourcePoint" />
            <mxPoint x="355" y="1862.5" as="targetPoint" />
            <Array as="points">
              <mxPoint x="700" y="1122.5" />
              <mxPoint x="700" y="1642.5" />
              <mxPoint x="720" y="1643" />
              <mxPoint x="720" y="1930" />
            </Array>
          </mxGeometry>
        </mxCell>
        <mxCell id="_g8NAPxAyyhOKIvRYlVc-92" value="Post Repository" style="edgeLabel;html=1;align=center;verticalAlign=middle;resizable=0;points=[];" parent="itcXOkuhVqPN7WuCLbZP-412" vertex="1" connectable="0">
          <mxGeometry x="0.3764" y="-1" relative="1" as="geometry">
            <mxPoint y="-30" as="offset" />
          </mxGeometry>
        </mxCell>
        <mxCell id="itcXOkuhVqPN7WuCLbZP-413" value="" style="endArrow=classic;html=1;rounded=1;entryX=-0.001;entryY=0.089;entryDx=0;entryDy=0;entryPerimeter=0;curved=0;strokeWidth=1.5;fillColor=#dae8fc;strokeColor=light-dark(#A4A27E,#9577A3);dashed=1;exitX=0;exitY=0.5;exitDx=0;exitDy=0;" parent="1" source="itcXOkuhVqPN7WuCLbZP-421" target="itcXOkuhVqPN7WuCLbZP-166" edge="1">
          <mxGeometry width="50" height="50" relative="1" as="geometry">
            <mxPoint x="730" y="1200" as="sourcePoint" />
            <mxPoint x="960" y="1622.5" as="targetPoint" />
            <Array as="points">
              <mxPoint x="710" y="1202.5" />
              <mxPoint x="710" y="1632.5" />
              <mxPoint x="850" y="1633" />
              <mxPoint x="850" y="2076" />
            </Array>
          </mxGeometry>
        </mxCell>
        <mxCell id="_g8NAPxAyyhOKIvRYlVc-93" value="Comment Repository" style="edgeLabel;html=1;align=center;verticalAlign=middle;resizable=0;points=[];" parent="itcXOkuhVqPN7WuCLbZP-413" vertex="1" connectable="0">
          <mxGeometry x="0.1269" y="-1" relative="1" as="geometry">
            <mxPoint x="-74" y="-19" as="offset" />
          </mxGeometry>
        </mxCell>
        <mxCell id="itcXOkuhVqPN7WuCLbZP-49" value="topics" style="shape=table;startSize=30;container=1;collapsible=1;childLayout=tableLayout;fixedRows=1;rowLines=0;align=center;resizeLast=1;spacingTop=1;spacing=2;verticalAlign=middle;horizontal=1;fontFamily=Lucida Console;fontStyle=1;fillColor=#d5e8d4;strokeColor=#82b366;" parent="1" vertex="1">
          <mxGeometry x="160" y="1672.5" width="520" height="180" as="geometry">
            <mxRectangle x="620" y="320" width="70" height="30" as="alternateBounds" />
          </mxGeometry>
        </mxCell>
        <mxCell id="itcXOkuhVqPN7WuCLbZP-50" value="" style="shape=tableRow;horizontal=1;startSize=0;swimlaneHead=0;swimlaneBody=0;fillColor=none;collapsible=0;dropTarget=0;points=[[0,0.5],[1,0.5]];portConstraint=eastwest;top=0;left=0;right=0;bottom=1;spacingTop=1;spacing=2;verticalAlign=middle;fontFamily=Lucida Console;" parent="itcXOkuhVqPN7WuCLbZP-49" vertex="1">
          <mxGeometry y="30" width="520" height="30" as="geometry" />
        </mxCell>
        <mxCell id="itcXOkuhVqPN7WuCLbZP-51" value="PK" style="shape=partialRectangle;connectable=0;fillColor=none;top=0;left=0;bottom=0;right=0;overflow=hidden;whiteSpace=wrap;spacingTop=1;spacing=2;verticalAlign=middle;horizontal=1;fontFamily=Lucida Console;fontStyle=1" parent="itcXOkuhVqPN7WuCLbZP-50" vertex="1">
          <mxGeometry width="40" height="30" as="geometry">
            <mxRectangle width="40" height="30" as="alternateBounds" />
          </mxGeometry>
        </mxCell>
        <mxCell id="itcXOkuhVqPN7WuCLbZP-52" value="id" style="shape=partialRectangle;connectable=0;fillColor=none;top=0;left=0;bottom=0;right=0;align=left;spacingLeft=6;overflow=hidden;whiteSpace=wrap;spacingTop=1;spacing=2;verticalAlign=middle;horizontal=1;fontFamily=Lucida Console;fontStyle=1" parent="itcXOkuhVqPN7WuCLbZP-50" vertex="1">
          <mxGeometry x="40" width="100" height="30" as="geometry">
            <mxRectangle width="100" height="30" as="alternateBounds" />
          </mxGeometry>
        </mxCell>
        <mxCell id="itcXOkuhVqPN7WuCLbZP-53" value="INT" style="shape=partialRectangle;connectable=0;fillColor=none;top=0;left=0;bottom=0;right=0;align=left;spacingLeft=6;overflow=hidden;whiteSpace=wrap;spacingTop=1;spacing=2;verticalAlign=middle;horizontal=1;fontFamily=Lucida Console;fontStyle=1" parent="itcXOkuhVqPN7WuCLbZP-50" vertex="1">
          <mxGeometry x="140" width="120" height="30" as="geometry">
            <mxRectangle width="120" height="30" as="alternateBounds" />
          </mxGeometry>
        </mxCell>
        <mxCell id="itcXOkuhVqPN7WuCLbZP-54" value="NOT NULL" style="shape=partialRectangle;connectable=0;fillColor=none;top=0;left=0;bottom=0;right=0;align=left;spacingLeft=6;overflow=hidden;whiteSpace=wrap;spacingTop=1;spacing=2;verticalAlign=middle;horizontal=1;fontFamily=Lucida Console;fontStyle=1" parent="itcXOkuhVqPN7WuCLbZP-50" vertex="1">
          <mxGeometry x="260" width="80" height="30" as="geometry">
            <mxRectangle width="80" height="30" as="alternateBounds" />
          </mxGeometry>
        </mxCell>
        <mxCell id="itcXOkuhVqPN7WuCLbZP-55" style="shape=partialRectangle;connectable=0;fillColor=none;top=0;left=0;bottom=0;right=0;align=left;spacingLeft=6;overflow=hidden;whiteSpace=wrap;spacingTop=1;spacing=2;verticalAlign=middle;horizontal=1;fontFamily=Lucida Console;fontStyle=1" parent="itcXOkuhVqPN7WuCLbZP-50" vertex="1">
          <mxGeometry x="340" width="180" height="30" as="geometry">
            <mxRectangle width="180" height="30" as="alternateBounds" />
          </mxGeometry>
        </mxCell>
        <mxCell id="itcXOkuhVqPN7WuCLbZP-56" value="" style="shape=tableRow;horizontal=1;startSize=0;swimlaneHead=0;swimlaneBody=0;fillColor=none;collapsible=0;dropTarget=0;points=[[0,0.5],[1,0.5]];portConstraint=eastwest;top=0;left=0;right=0;bottom=0;spacingTop=1;spacing=2;verticalAlign=middle;fontFamily=Lucida Console;" parent="itcXOkuhVqPN7WuCLbZP-49" vertex="1">
          <mxGeometry y="60" width="520" height="30" as="geometry" />
        </mxCell>
        <mxCell id="itcXOkuhVqPN7WuCLbZP-57" value="UK" style="shape=partialRectangle;connectable=0;fillColor=none;top=0;left=0;bottom=0;right=0;editable=1;overflow=hidden;whiteSpace=wrap;spacingTop=1;spacing=2;verticalAlign=middle;horizontal=1;fontFamily=Lucida Console;" parent="itcXOkuhVqPN7WuCLbZP-56" vertex="1">
          <mxGeometry width="40" height="30" as="geometry">
            <mxRectangle width="40" height="30" as="alternateBounds" />
          </mxGeometry>
        </mxCell>
        <mxCell id="itcXOkuhVqPN7WuCLbZP-58" value="slug" style="shape=partialRectangle;connectable=0;fillColor=none;top=0;left=0;bottom=0;right=0;align=left;spacingLeft=6;overflow=hidden;whiteSpace=wrap;spacingTop=1;spacing=2;verticalAlign=middle;horizontal=1;fontFamily=Lucida Console;" parent="itcXOkuhVqPN7WuCLbZP-56" vertex="1">
          <mxGeometry x="40" width="100" height="30" as="geometry">
            <mxRectangle width="100" height="30" as="alternateBounds" />
          </mxGeometry>
        </mxCell>
        <mxCell id="itcXOkuhVqPN7WuCLbZP-59" value="VARCHAR(32)" style="shape=partialRectangle;connectable=0;fillColor=none;top=0;left=0;bottom=0;right=0;align=left;spacingLeft=6;overflow=hidden;whiteSpace=wrap;spacingTop=1;spacing=2;verticalAlign=middle;horizontal=1;fontFamily=Lucida Console;" parent="itcXOkuhVqPN7WuCLbZP-56" vertex="1">
          <mxGeometry x="140" width="120" height="30" as="geometry">
            <mxRectangle width="120" height="30" as="alternateBounds" />
          </mxGeometry>
        </mxCell>
        <mxCell id="itcXOkuhVqPN7WuCLbZP-60" value="NOT NULL" style="shape=partialRectangle;connectable=0;fillColor=none;top=0;left=0;bottom=0;right=0;align=left;spacingLeft=6;overflow=hidden;whiteSpace=wrap;spacingTop=1;spacing=2;verticalAlign=middle;horizontal=1;fontFamily=Lucida Console;" parent="itcXOkuhVqPN7WuCLbZP-56" vertex="1">
          <mxGeometry x="260" width="80" height="30" as="geometry">
            <mxRectangle width="80" height="30" as="alternateBounds" />
          </mxGeometry>
        </mxCell>
        <mxCell id="itcXOkuhVqPN7WuCLbZP-61" style="shape=partialRectangle;connectable=0;fillColor=none;top=0;left=0;bottom=0;right=0;align=left;spacingLeft=6;overflow=hidden;whiteSpace=wrap;spacingTop=1;spacing=2;verticalAlign=middle;horizontal=1;fontFamily=Lucida Console;" parent="itcXOkuhVqPN7WuCLbZP-56" vertex="1">
          <mxGeometry x="340" width="180" height="30" as="geometry">
            <mxRectangle width="180" height="30" as="alternateBounds" />
          </mxGeometry>
        </mxCell>
        <mxCell id="itcXOkuhVqPN7WuCLbZP-62" value="" style="shape=tableRow;horizontal=1;startSize=0;swimlaneHead=0;swimlaneBody=0;fillColor=none;collapsible=0;dropTarget=0;points=[[0,0.5],[1,0.5]];portConstraint=eastwest;top=0;left=0;right=0;bottom=0;spacingTop=1;spacing=2;verticalAlign=middle;fontFamily=Lucida Console;" parent="itcXOkuhVqPN7WuCLbZP-49" vertex="1">
          <mxGeometry y="90" width="520" height="30" as="geometry" />
        </mxCell>
        <mxCell id="itcXOkuhVqPN7WuCLbZP-63" value="" style="shape=partialRectangle;connectable=0;fillColor=none;top=0;left=0;bottom=0;right=0;editable=1;overflow=hidden;whiteSpace=wrap;spacingTop=1;spacing=2;verticalAlign=middle;horizontal=1;fontFamily=Lucida Console;" parent="itcXOkuhVqPN7WuCLbZP-62" vertex="1">
          <mxGeometry width="40" height="30" as="geometry">
            <mxRectangle width="40" height="30" as="alternateBounds" />
          </mxGeometry>
        </mxCell>
        <mxCell id="itcXOkuhVqPN7WuCLbZP-64" value="description" style="shape=partialRectangle;connectable=0;fillColor=none;top=0;left=0;bottom=0;right=0;align=left;spacingLeft=6;overflow=hidden;whiteSpace=wrap;spacingTop=1;spacing=2;verticalAlign=middle;horizontal=1;fontFamily=Lucida Console;" parent="itcXOkuhVqPN7WuCLbZP-62" vertex="1">
          <mxGeometry x="40" width="100" height="30" as="geometry">
            <mxRectangle width="100" height="30" as="alternateBounds" />
          </mxGeometry>
        </mxCell>
        <mxCell id="itcXOkuhVqPN7WuCLbZP-65" value="VARCHAR(255)" style="shape=partialRectangle;connectable=0;fillColor=none;top=0;left=0;bottom=0;right=0;align=left;spacingLeft=6;overflow=hidden;whiteSpace=wrap;spacingTop=1;spacing=2;verticalAlign=middle;horizontal=1;fontFamily=Lucida Console;" parent="itcXOkuhVqPN7WuCLbZP-62" vertex="1">
          <mxGeometry x="140" width="120" height="30" as="geometry">
            <mxRectangle width="120" height="30" as="alternateBounds" />
          </mxGeometry>
        </mxCell>
        <mxCell id="itcXOkuhVqPN7WuCLbZP-66" value="NOT NULL" style="shape=partialRectangle;connectable=0;fillColor=none;top=0;left=0;bottom=0;right=0;align=left;spacingLeft=6;overflow=hidden;whiteSpace=wrap;spacingTop=1;spacing=2;verticalAlign=middle;horizontal=1;fontFamily=Lucida Console;" parent="itcXOkuhVqPN7WuCLbZP-62" vertex="1">
          <mxGeometry x="260" width="80" height="30" as="geometry">
            <mxRectangle width="80" height="30" as="alternateBounds" />
          </mxGeometry>
        </mxCell>
        <mxCell id="itcXOkuhVqPN7WuCLbZP-67" style="shape=partialRectangle;connectable=0;fillColor=none;top=0;left=0;bottom=0;right=0;align=left;spacingLeft=6;overflow=hidden;whiteSpace=wrap;spacingTop=1;spacing=2;verticalAlign=middle;horizontal=1;fontFamily=Lucida Console;" parent="itcXOkuhVqPN7WuCLbZP-62" vertex="1">
          <mxGeometry x="340" width="180" height="30" as="geometry">
            <mxRectangle width="180" height="30" as="alternateBounds" />
          </mxGeometry>
        </mxCell>
        <mxCell id="itcXOkuhVqPN7WuCLbZP-68" value="" style="shape=tableRow;horizontal=1;startSize=0;swimlaneHead=0;swimlaneBody=0;fillColor=none;collapsible=0;dropTarget=0;points=[[0,0.5],[1,0.5]];portConstraint=eastwest;top=0;left=0;right=0;bottom=0;spacingTop=1;spacing=2;verticalAlign=middle;fontFamily=Lucida Console;" parent="itcXOkuhVqPN7WuCLbZP-49" vertex="1">
          <mxGeometry y="120" width="520" height="30" as="geometry" />
        </mxCell>
        <mxCell id="itcXOkuhVqPN7WuCLbZP-69" value="" style="shape=partialRectangle;connectable=0;fillColor=none;top=0;left=0;bottom=0;right=0;editable=1;overflow=hidden;whiteSpace=wrap;spacingTop=1;spacing=2;verticalAlign=middle;horizontal=1;fontFamily=Lucida Console;" parent="itcXOkuhVqPN7WuCLbZP-68" vertex="1">
          <mxGeometry width="40" height="30" as="geometry">
            <mxRectangle width="40" height="30" as="alternateBounds" />
          </mxGeometry>
        </mxCell>
        <mxCell id="itcXOkuhVqPN7WuCLbZP-70" value="createdAt" style="shape=partialRectangle;connectable=0;fillColor=none;top=0;left=0;bottom=0;right=0;align=left;spacingLeft=6;overflow=hidden;whiteSpace=wrap;spacingTop=1;spacing=2;verticalAlign=middle;horizontal=1;fontFamily=Lucida Console;gradientColor=none;strokeColor=default;perimeterSpacing=0;" parent="itcXOkuhVqPN7WuCLbZP-68" vertex="1">
          <mxGeometry x="40" width="100" height="30" as="geometry">
            <mxRectangle width="100" height="30" as="alternateBounds" />
          </mxGeometry>
        </mxCell>
        <mxCell id="itcXOkuhVqPN7WuCLbZP-71" value="TIMESTAMPTZ" style="shape=partialRectangle;connectable=0;fillColor=none;top=0;left=0;bottom=0;right=0;align=left;spacingLeft=6;overflow=hidden;whiteSpace=wrap;spacingTop=1;spacing=2;verticalAlign=middle;horizontal=1;fontFamily=Lucida Console;gradientColor=none;strokeColor=default;perimeterSpacing=0;" parent="itcXOkuhVqPN7WuCLbZP-68" vertex="1">
          <mxGeometry x="140" width="120" height="30" as="geometry">
            <mxRectangle width="120" height="30" as="alternateBounds" />
          </mxGeometry>
        </mxCell>
        <mxCell id="itcXOkuhVqPN7WuCLbZP-72" value="NOT NULL" style="shape=partialRectangle;connectable=0;fillColor=none;top=0;left=0;bottom=0;right=0;align=left;spacingLeft=6;overflow=hidden;whiteSpace=wrap;spacingTop=1;spacing=2;verticalAlign=middle;horizontal=1;fontFamily=Lucida Console;gradientColor=none;strokeColor=default;perimeterSpacing=0;" parent="itcXOkuhVqPN7WuCLbZP-68" vertex="1">
          <mxGeometry x="260" width="80" height="30" as="geometry">
            <mxRectangle width="80" height="30" as="alternateBounds" />
          </mxGeometry>
        </mxCell>
        <mxCell id="itcXOkuhVqPN7WuCLbZP-73" value="CURRENT_TIMESTAMP" style="shape=partialRectangle;connectable=0;fillColor=none;top=0;left=0;bottom=0;right=0;align=left;spacingLeft=6;overflow=hidden;whiteSpace=wrap;spacingTop=1;spacing=2;verticalAlign=middle;horizontal=1;fontFamily=Lucida Console;gradientColor=none;strokeColor=default;perimeterSpacing=0;" parent="itcXOkuhVqPN7WuCLbZP-68" vertex="1">
          <mxGeometry x="340" width="180" height="30" as="geometry">
            <mxRectangle width="180" height="30" as="alternateBounds" />
          </mxGeometry>
        </mxCell>
        <mxCell id="itcXOkuhVqPN7WuCLbZP-74" value="" style="shape=tableRow;horizontal=1;startSize=0;swimlaneHead=0;swimlaneBody=0;fillColor=none;collapsible=0;dropTarget=0;points=[[0,0.5],[1,0.5]];portConstraint=eastwest;top=0;left=0;right=0;bottom=0;spacingTop=1;spacing=2;verticalAlign=middle;fontFamily=Lucida Console;" parent="itcXOkuhVqPN7WuCLbZP-49" vertex="1">
          <mxGeometry y="150" width="520" height="30" as="geometry" />
        </mxCell>
        <mxCell id="itcXOkuhVqPN7WuCLbZP-75" value="FK" style="shape=partialRectangle;connectable=0;fillColor=none;top=0;left=0;bottom=0;right=0;editable=1;overflow=hidden;whiteSpace=wrap;spacingTop=1;spacing=2;verticalAlign=middle;horizontal=1;fontFamily=Lucida Console;" parent="itcXOkuhVqPN7WuCLbZP-74" vertex="1">
          <mxGeometry width="40" height="30" as="geometry">
            <mxRectangle width="40" height="30" as="alternateBounds" />
          </mxGeometry>
        </mxCell>
        <mxCell id="itcXOkuhVqPN7WuCLbZP-76" value="creatorId" style="shape=partialRectangle;connectable=0;fillColor=none;top=0;left=0;bottom=0;right=0;align=left;spacingLeft=6;overflow=hidden;whiteSpace=wrap;spacingTop=1;spacing=2;verticalAlign=middle;horizontal=1;fontFamily=Lucida Console;strokeColor=default;fontStyle=1" parent="itcXOkuhVqPN7WuCLbZP-74" vertex="1">
          <mxGeometry x="40" width="100" height="30" as="geometry">
            <mxRectangle width="100" height="30" as="alternateBounds" />
          </mxGeometry>
        </mxCell>
        <mxCell id="itcXOkuhVqPN7WuCLbZP-77" value="INT" style="shape=partialRectangle;connectable=0;fillColor=none;top=0;left=0;bottom=0;right=0;align=left;spacingLeft=6;overflow=hidden;whiteSpace=wrap;spacingTop=1;spacing=2;verticalAlign=middle;horizontal=1;fontFamily=Lucida Console;strokeColor=default;" parent="itcXOkuhVqPN7WuCLbZP-74" vertex="1">
          <mxGeometry x="140" width="120" height="30" as="geometry">
            <mxRectangle width="120" height="30" as="alternateBounds" />
          </mxGeometry>
        </mxCell>
        <mxCell id="itcXOkuhVqPN7WuCLbZP-78" value="NULL" style="shape=partialRectangle;connectable=0;fillColor=none;top=0;left=0;bottom=0;right=0;align=left;spacingLeft=6;overflow=hidden;whiteSpace=wrap;spacingTop=1;spacing=2;verticalAlign=middle;horizontal=1;fontFamily=Lucida Console;strokeColor=default;" parent="itcXOkuhVqPN7WuCLbZP-74" vertex="1">
          <mxGeometry x="260" width="80" height="30" as="geometry">
            <mxRectangle width="80" height="30" as="alternateBounds" />
          </mxGeometry>
        </mxCell>
        <mxCell id="itcXOkuhVqPN7WuCLbZP-79" value="REFERENCES users(id)" style="shape=partialRectangle;connectable=0;fillColor=none;top=0;left=0;bottom=0;right=0;align=left;spacingLeft=6;overflow=hidden;whiteSpace=wrap;spacingTop=1;spacing=2;verticalAlign=middle;horizontal=1;fontFamily=Lucida Console;strokeColor=default;" parent="itcXOkuhVqPN7WuCLbZP-74" vertex="1">
          <mxGeometry x="340" width="180" height="30" as="geometry">
            <mxRectangle width="180" height="30" as="alternateBounds" />
          </mxGeometry>
        </mxCell>
        <mxCell id="itcXOkuhVqPN7WuCLbZP-80" value="users" style="shape=table;startSize=30;container=1;collapsible=1;childLayout=tableLayout;fixedRows=1;rowLines=0;align=center;resizeLast=1;spacingTop=1;spacing=2;verticalAlign=middle;horizontal=1;fontFamily=Lucida Console;fontStyle=1;fillColor=#dae8fc;strokeColor=#6c8ebf;" parent="1" vertex="1">
          <mxGeometry x="880" y="1672.5" width="520" height="330" as="geometry">
            <mxRectangle x="620" y="320" width="70" height="30" as="alternateBounds" />
          </mxGeometry>
        </mxCell>
        <mxCell id="itcXOkuhVqPN7WuCLbZP-81" value="" style="shape=tableRow;horizontal=1;startSize=0;swimlaneHead=0;swimlaneBody=0;fillColor=none;collapsible=0;dropTarget=0;points=[[0,0.5],[1,0.5]];portConstraint=eastwest;top=0;left=0;right=0;bottom=1;spacingTop=1;spacing=2;verticalAlign=middle;fontFamily=Lucida Console;" parent="itcXOkuhVqPN7WuCLbZP-80" vertex="1">
          <mxGeometry y="30" width="520" height="30" as="geometry" />
        </mxCell>
        <mxCell id="itcXOkuhVqPN7WuCLbZP-82" value="PK" style="shape=partialRectangle;connectable=0;fillColor=none;top=0;left=0;bottom=0;right=0;overflow=hidden;whiteSpace=wrap;spacingTop=1;spacing=2;verticalAlign=middle;horizontal=1;fontFamily=Lucida Console;fontStyle=1" parent="itcXOkuhVqPN7WuCLbZP-81" vertex="1">
          <mxGeometry width="40" height="30" as="geometry">
            <mxRectangle width="40" height="30" as="alternateBounds" />
          </mxGeometry>
        </mxCell>
        <mxCell id="itcXOkuhVqPN7WuCLbZP-83" value="id" style="shape=partialRectangle;connectable=0;fillColor=none;top=0;left=0;bottom=0;right=0;align=left;spacingLeft=6;overflow=hidden;whiteSpace=wrap;spacingTop=1;spacing=2;verticalAlign=middle;horizontal=1;fontFamily=Lucida Console;fontStyle=1" parent="itcXOkuhVqPN7WuCLbZP-81" vertex="1">
          <mxGeometry x="40" width="100" height="30" as="geometry">
            <mxRectangle width="100" height="30" as="alternateBounds" />
          </mxGeometry>
        </mxCell>
        <mxCell id="itcXOkuhVqPN7WuCLbZP-84" value="INT" style="shape=partialRectangle;connectable=0;fillColor=none;top=0;left=0;bottom=0;right=0;align=left;spacingLeft=6;overflow=hidden;whiteSpace=wrap;spacingTop=1;spacing=2;verticalAlign=middle;horizontal=1;fontFamily=Lucida Console;fontStyle=1" parent="itcXOkuhVqPN7WuCLbZP-81" vertex="1">
          <mxGeometry x="140" width="120" height="30" as="geometry">
            <mxRectangle width="120" height="30" as="alternateBounds" />
          </mxGeometry>
        </mxCell>
        <mxCell id="itcXOkuhVqPN7WuCLbZP-85" value="NOT NULL" style="shape=partialRectangle;connectable=0;fillColor=none;top=0;left=0;bottom=0;right=0;align=left;spacingLeft=6;overflow=hidden;whiteSpace=wrap;spacingTop=1;spacing=2;verticalAlign=middle;horizontal=1;fontFamily=Lucida Console;fontStyle=1" parent="itcXOkuhVqPN7WuCLbZP-81" vertex="1">
          <mxGeometry x="260" width="80" height="30" as="geometry">
            <mxRectangle width="80" height="30" as="alternateBounds" />
          </mxGeometry>
        </mxCell>
        <mxCell id="itcXOkuhVqPN7WuCLbZP-86" style="shape=partialRectangle;connectable=0;fillColor=none;top=0;left=0;bottom=0;right=0;align=left;spacingLeft=6;overflow=hidden;whiteSpace=wrap;spacingTop=1;spacing=2;verticalAlign=middle;horizontal=1;fontFamily=Lucida Console;fontStyle=1" parent="itcXOkuhVqPN7WuCLbZP-81" vertex="1">
          <mxGeometry x="340" width="180" height="30" as="geometry">
            <mxRectangle width="180" height="30" as="alternateBounds" />
          </mxGeometry>
        </mxCell>
        <mxCell id="itcXOkuhVqPN7WuCLbZP-87" value="" style="shape=tableRow;horizontal=1;startSize=0;swimlaneHead=0;swimlaneBody=0;fillColor=none;collapsible=0;dropTarget=0;points=[[0,0.5],[1,0.5]];portConstraint=eastwest;top=0;left=0;right=0;bottom=0;spacingTop=1;spacing=2;verticalAlign=middle;fontFamily=Lucida Console;" parent="itcXOkuhVqPN7WuCLbZP-80" vertex="1">
          <mxGeometry y="60" width="520" height="30" as="geometry" />
        </mxCell>
        <mxCell id="itcXOkuhVqPN7WuCLbZP-88" value="UK" style="shape=partialRectangle;connectable=0;fillColor=none;top=0;left=0;bottom=0;right=0;editable=1;overflow=hidden;whiteSpace=wrap;spacingTop=1;spacing=2;verticalAlign=middle;horizontal=1;fontFamily=Lucida Console;" parent="itcXOkuhVqPN7WuCLbZP-87" vertex="1">
          <mxGeometry width="40" height="30" as="geometry">
            <mxRectangle width="40" height="30" as="alternateBounds" />
          </mxGeometry>
        </mxCell>
        <mxCell id="itcXOkuhVqPN7WuCLbZP-89" value="username" style="shape=partialRectangle;connectable=0;fillColor=none;top=0;left=0;bottom=0;right=0;align=left;spacingLeft=6;overflow=hidden;whiteSpace=wrap;spacingTop=1;spacing=2;verticalAlign=middle;horizontal=1;fontFamily=Lucida Console;" parent="itcXOkuhVqPN7WuCLbZP-87" vertex="1">
          <mxGeometry x="40" width="100" height="30" as="geometry">
            <mxRectangle width="100" height="30" as="alternateBounds" />
          </mxGeometry>
        </mxCell>
        <mxCell id="itcXOkuhVqPN7WuCLbZP-90" value="VARCHAR(32)" style="shape=partialRectangle;connectable=0;fillColor=none;top=0;left=0;bottom=0;right=0;align=left;spacingLeft=6;overflow=hidden;whiteSpace=wrap;spacingTop=1;spacing=2;verticalAlign=middle;horizontal=1;fontFamily=Lucida Console;" parent="itcXOkuhVqPN7WuCLbZP-87" vertex="1">
          <mxGeometry x="140" width="120" height="30" as="geometry">
            <mxRectangle width="120" height="30" as="alternateBounds" />
          </mxGeometry>
        </mxCell>
        <mxCell id="itcXOkuhVqPN7WuCLbZP-91" value="NOT NULL" style="shape=partialRectangle;connectable=0;fillColor=none;top=0;left=0;bottom=0;right=0;align=left;spacingLeft=6;overflow=hidden;whiteSpace=wrap;spacingTop=1;spacing=2;verticalAlign=middle;horizontal=1;fontFamily=Lucida Console;" parent="itcXOkuhVqPN7WuCLbZP-87" vertex="1">
          <mxGeometry x="260" width="80" height="30" as="geometry">
            <mxRectangle width="80" height="30" as="alternateBounds" />
          </mxGeometry>
        </mxCell>
        <mxCell id="itcXOkuhVqPN7WuCLbZP-92" style="shape=partialRectangle;connectable=0;fillColor=none;top=0;left=0;bottom=0;right=0;align=left;spacingLeft=6;overflow=hidden;whiteSpace=wrap;spacingTop=1;spacing=2;verticalAlign=middle;horizontal=1;fontFamily=Lucida Console;" parent="itcXOkuhVqPN7WuCLbZP-87" vertex="1">
          <mxGeometry x="340" width="180" height="30" as="geometry">
            <mxRectangle width="180" height="30" as="alternateBounds" />
          </mxGeometry>
        </mxCell>
        <mxCell id="itcXOkuhVqPN7WuCLbZP-93" value="" style="shape=tableRow;horizontal=1;startSize=0;swimlaneHead=0;swimlaneBody=0;fillColor=none;collapsible=0;dropTarget=0;points=[[0,0.5],[1,0.5]];portConstraint=eastwest;top=0;left=0;right=0;bottom=0;spacingTop=1;spacing=2;verticalAlign=middle;fontFamily=Lucida Console;" parent="itcXOkuhVqPN7WuCLbZP-80" vertex="1">
          <mxGeometry y="90" width="520" height="30" as="geometry" />
        </mxCell>
        <mxCell id="itcXOkuhVqPN7WuCLbZP-94" value="UK" style="shape=partialRectangle;connectable=0;fillColor=none;top=0;left=0;bottom=0;right=0;editable=1;overflow=hidden;whiteSpace=wrap;spacingTop=1;spacing=2;verticalAlign=middle;horizontal=1;fontFamily=Lucida Console;" parent="itcXOkuhVqPN7WuCLbZP-93" vertex="1">
          <mxGeometry width="40" height="30" as="geometry">
            <mxRectangle width="40" height="30" as="alternateBounds" />
          </mxGeometry>
        </mxCell>
        <mxCell id="itcXOkuhVqPN7WuCLbZP-95" value="email" style="shape=partialRectangle;connectable=0;fillColor=none;top=0;left=0;bottom=0;right=0;align=left;spacingLeft=6;overflow=hidden;whiteSpace=wrap;spacingTop=1;spacing=2;verticalAlign=middle;horizontal=1;fontFamily=Lucida Console;" parent="itcXOkuhVqPN7WuCLbZP-93" vertex="1">
          <mxGeometry x="40" width="100" height="30" as="geometry">
            <mxRectangle width="100" height="30" as="alternateBounds" />
          </mxGeometry>
        </mxCell>
        <mxCell id="itcXOkuhVqPN7WuCLbZP-96" value="VARCHAR(320)" style="shape=partialRectangle;connectable=0;fillColor=none;top=0;left=0;bottom=0;right=0;align=left;spacingLeft=6;overflow=hidden;whiteSpace=wrap;spacingTop=1;spacing=2;verticalAlign=middle;horizontal=1;fontFamily=Lucida Console;" parent="itcXOkuhVqPN7WuCLbZP-93" vertex="1">
          <mxGeometry x="140" width="120" height="30" as="geometry">
            <mxRectangle width="120" height="30" as="alternateBounds" />
          </mxGeometry>
        </mxCell>
        <mxCell id="itcXOkuhVqPN7WuCLbZP-97" value="NOT NULL" style="shape=partialRectangle;connectable=0;fillColor=none;top=0;left=0;bottom=0;right=0;align=left;spacingLeft=6;overflow=hidden;whiteSpace=wrap;spacingTop=1;spacing=2;verticalAlign=middle;horizontal=1;fontFamily=Lucida Console;" parent="itcXOkuhVqPN7WuCLbZP-93" vertex="1">
          <mxGeometry x="260" width="80" height="30" as="geometry">
            <mxRectangle width="80" height="30" as="alternateBounds" />
          </mxGeometry>
        </mxCell>
        <mxCell id="itcXOkuhVqPN7WuCLbZP-98" value="" style="shape=partialRectangle;connectable=0;fillColor=none;top=0;left=0;bottom=0;right=0;align=left;spacingLeft=6;overflow=hidden;whiteSpace=wrap;spacingTop=1;spacing=2;verticalAlign=middle;horizontal=1;fontFamily=Lucida Console;" parent="itcXOkuhVqPN7WuCLbZP-93" vertex="1">
          <mxGeometry x="340" width="180" height="30" as="geometry">
            <mxRectangle width="180" height="30" as="alternateBounds" />
          </mxGeometry>
        </mxCell>
        <mxCell id="itcXOkuhVqPN7WuCLbZP-99" value="" style="shape=tableRow;horizontal=1;startSize=0;swimlaneHead=0;swimlaneBody=0;fillColor=none;collapsible=0;dropTarget=0;points=[[0,0.5],[1,0.5]];portConstraint=eastwest;top=0;left=0;right=0;bottom=0;spacingTop=1;spacing=2;verticalAlign=middle;fontFamily=Lucida Console;" parent="itcXOkuhVqPN7WuCLbZP-80" vertex="1">
          <mxGeometry y="120" width="520" height="30" as="geometry" />
        </mxCell>
        <mxCell id="itcXOkuhVqPN7WuCLbZP-100" value="" style="shape=partialRectangle;connectable=0;fillColor=none;top=0;left=0;bottom=0;right=0;editable=1;overflow=hidden;whiteSpace=wrap;spacingTop=1;spacing=2;verticalAlign=middle;horizontal=1;fontFamily=Lucida Console;" parent="itcXOkuhVqPN7WuCLbZP-99" vertex="1">
          <mxGeometry width="40" height="30" as="geometry">
            <mxRectangle width="40" height="30" as="alternateBounds" />
          </mxGeometry>
        </mxCell>
        <mxCell id="itcXOkuhVqPN7WuCLbZP-101" value="password" style="shape=partialRectangle;connectable=0;fillColor=none;top=0;left=0;bottom=0;right=0;align=left;spacingLeft=6;overflow=hidden;whiteSpace=wrap;spacingTop=1;spacing=2;verticalAlign=middle;horizontal=1;fontFamily=Lucida Console;gradientColor=none;strokeColor=default;perimeterSpacing=0;" parent="itcXOkuhVqPN7WuCLbZP-99" vertex="1">
          <mxGeometry x="40" width="100" height="30" as="geometry">
            <mxRectangle width="100" height="30" as="alternateBounds" />
          </mxGeometry>
        </mxCell>
        <mxCell id="itcXOkuhVqPN7WuCLbZP-102" value="VARCHAR(255)" style="shape=partialRectangle;connectable=0;fillColor=none;top=0;left=0;bottom=0;right=0;align=left;spacingLeft=6;overflow=hidden;whiteSpace=wrap;spacingTop=1;spacing=2;verticalAlign=middle;horizontal=1;fontFamily=Lucida Console;gradientColor=none;strokeColor=default;perimeterSpacing=0;" parent="itcXOkuhVqPN7WuCLbZP-99" vertex="1">
          <mxGeometry x="140" width="120" height="30" as="geometry">
            <mxRectangle width="120" height="30" as="alternateBounds" />
          </mxGeometry>
        </mxCell>
        <mxCell id="itcXOkuhVqPN7WuCLbZP-103" value="NOT NULL" style="shape=partialRectangle;connectable=0;fillColor=none;top=0;left=0;bottom=0;right=0;align=left;spacingLeft=6;overflow=hidden;whiteSpace=wrap;spacingTop=1;spacing=2;verticalAlign=middle;horizontal=1;fontFamily=Lucida Console;gradientColor=none;strokeColor=default;perimeterSpacing=0;" parent="itcXOkuhVqPN7WuCLbZP-99" vertex="1">
          <mxGeometry x="260" width="80" height="30" as="geometry">
            <mxRectangle width="80" height="30" as="alternateBounds" />
          </mxGeometry>
        </mxCell>
        <mxCell id="itcXOkuhVqPN7WuCLbZP-104" value="" style="shape=partialRectangle;connectable=0;fillColor=none;top=0;left=0;bottom=0;right=0;align=left;spacingLeft=6;overflow=hidden;whiteSpace=wrap;spacingTop=1;spacing=2;verticalAlign=middle;horizontal=1;fontFamily=Lucida Console;gradientColor=none;strokeColor=default;perimeterSpacing=0;" parent="itcXOkuhVqPN7WuCLbZP-99" vertex="1">
          <mxGeometry x="340" width="180" height="30" as="geometry">
            <mxRectangle width="180" height="30" as="alternateBounds" />
          </mxGeometry>
        </mxCell>
        <mxCell id="fKFX8gouT47i0_YCtztU-19" style="shape=tableRow;horizontal=1;startSize=0;swimlaneHead=0;swimlaneBody=0;fillColor=none;collapsible=0;dropTarget=0;points=[[0,0.5],[1,0.5]];portConstraint=eastwest;top=0;left=0;right=0;bottom=0;spacingTop=1;spacing=2;verticalAlign=middle;fontFamily=Lucida Console;" vertex="1" parent="itcXOkuhVqPN7WuCLbZP-80">
          <mxGeometry y="150" width="520" height="30" as="geometry" />
        </mxCell>
        <mxCell id="fKFX8gouT47i0_YCtztU-20" style="shape=partialRectangle;connectable=0;fillColor=none;top=0;left=0;bottom=0;right=0;editable=1;overflow=hidden;whiteSpace=wrap;spacingTop=1;spacing=2;verticalAlign=middle;horizontal=1;fontFamily=Lucida Console;" vertex="1" parent="fKFX8gouT47i0_YCtztU-19">
          <mxGeometry width="40" height="30" as="geometry">
            <mxRectangle width="40" height="30" as="alternateBounds" />
          </mxGeometry>
        </mxCell>
        <mxCell id="fKFX8gouT47i0_YCtztU-21" value="description" style="shape=partialRectangle;connectable=0;fillColor=none;top=0;left=0;bottom=0;right=0;align=left;spacingLeft=6;overflow=hidden;whiteSpace=wrap;spacingTop=1;spacing=2;verticalAlign=middle;horizontal=1;fontFamily=Lucida Console;gradientColor=none;strokeColor=default;perimeterSpacing=0;" vertex="1" parent="fKFX8gouT47i0_YCtztU-19">
          <mxGeometry x="40" width="100" height="30" as="geometry">
            <mxRectangle width="100" height="30" as="alternateBounds" />
          </mxGeometry>
        </mxCell>
        <mxCell id="fKFX8gouT47i0_YCtztU-22" value="VARCHAR(255)" style="shape=partialRectangle;connectable=0;fillColor=none;top=0;left=0;bottom=0;right=0;align=left;spacingLeft=6;overflow=hidden;whiteSpace=wrap;spacingTop=1;spacing=2;verticalAlign=middle;horizontal=1;fontFamily=Lucida Console;gradientColor=none;strokeColor=default;perimeterSpacing=0;" vertex="1" parent="fKFX8gouT47i0_YCtztU-19">
          <mxGeometry x="140" width="120" height="30" as="geometry">
            <mxRectangle width="120" height="30" as="alternateBounds" />
          </mxGeometry>
        </mxCell>
        <mxCell id="fKFX8gouT47i0_YCtztU-23" value="NULL" style="shape=partialRectangle;connectable=0;fillColor=none;top=0;left=0;bottom=0;right=0;align=left;spacingLeft=6;overflow=hidden;whiteSpace=wrap;spacingTop=1;spacing=2;verticalAlign=middle;horizontal=1;fontFamily=Lucida Console;gradientColor=none;strokeColor=default;perimeterSpacing=0;" vertex="1" parent="fKFX8gouT47i0_YCtztU-19">
          <mxGeometry x="260" width="80" height="30" as="geometry">
            <mxRectangle width="80" height="30" as="alternateBounds" />
          </mxGeometry>
        </mxCell>
        <mxCell id="fKFX8gouT47i0_YCtztU-24" style="shape=partialRectangle;connectable=0;fillColor=none;top=0;left=0;bottom=0;right=0;align=left;spacingLeft=6;overflow=hidden;whiteSpace=wrap;spacingTop=1;spacing=2;verticalAlign=middle;horizontal=1;fontFamily=Lucida Console;gradientColor=none;strokeColor=default;perimeterSpacing=0;" vertex="1" parent="fKFX8gouT47i0_YCtztU-19">
          <mxGeometry x="340" width="180" height="30" as="geometry">
            <mxRectangle width="180" height="30" as="alternateBounds" />
          </mxGeometry>
        </mxCell>
        <mxCell id="fKFX8gouT47i0_YCtztU-13" style="shape=tableRow;horizontal=1;startSize=0;swimlaneHead=0;swimlaneBody=0;fillColor=none;collapsible=0;dropTarget=0;points=[[0,0.5],[1,0.5]];portConstraint=eastwest;top=0;left=0;right=0;bottom=0;spacingTop=1;spacing=2;verticalAlign=middle;fontFamily=Lucida Console;" vertex="1" parent="itcXOkuhVqPN7WuCLbZP-80">
          <mxGeometry y="180" width="520" height="30" as="geometry" />
        </mxCell>
        <mxCell id="fKFX8gouT47i0_YCtztU-14" style="shape=partialRectangle;connectable=0;fillColor=none;top=0;left=0;bottom=0;right=0;editable=1;overflow=hidden;whiteSpace=wrap;spacingTop=1;spacing=2;verticalAlign=middle;horizontal=1;fontFamily=Lucida Console;" vertex="1" parent="fKFX8gouT47i0_YCtztU-13">
          <mxGeometry width="40" height="30" as="geometry">
            <mxRectangle width="40" height="30" as="alternateBounds" />
          </mxGeometry>
        </mxCell>
        <mxCell id="fKFX8gouT47i0_YCtztU-15" value="role" style="shape=partialRectangle;connectable=0;fillColor=none;top=0;left=0;bottom=0;right=0;align=left;spacingLeft=6;overflow=hidden;whiteSpace=wrap;spacingTop=1;spacing=2;verticalAlign=middle;horizontal=1;fontFamily=Lucida Console;gradientColor=none;strokeColor=default;perimeterSpacing=0;" vertex="1" parent="fKFX8gouT47i0_YCtztU-13">
          <mxGeometry x="40" width="100" height="30" as="geometry">
            <mxRectangle width="100" height="30" as="alternateBounds" />
          </mxGeometry>
        </mxCell>
        <mxCell id="fKFX8gouT47i0_YCtztU-16" value="ENUM(0, 1)" style="shape=partialRectangle;connectable=0;fillColor=none;top=0;left=0;bottom=0;right=0;align=left;spacingLeft=6;overflow=hidden;whiteSpace=wrap;spacingTop=1;spacing=2;verticalAlign=middle;horizontal=1;fontFamily=Lucida Console;gradientColor=none;strokeColor=default;perimeterSpacing=0;" vertex="1" parent="fKFX8gouT47i0_YCtztU-13">
          <mxGeometry x="140" width="120" height="30" as="geometry">
            <mxRectangle width="120" height="30" as="alternateBounds" />
          </mxGeometry>
        </mxCell>
        <mxCell id="fKFX8gouT47i0_YCtztU-17" value="NOT NULL" style="shape=partialRectangle;connectable=0;fillColor=none;top=0;left=0;bottom=0;right=0;align=left;spacingLeft=6;overflow=hidden;whiteSpace=wrap;spacingTop=1;spacing=2;verticalAlign=middle;horizontal=1;fontFamily=Lucida Console;gradientColor=none;strokeColor=default;perimeterSpacing=0;" vertex="1" parent="fKFX8gouT47i0_YCtztU-13">
          <mxGeometry x="260" width="80" height="30" as="geometry">
            <mxRectangle width="80" height="30" as="alternateBounds" />
          </mxGeometry>
        </mxCell>
        <mxCell id="fKFX8gouT47i0_YCtztU-18" value="1 (User)" style="shape=partialRectangle;connectable=0;fillColor=none;top=0;left=0;bottom=0;right=0;align=left;spacingLeft=6;overflow=hidden;whiteSpace=wrap;spacingTop=1;spacing=2;verticalAlign=middle;horizontal=1;fontFamily=Lucida Console;gradientColor=none;strokeColor=default;perimeterSpacing=0;" vertex="1" parent="fKFX8gouT47i0_YCtztU-13">
          <mxGeometry x="340" width="180" height="30" as="geometry">
            <mxRectangle width="180" height="30" as="alternateBounds" />
          </mxGeometry>
        </mxCell>
        <mxCell id="fKFX8gouT47i0_YCtztU-7" style="shape=tableRow;horizontal=1;startSize=0;swimlaneHead=0;swimlaneBody=0;fillColor=none;collapsible=0;dropTarget=0;points=[[0,0.5],[1,0.5]];portConstraint=eastwest;top=0;left=0;right=0;bottom=0;spacingTop=1;spacing=2;verticalAlign=middle;fontFamily=Lucida Console;" vertex="1" parent="itcXOkuhVqPN7WuCLbZP-80">
          <mxGeometry y="210" width="520" height="30" as="geometry" />
        </mxCell>
        <mxCell id="fKFX8gouT47i0_YCtztU-8" style="shape=partialRectangle;connectable=0;fillColor=none;top=0;left=0;bottom=0;right=0;editable=1;overflow=hidden;whiteSpace=wrap;spacingTop=1;spacing=2;verticalAlign=middle;horizontal=1;fontFamily=Lucida Console;" vertex="1" parent="fKFX8gouT47i0_YCtztU-7">
          <mxGeometry width="40" height="30" as="geometry">
            <mxRectangle width="40" height="30" as="alternateBounds" />
          </mxGeometry>
        </mxCell>
        <mxCell id="fKFX8gouT47i0_YCtztU-9" value="points" style="shape=partialRectangle;connectable=0;fillColor=none;top=0;left=0;bottom=0;right=0;align=left;spacingLeft=6;overflow=hidden;whiteSpace=wrap;spacingTop=1;spacing=2;verticalAlign=middle;horizontal=1;fontFamily=Lucida Console;gradientColor=none;strokeColor=default;perimeterSpacing=0;" vertex="1" parent="fKFX8gouT47i0_YCtztU-7">
          <mxGeometry x="40" width="100" height="30" as="geometry">
            <mxRectangle width="100" height="30" as="alternateBounds" />
          </mxGeometry>
        </mxCell>
        <mxCell id="fKFX8gouT47i0_YCtztU-10" value="INT" style="shape=partialRectangle;connectable=0;fillColor=none;top=0;left=0;bottom=0;right=0;align=left;spacingLeft=6;overflow=hidden;whiteSpace=wrap;spacingTop=1;spacing=2;verticalAlign=middle;horizontal=1;fontFamily=Lucida Console;gradientColor=none;strokeColor=default;perimeterSpacing=0;" vertex="1" parent="fKFX8gouT47i0_YCtztU-7">
          <mxGeometry x="140" width="120" height="30" as="geometry">
            <mxRectangle width="120" height="30" as="alternateBounds" />
          </mxGeometry>
        </mxCell>
        <mxCell id="fKFX8gouT47i0_YCtztU-11" value="NOT NULL" style="shape=partialRectangle;connectable=0;fillColor=none;top=0;left=0;bottom=0;right=0;align=left;spacingLeft=6;overflow=hidden;whiteSpace=wrap;spacingTop=1;spacing=2;verticalAlign=middle;horizontal=1;fontFamily=Lucida Console;gradientColor=none;strokeColor=default;perimeterSpacing=0;" vertex="1" parent="fKFX8gouT47i0_YCtztU-7">
          <mxGeometry x="260" width="80" height="30" as="geometry">
            <mxRectangle width="80" height="30" as="alternateBounds" />
          </mxGeometry>
        </mxCell>
        <mxCell id="fKFX8gouT47i0_YCtztU-12" value="0" style="shape=partialRectangle;connectable=0;fillColor=none;top=0;left=0;bottom=0;right=0;align=left;spacingLeft=6;overflow=hidden;whiteSpace=wrap;spacingTop=1;spacing=2;verticalAlign=middle;horizontal=1;fontFamily=Lucida Console;gradientColor=none;strokeColor=default;perimeterSpacing=0;" vertex="1" parent="fKFX8gouT47i0_YCtztU-7">
          <mxGeometry x="340" width="180" height="30" as="geometry">
            <mxRectangle width="180" height="30" as="alternateBounds" />
          </mxGeometry>
        </mxCell>
        <mxCell id="fKFX8gouT47i0_YCtztU-1" style="shape=tableRow;horizontal=1;startSize=0;swimlaneHead=0;swimlaneBody=0;fillColor=none;collapsible=0;dropTarget=0;points=[[0,0.5],[1,0.5]];portConstraint=eastwest;top=0;left=0;right=0;bottom=0;spacingTop=1;spacing=2;verticalAlign=middle;fontFamily=Lucida Console;" vertex="1" parent="itcXOkuhVqPN7WuCLbZP-80">
          <mxGeometry y="240" width="520" height="30" as="geometry" />
        </mxCell>
        <mxCell id="fKFX8gouT47i0_YCtztU-2" style="shape=partialRectangle;connectable=0;fillColor=none;top=0;left=0;bottom=0;right=0;editable=1;overflow=hidden;whiteSpace=wrap;spacingTop=1;spacing=2;verticalAlign=middle;horizontal=1;fontFamily=Lucida Console;" vertex="1" parent="fKFX8gouT47i0_YCtztU-1">
          <mxGeometry width="40" height="30" as="geometry">
            <mxRectangle width="40" height="30" as="alternateBounds" />
          </mxGeometry>
        </mxCell>
        <mxCell id="fKFX8gouT47i0_YCtztU-3" value="postCount" style="shape=partialRectangle;connectable=0;fillColor=none;top=0;left=0;bottom=0;right=0;align=left;spacingLeft=6;overflow=hidden;whiteSpace=wrap;spacingTop=1;spacing=2;verticalAlign=middle;horizontal=1;fontFamily=Lucida Console;gradientColor=none;strokeColor=default;perimeterSpacing=0;" vertex="1" parent="fKFX8gouT47i0_YCtztU-1">
          <mxGeometry x="40" width="100" height="30" as="geometry">
            <mxRectangle width="100" height="30" as="alternateBounds" />
          </mxGeometry>
        </mxCell>
        <mxCell id="fKFX8gouT47i0_YCtztU-4" value="INT" style="shape=partialRectangle;connectable=0;fillColor=none;top=0;left=0;bottom=0;right=0;align=left;spacingLeft=6;overflow=hidden;whiteSpace=wrap;spacingTop=1;spacing=2;verticalAlign=middle;horizontal=1;fontFamily=Lucida Console;gradientColor=none;strokeColor=default;perimeterSpacing=0;" vertex="1" parent="fKFX8gouT47i0_YCtztU-1">
          <mxGeometry x="140" width="120" height="30" as="geometry">
            <mxRectangle width="120" height="30" as="alternateBounds" />
          </mxGeometry>
        </mxCell>
        <mxCell id="fKFX8gouT47i0_YCtztU-5" value="NOT NULL" style="shape=partialRectangle;connectable=0;fillColor=none;top=0;left=0;bottom=0;right=0;align=left;spacingLeft=6;overflow=hidden;whiteSpace=wrap;spacingTop=1;spacing=2;verticalAlign=middle;horizontal=1;fontFamily=Lucida Console;gradientColor=none;strokeColor=default;perimeterSpacing=0;" vertex="1" parent="fKFX8gouT47i0_YCtztU-1">
          <mxGeometry x="260" width="80" height="30" as="geometry">
            <mxRectangle width="80" height="30" as="alternateBounds" />
          </mxGeometry>
        </mxCell>
        <mxCell id="fKFX8gouT47i0_YCtztU-6" value="0" style="shape=partialRectangle;connectable=0;fillColor=none;top=0;left=0;bottom=0;right=0;align=left;spacingLeft=6;overflow=hidden;whiteSpace=wrap;spacingTop=1;spacing=2;verticalAlign=middle;horizontal=1;fontFamily=Lucida Console;gradientColor=none;strokeColor=default;perimeterSpacing=0;" vertex="1" parent="fKFX8gouT47i0_YCtztU-1">
          <mxGeometry x="340" width="180" height="30" as="geometry">
            <mxRectangle width="180" height="30" as="alternateBounds" />
          </mxGeometry>
        </mxCell>
        <mxCell id="fKFX8gouT47i0_YCtztU-25" style="shape=tableRow;horizontal=1;startSize=0;swimlaneHead=0;swimlaneBody=0;fillColor=none;collapsible=0;dropTarget=0;points=[[0,0.5],[1,0.5]];portConstraint=eastwest;top=0;left=0;right=0;bottom=0;spacingTop=1;spacing=2;verticalAlign=middle;fontFamily=Lucida Console;" vertex="1" parent="itcXOkuhVqPN7WuCLbZP-80">
          <mxGeometry y="270" width="520" height="30" as="geometry" />
        </mxCell>
        <mxCell id="fKFX8gouT47i0_YCtztU-26" style="shape=partialRectangle;connectable=0;fillColor=none;top=0;left=0;bottom=0;right=0;editable=1;overflow=hidden;whiteSpace=wrap;spacingTop=1;spacing=2;verticalAlign=middle;horizontal=1;fontFamily=Lucida Console;" vertex="1" parent="fKFX8gouT47i0_YCtztU-25">
          <mxGeometry width="40" height="30" as="geometry">
            <mxRectangle width="40" height="30" as="alternateBounds" />
          </mxGeometry>
        </mxCell>
        <mxCell id="fKFX8gouT47i0_YCtztU-27" value="commentCount" style="shape=partialRectangle;connectable=0;fillColor=none;top=0;left=0;bottom=0;right=0;align=left;spacingLeft=6;overflow=hidden;whiteSpace=wrap;spacingTop=1;spacing=2;verticalAlign=middle;horizontal=1;fontFamily=Lucida Console;gradientColor=none;strokeColor=default;perimeterSpacing=0;" vertex="1" parent="fKFX8gouT47i0_YCtztU-25">
          <mxGeometry x="40" width="100" height="30" as="geometry">
            <mxRectangle width="100" height="30" as="alternateBounds" />
          </mxGeometry>
        </mxCell>
        <mxCell id="fKFX8gouT47i0_YCtztU-28" value="INT" style="shape=partialRectangle;connectable=0;fillColor=none;top=0;left=0;bottom=0;right=0;align=left;spacingLeft=6;overflow=hidden;whiteSpace=wrap;spacingTop=1;spacing=2;verticalAlign=middle;horizontal=1;fontFamily=Lucida Console;gradientColor=none;strokeColor=default;perimeterSpacing=0;" vertex="1" parent="fKFX8gouT47i0_YCtztU-25">
          <mxGeometry x="140" width="120" height="30" as="geometry">
            <mxRectangle width="120" height="30" as="alternateBounds" />
          </mxGeometry>
        </mxCell>
        <mxCell id="fKFX8gouT47i0_YCtztU-29" value="NOT NULL" style="shape=partialRectangle;connectable=0;fillColor=none;top=0;left=0;bottom=0;right=0;align=left;spacingLeft=6;overflow=hidden;whiteSpace=wrap;spacingTop=1;spacing=2;verticalAlign=middle;horizontal=1;fontFamily=Lucida Console;gradientColor=none;strokeColor=default;perimeterSpacing=0;" vertex="1" parent="fKFX8gouT47i0_YCtztU-25">
          <mxGeometry x="260" width="80" height="30" as="geometry">
            <mxRectangle width="80" height="30" as="alternateBounds" />
          </mxGeometry>
        </mxCell>
        <mxCell id="fKFX8gouT47i0_YCtztU-30" value="0" style="shape=partialRectangle;connectable=0;fillColor=none;top=0;left=0;bottom=0;right=0;align=left;spacingLeft=6;overflow=hidden;whiteSpace=wrap;spacingTop=1;spacing=2;verticalAlign=middle;horizontal=1;fontFamily=Lucida Console;gradientColor=none;strokeColor=default;perimeterSpacing=0;" vertex="1" parent="fKFX8gouT47i0_YCtztU-25">
          <mxGeometry x="340" width="180" height="30" as="geometry">
            <mxRectangle width="180" height="30" as="alternateBounds" />
          </mxGeometry>
        </mxCell>
        <mxCell id="itcXOkuhVqPN7WuCLbZP-105" value="" style="shape=tableRow;horizontal=1;startSize=0;swimlaneHead=0;swimlaneBody=0;fillColor=none;collapsible=0;dropTarget=0;points=[[0,0.5],[1,0.5]];portConstraint=eastwest;top=0;left=0;right=0;bottom=0;spacingTop=1;spacing=2;verticalAlign=middle;fontFamily=Lucida Console;" parent="itcXOkuhVqPN7WuCLbZP-80" vertex="1">
          <mxGeometry y="300" width="520" height="30" as="geometry" />
        </mxCell>
        <mxCell id="itcXOkuhVqPN7WuCLbZP-106" value="" style="shape=partialRectangle;connectable=0;fillColor=none;top=0;left=0;bottom=0;right=0;editable=1;overflow=hidden;whiteSpace=wrap;spacingTop=1;spacing=2;verticalAlign=middle;horizontal=1;fontFamily=Lucida Console;" parent="itcXOkuhVqPN7WuCLbZP-105" vertex="1">
          <mxGeometry width="40" height="30" as="geometry">
            <mxRectangle width="40" height="30" as="alternateBounds" />
          </mxGeometry>
        </mxCell>
        <mxCell id="itcXOkuhVqPN7WuCLbZP-107" value="createdAt" style="shape=partialRectangle;connectable=0;fillColor=none;top=0;left=0;bottom=0;right=0;align=left;spacingLeft=6;overflow=hidden;whiteSpace=wrap;spacingTop=1;spacing=2;verticalAlign=middle;horizontal=1;fontFamily=Lucida Console;strokeColor=default;" parent="itcXOkuhVqPN7WuCLbZP-105" vertex="1">
          <mxGeometry x="40" width="100" height="30" as="geometry">
            <mxRectangle width="100" height="30" as="alternateBounds" />
          </mxGeometry>
        </mxCell>
        <mxCell id="itcXOkuhVqPN7WuCLbZP-108" value="TIMESTAMPTZ " style="shape=partialRectangle;connectable=0;fillColor=none;top=0;left=0;bottom=0;right=0;align=left;spacingLeft=6;overflow=hidden;whiteSpace=wrap;spacingTop=1;spacing=2;verticalAlign=middle;horizontal=1;fontFamily=Lucida Console;strokeColor=default;" parent="itcXOkuhVqPN7WuCLbZP-105" vertex="1">
          <mxGeometry x="140" width="120" height="30" as="geometry">
            <mxRectangle width="120" height="30" as="alternateBounds" />
          </mxGeometry>
        </mxCell>
        <mxCell id="itcXOkuhVqPN7WuCLbZP-109" value="NOT NULL" style="shape=partialRectangle;connectable=0;fillColor=none;top=0;left=0;bottom=0;right=0;align=left;spacingLeft=6;overflow=hidden;whiteSpace=wrap;spacingTop=1;spacing=2;verticalAlign=middle;horizontal=1;fontFamily=Lucida Console;strokeColor=default;" parent="itcXOkuhVqPN7WuCLbZP-105" vertex="1">
          <mxGeometry x="260" width="80" height="30" as="geometry">
            <mxRectangle width="80" height="30" as="alternateBounds" />
          </mxGeometry>
        </mxCell>
        <mxCell id="itcXOkuhVqPN7WuCLbZP-110" value="CURRENT_TIMESTAMP" style="shape=partialRectangle;connectable=0;fillColor=none;top=0;left=0;bottom=0;right=0;align=left;spacingLeft=6;overflow=hidden;whiteSpace=wrap;spacingTop=1;spacing=2;verticalAlign=middle;horizontal=1;fontFamily=Lucida Console;strokeColor=default;" parent="itcXOkuhVqPN7WuCLbZP-105" vertex="1">
          <mxGeometry x="340" width="180" height="30" as="geometry">
            <mxRectangle width="180" height="30" as="alternateBounds" />
          </mxGeometry>
        </mxCell>
        <mxCell id="itcXOkuhVqPN7WuCLbZP-111" value="posts" style="shape=table;startSize=30;container=1;collapsible=1;childLayout=tableLayout;fixedRows=1;rowLines=0;align=center;resizeLast=1;spacingTop=1;spacing=2;verticalAlign=middle;horizontal=1;fontFamily=Lucida Console;fontStyle=1;fillColor=#f8cecc;strokeColor=#b85450;" parent="1" vertex="1">
          <mxGeometry x="160" y="1912.5" width="520" height="330" as="geometry">
            <mxRectangle x="620" y="320" width="70" height="30" as="alternateBounds" />
          </mxGeometry>
        </mxCell>
        <mxCell id="itcXOkuhVqPN7WuCLbZP-112" value="" style="shape=tableRow;horizontal=1;startSize=0;swimlaneHead=0;swimlaneBody=0;fillColor=none;collapsible=0;dropTarget=0;points=[[0,0.5],[1,0.5]];portConstraint=eastwest;top=0;left=0;right=0;bottom=1;spacingTop=1;spacing=2;verticalAlign=middle;fontFamily=Lucida Console;" parent="itcXOkuhVqPN7WuCLbZP-111" vertex="1">
          <mxGeometry y="30" width="520" height="30" as="geometry" />
        </mxCell>
        <mxCell id="itcXOkuhVqPN7WuCLbZP-113" value="PK" style="shape=partialRectangle;connectable=0;fillColor=none;top=0;left=0;bottom=0;right=0;overflow=hidden;whiteSpace=wrap;spacingTop=1;spacing=2;verticalAlign=middle;horizontal=1;fontFamily=Lucida Console;fontStyle=1" parent="itcXOkuhVqPN7WuCLbZP-112" vertex="1">
          <mxGeometry width="40" height="30" as="geometry">
            <mxRectangle width="40" height="30" as="alternateBounds" />
          </mxGeometry>
        </mxCell>
        <mxCell id="itcXOkuhVqPN7WuCLbZP-114" value="id" style="shape=partialRectangle;connectable=0;fillColor=none;top=0;left=0;bottom=0;right=0;align=left;spacingLeft=6;overflow=hidden;whiteSpace=wrap;spacingTop=1;spacing=2;verticalAlign=middle;horizontal=1;fontFamily=Lucida Console;fontStyle=1" parent="itcXOkuhVqPN7WuCLbZP-112" vertex="1">
          <mxGeometry x="40" width="100" height="30" as="geometry">
            <mxRectangle width="100" height="30" as="alternateBounds" />
          </mxGeometry>
        </mxCell>
        <mxCell id="itcXOkuhVqPN7WuCLbZP-115" value="INT" style="shape=partialRectangle;connectable=0;fillColor=none;top=0;left=0;bottom=0;right=0;align=left;spacingLeft=6;overflow=hidden;whiteSpace=wrap;spacingTop=1;spacing=2;verticalAlign=middle;horizontal=1;fontFamily=Lucida Console;fontStyle=1" parent="itcXOkuhVqPN7WuCLbZP-112" vertex="1">
          <mxGeometry x="140" width="120" height="30" as="geometry">
            <mxRectangle width="120" height="30" as="alternateBounds" />
          </mxGeometry>
        </mxCell>
        <mxCell id="itcXOkuhVqPN7WuCLbZP-116" value="NOT NULL" style="shape=partialRectangle;connectable=0;fillColor=none;top=0;left=0;bottom=0;right=0;align=left;spacingLeft=6;overflow=hidden;whiteSpace=wrap;spacingTop=1;spacing=2;verticalAlign=middle;horizontal=1;fontFamily=Lucida Console;fontStyle=1" parent="itcXOkuhVqPN7WuCLbZP-112" vertex="1">
          <mxGeometry x="260" width="80" height="30" as="geometry">
            <mxRectangle width="80" height="30" as="alternateBounds" />
          </mxGeometry>
        </mxCell>
        <mxCell id="itcXOkuhVqPN7WuCLbZP-117" style="shape=partialRectangle;connectable=0;fillColor=none;top=0;left=0;bottom=0;right=0;align=left;spacingLeft=6;overflow=hidden;whiteSpace=wrap;spacingTop=1;spacing=2;verticalAlign=middle;horizontal=1;fontFamily=Lucida Console;fontStyle=1" parent="itcXOkuhVqPN7WuCLbZP-112" vertex="1">
          <mxGeometry x="340" width="180" height="30" as="geometry">
            <mxRectangle width="180" height="30" as="alternateBounds" />
          </mxGeometry>
        </mxCell>
        <mxCell id="itcXOkuhVqPN7WuCLbZP-118" value="" style="shape=tableRow;horizontal=1;startSize=0;swimlaneHead=0;swimlaneBody=0;fillColor=none;collapsible=0;dropTarget=0;points=[[0,0.5],[1,0.5]];portConstraint=eastwest;top=0;left=0;right=0;bottom=0;spacingTop=1;spacing=2;verticalAlign=middle;fontFamily=Lucida Console;" parent="itcXOkuhVqPN7WuCLbZP-111" vertex="1">
          <mxGeometry y="60" width="520" height="30" as="geometry" />
        </mxCell>
        <mxCell id="itcXOkuhVqPN7WuCLbZP-119" value="" style="shape=partialRectangle;connectable=0;fillColor=none;top=0;left=0;bottom=0;right=0;editable=1;overflow=hidden;whiteSpace=wrap;spacingTop=1;spacing=2;verticalAlign=middle;horizontal=1;fontFamily=Lucida Console;" parent="itcXOkuhVqPN7WuCLbZP-118" vertex="1">
          <mxGeometry width="40" height="30" as="geometry">
            <mxRectangle width="40" height="30" as="alternateBounds" />
          </mxGeometry>
        </mxCell>
        <mxCell id="itcXOkuhVqPN7WuCLbZP-120" value="title" style="shape=partialRectangle;connectable=0;fillColor=none;top=0;left=0;bottom=0;right=0;align=left;spacingLeft=6;overflow=hidden;whiteSpace=wrap;spacingTop=1;spacing=2;verticalAlign=middle;horizontal=1;fontFamily=Lucida Console;" parent="itcXOkuhVqPN7WuCLbZP-118" vertex="1">
          <mxGeometry x="40" width="100" height="30" as="geometry">
            <mxRectangle width="100" height="30" as="alternateBounds" />
          </mxGeometry>
        </mxCell>
        <mxCell id="itcXOkuhVqPN7WuCLbZP-121" value="VARCHAR(255)" style="shape=partialRectangle;connectable=0;fillColor=none;top=0;left=0;bottom=0;right=0;align=left;spacingLeft=6;overflow=hidden;whiteSpace=wrap;spacingTop=1;spacing=2;verticalAlign=middle;horizontal=1;fontFamily=Lucida Console;" parent="itcXOkuhVqPN7WuCLbZP-118" vertex="1">
          <mxGeometry x="140" width="120" height="30" as="geometry">
            <mxRectangle width="120" height="30" as="alternateBounds" />
          </mxGeometry>
        </mxCell>
        <mxCell id="itcXOkuhVqPN7WuCLbZP-122" value="NOT NULL" style="shape=partialRectangle;connectable=0;fillColor=none;top=0;left=0;bottom=0;right=0;align=left;spacingLeft=6;overflow=hidden;whiteSpace=wrap;spacingTop=1;spacing=2;verticalAlign=middle;horizontal=1;fontFamily=Lucida Console;" parent="itcXOkuhVqPN7WuCLbZP-118" vertex="1">
          <mxGeometry x="260" width="80" height="30" as="geometry">
            <mxRectangle width="80" height="30" as="alternateBounds" />
          </mxGeometry>
        </mxCell>
        <mxCell id="itcXOkuhVqPN7WuCLbZP-123" value="" style="shape=partialRectangle;connectable=0;fillColor=none;top=0;left=0;bottom=0;right=0;align=left;spacingLeft=6;overflow=hidden;whiteSpace=wrap;spacingTop=1;spacing=2;verticalAlign=middle;horizontal=1;fontFamily=Lucida Console;" parent="itcXOkuhVqPN7WuCLbZP-118" vertex="1">
          <mxGeometry x="340" width="180" height="30" as="geometry">
            <mxRectangle width="180" height="30" as="alternateBounds" />
          </mxGeometry>
        </mxCell>
        <mxCell id="itcXOkuhVqPN7WuCLbZP-124" value="" style="shape=tableRow;horizontal=1;startSize=0;swimlaneHead=0;swimlaneBody=0;fillColor=none;collapsible=0;dropTarget=0;points=[[0,0.5],[1,0.5]];portConstraint=eastwest;top=0;left=0;right=0;bottom=0;spacingTop=1;spacing=2;verticalAlign=middle;fontFamily=Lucida Console;" parent="itcXOkuhVqPN7WuCLbZP-111" vertex="1">
          <mxGeometry y="90" width="520" height="30" as="geometry" />
        </mxCell>
        <mxCell id="itcXOkuhVqPN7WuCLbZP-125" value="" style="shape=partialRectangle;connectable=0;fillColor=none;top=0;left=0;bottom=0;right=0;editable=1;overflow=hidden;whiteSpace=wrap;spacingTop=1;spacing=2;verticalAlign=middle;horizontal=1;fontFamily=Lucida Console;" parent="itcXOkuhVqPN7WuCLbZP-124" vertex="1">
          <mxGeometry width="40" height="30" as="geometry">
            <mxRectangle width="40" height="30" as="alternateBounds" />
          </mxGeometry>
        </mxCell>
        <mxCell id="itcXOkuhVqPN7WuCLbZP-126" value="content" style="shape=partialRectangle;connectable=0;fillColor=none;top=0;left=0;bottom=0;right=0;align=left;spacingLeft=6;overflow=hidden;whiteSpace=wrap;spacingTop=1;spacing=2;verticalAlign=middle;horizontal=1;fontFamily=Lucida Console;" parent="itcXOkuhVqPN7WuCLbZP-124" vertex="1">
          <mxGeometry x="40" width="100" height="30" as="geometry">
            <mxRectangle width="100" height="30" as="alternateBounds" />
          </mxGeometry>
        </mxCell>
        <mxCell id="itcXOkuhVqPN7WuCLbZP-127" value="TEXT" style="shape=partialRectangle;connectable=0;fillColor=none;top=0;left=0;bottom=0;right=0;align=left;spacingLeft=6;overflow=hidden;whiteSpace=wrap;spacingTop=1;spacing=2;verticalAlign=middle;horizontal=1;fontFamily=Lucida Console;" parent="itcXOkuhVqPN7WuCLbZP-124" vertex="1">
          <mxGeometry x="140" width="120" height="30" as="geometry">
            <mxRectangle width="120" height="30" as="alternateBounds" />
          </mxGeometry>
        </mxCell>
        <mxCell id="itcXOkuhVqPN7WuCLbZP-128" value="NOT NULL" style="shape=partialRectangle;connectable=0;fillColor=none;top=0;left=0;bottom=0;right=0;align=left;spacingLeft=6;overflow=hidden;whiteSpace=wrap;spacingTop=1;spacing=2;verticalAlign=middle;horizontal=1;fontFamily=Lucida Console;" parent="itcXOkuhVqPN7WuCLbZP-124" vertex="1">
          <mxGeometry x="260" width="80" height="30" as="geometry">
            <mxRectangle width="80" height="30" as="alternateBounds" />
          </mxGeometry>
        </mxCell>
        <mxCell id="itcXOkuhVqPN7WuCLbZP-129" value="" style="shape=partialRectangle;connectable=0;fillColor=none;top=0;left=0;bottom=0;right=0;align=left;spacingLeft=6;overflow=hidden;whiteSpace=wrap;spacingTop=1;spacing=2;verticalAlign=middle;horizontal=1;fontFamily=Lucida Console;" parent="itcXOkuhVqPN7WuCLbZP-124" vertex="1">
          <mxGeometry x="340" width="180" height="30" as="geometry">
            <mxRectangle width="180" height="30" as="alternateBounds" />
          </mxGeometry>
        </mxCell>
        <mxCell id="itcXOkuhVqPN7WuCLbZP-130" value="" style="shape=tableRow;horizontal=1;startSize=0;swimlaneHead=0;swimlaneBody=0;fillColor=none;collapsible=0;dropTarget=0;points=[[0,0.5],[1,0.5]];portConstraint=eastwest;top=0;left=0;right=0;bottom=0;spacingTop=1;spacing=2;verticalAlign=middle;fontFamily=Lucida Console;" parent="itcXOkuhVqPN7WuCLbZP-111" vertex="1">
          <mxGeometry y="120" width="520" height="30" as="geometry" />
        </mxCell>
        <mxCell id="itcXOkuhVqPN7WuCLbZP-131" value="" style="shape=partialRectangle;connectable=0;fillColor=none;top=0;left=0;bottom=0;right=0;editable=1;overflow=hidden;whiteSpace=wrap;spacingTop=1;spacing=2;verticalAlign=middle;horizontal=1;fontFamily=Lucida Console;" parent="itcXOkuhVqPN7WuCLbZP-130" vertex="1">
          <mxGeometry width="40" height="30" as="geometry">
            <mxRectangle width="40" height="30" as="alternateBounds" />
          </mxGeometry>
        </mxCell>
        <mxCell id="itcXOkuhVqPN7WuCLbZP-132" value="createdAt" style="shape=partialRectangle;connectable=0;fillColor=none;top=0;left=0;bottom=0;right=0;align=left;spacingLeft=6;overflow=hidden;whiteSpace=wrap;spacingTop=1;spacing=2;verticalAlign=middle;horizontal=1;fontFamily=Lucida Console;gradientColor=none;strokeColor=default;perimeterSpacing=0;" parent="itcXOkuhVqPN7WuCLbZP-130" vertex="1">
          <mxGeometry x="40" width="100" height="30" as="geometry">
            <mxRectangle width="100" height="30" as="alternateBounds" />
          </mxGeometry>
        </mxCell>
        <mxCell id="itcXOkuhVqPN7WuCLbZP-133" value="TIMESTAMPTZ" style="shape=partialRectangle;connectable=0;fillColor=none;top=0;left=0;bottom=0;right=0;align=left;spacingLeft=6;overflow=hidden;whiteSpace=wrap;spacingTop=1;spacing=2;verticalAlign=middle;horizontal=1;fontFamily=Lucida Console;gradientColor=none;strokeColor=default;perimeterSpacing=0;" parent="itcXOkuhVqPN7WuCLbZP-130" vertex="1">
          <mxGeometry x="140" width="120" height="30" as="geometry">
            <mxRectangle width="120" height="30" as="alternateBounds" />
          </mxGeometry>
        </mxCell>
        <mxCell id="itcXOkuhVqPN7WuCLbZP-134" value="NOT NULL" style="shape=partialRectangle;connectable=0;fillColor=none;top=0;left=0;bottom=0;right=0;align=left;spacingLeft=6;overflow=hidden;whiteSpace=wrap;spacingTop=1;spacing=2;verticalAlign=middle;horizontal=1;fontFamily=Lucida Console;gradientColor=none;strokeColor=default;perimeterSpacing=0;" parent="itcXOkuhVqPN7WuCLbZP-130" vertex="1">
          <mxGeometry x="260" width="80" height="30" as="geometry">
            <mxRectangle width="80" height="30" as="alternateBounds" />
          </mxGeometry>
        </mxCell>
        <mxCell id="itcXOkuhVqPN7WuCLbZP-135" value="CURRENT_TIMESTAMP" style="shape=partialRectangle;connectable=0;fillColor=none;top=0;left=0;bottom=0;right=0;align=left;spacingLeft=6;overflow=hidden;whiteSpace=wrap;spacingTop=1;spacing=2;verticalAlign=middle;horizontal=1;fontFamily=Lucida Console;gradientColor=none;strokeColor=default;perimeterSpacing=0;" parent="itcXOkuhVqPN7WuCLbZP-130" vertex="1">
          <mxGeometry x="340" width="180" height="30" as="geometry">
            <mxRectangle width="180" height="30" as="alternateBounds" />
          </mxGeometry>
        </mxCell>
        <mxCell id="itcXOkuhVqPN7WuCLbZP-136" value="" style="shape=tableRow;horizontal=1;startSize=0;swimlaneHead=0;swimlaneBody=0;fillColor=none;collapsible=0;dropTarget=0;points=[[0,0.5],[1,0.5]];portConstraint=eastwest;top=0;left=0;right=0;bottom=0;spacingTop=1;spacing=2;verticalAlign=middle;fontFamily=Lucida Console;" parent="itcXOkuhVqPN7WuCLbZP-111" vertex="1">
          <mxGeometry y="150" width="520" height="30" as="geometry" />
        </mxCell>
        <mxCell id="itcXOkuhVqPN7WuCLbZP-137" value="" style="shape=partialRectangle;connectable=0;fillColor=none;top=0;left=0;bottom=0;right=0;editable=1;overflow=hidden;whiteSpace=wrap;spacingTop=1;spacing=2;verticalAlign=middle;horizontal=1;fontFamily=Lucida Console;" parent="itcXOkuhVqPN7WuCLbZP-136" vertex="1">
          <mxGeometry width="40" height="30" as="geometry">
            <mxRectangle width="40" height="30" as="alternateBounds" />
          </mxGeometry>
        </mxCell>
        <mxCell id="itcXOkuhVqPN7WuCLbZP-138" value="topicLocalId" style="shape=partialRectangle;connectable=0;fillColor=none;top=0;left=0;bottom=0;right=0;align=left;spacingLeft=6;overflow=hidden;whiteSpace=wrap;spacingTop=1;spacing=2;verticalAlign=middle;horizontal=1;fontFamily=Lucida Console;strokeColor=default;" parent="itcXOkuhVqPN7WuCLbZP-136" vertex="1">
          <mxGeometry x="40" width="100" height="30" as="geometry">
            <mxRectangle width="100" height="30" as="alternateBounds" />
          </mxGeometry>
        </mxCell>
        <mxCell id="itcXOkuhVqPN7WuCLbZP-139" value="INT" style="shape=partialRectangle;connectable=0;fillColor=none;top=0;left=0;bottom=0;right=0;align=left;spacingLeft=6;overflow=hidden;whiteSpace=wrap;spacingTop=1;spacing=2;verticalAlign=middle;horizontal=1;fontFamily=Lucida Console;strokeColor=default;" parent="itcXOkuhVqPN7WuCLbZP-136" vertex="1">
          <mxGeometry x="140" width="120" height="30" as="geometry">
            <mxRectangle width="120" height="30" as="alternateBounds" />
          </mxGeometry>
        </mxCell>
        <mxCell id="itcXOkuhVqPN7WuCLbZP-140" value="NOT NULL" style="shape=partialRectangle;connectable=0;fillColor=none;top=0;left=0;bottom=0;right=0;align=left;spacingLeft=6;overflow=hidden;whiteSpace=wrap;spacingTop=1;spacing=2;verticalAlign=middle;horizontal=1;fontFamily=Lucida Console;strokeColor=default;" parent="itcXOkuhVqPN7WuCLbZP-136" vertex="1">
          <mxGeometry x="260" width="80" height="30" as="geometry">
            <mxRectangle width="80" height="30" as="alternateBounds" />
          </mxGeometry>
        </mxCell>
        <mxCell id="itcXOkuhVqPN7WuCLbZP-141" value="" style="shape=partialRectangle;connectable=0;fillColor=none;top=0;left=0;bottom=0;right=0;align=left;spacingLeft=6;overflow=hidden;whiteSpace=wrap;spacingTop=1;spacing=2;verticalAlign=middle;horizontal=1;fontFamily=Lucida Console;strokeColor=default;" parent="itcXOkuhVqPN7WuCLbZP-136" vertex="1">
          <mxGeometry x="340" width="180" height="30" as="geometry">
            <mxRectangle width="180" height="30" as="alternateBounds" />
          </mxGeometry>
        </mxCell>
        <mxCell id="itcXOkuhVqPN7WuCLbZP-142" style="shape=tableRow;horizontal=1;startSize=0;swimlaneHead=0;swimlaneBody=0;fillColor=none;collapsible=0;dropTarget=0;points=[[0,0.5],[1,0.5]];portConstraint=eastwest;top=0;left=0;right=0;bottom=0;spacingTop=1;spacing=2;verticalAlign=middle;fontFamily=Lucida Console;" parent="itcXOkuhVqPN7WuCLbZP-111" vertex="1">
          <mxGeometry y="180" width="520" height="30" as="geometry" />
        </mxCell>
        <mxCell id="itcXOkuhVqPN7WuCLbZP-143" style="shape=partialRectangle;connectable=0;fillColor=none;top=0;left=0;bottom=0;right=0;editable=1;overflow=hidden;whiteSpace=wrap;spacingTop=1;spacing=2;verticalAlign=middle;horizontal=1;fontFamily=Lucida Console;" parent="itcXOkuhVqPN7WuCLbZP-142" vertex="1">
          <mxGeometry width="40" height="30" as="geometry">
            <mxRectangle width="40" height="30" as="alternateBounds" />
          </mxGeometry>
        </mxCell>
        <mxCell id="itcXOkuhVqPN7WuCLbZP-144" value="viewCount" style="shape=partialRectangle;connectable=0;fillColor=none;top=0;left=0;bottom=0;right=0;align=left;spacingLeft=6;overflow=hidden;whiteSpace=wrap;spacingTop=1;spacing=2;verticalAlign=middle;horizontal=1;fontFamily=Lucida Console;strokeColor=default;" parent="itcXOkuhVqPN7WuCLbZP-142" vertex="1">
          <mxGeometry x="40" width="100" height="30" as="geometry">
            <mxRectangle width="100" height="30" as="alternateBounds" />
          </mxGeometry>
        </mxCell>
        <mxCell id="itcXOkuhVqPN7WuCLbZP-145" value="INT" style="shape=partialRectangle;connectable=0;fillColor=none;top=0;left=0;bottom=0;right=0;align=left;spacingLeft=6;overflow=hidden;whiteSpace=wrap;spacingTop=1;spacing=2;verticalAlign=middle;horizontal=1;fontFamily=Lucida Console;strokeColor=default;" parent="itcXOkuhVqPN7WuCLbZP-142" vertex="1">
          <mxGeometry x="140" width="120" height="30" as="geometry">
            <mxRectangle width="120" height="30" as="alternateBounds" />
          </mxGeometry>
        </mxCell>
        <mxCell id="itcXOkuhVqPN7WuCLbZP-146" value="NOT NULL" style="shape=partialRectangle;connectable=0;fillColor=none;top=0;left=0;bottom=0;right=0;align=left;spacingLeft=6;overflow=hidden;whiteSpace=wrap;spacingTop=1;spacing=2;verticalAlign=middle;horizontal=1;fontFamily=Lucida Console;strokeColor=default;" parent="itcXOkuhVqPN7WuCLbZP-142" vertex="1">
          <mxGeometry x="260" width="80" height="30" as="geometry">
            <mxRectangle width="80" height="30" as="alternateBounds" />
          </mxGeometry>
        </mxCell>
        <mxCell id="itcXOkuhVqPN7WuCLbZP-147" value="0" style="shape=partialRectangle;connectable=0;fillColor=none;top=0;left=0;bottom=0;right=0;align=left;spacingLeft=6;overflow=hidden;whiteSpace=wrap;spacingTop=1;spacing=2;verticalAlign=middle;horizontal=1;fontFamily=Lucida Console;strokeColor=default;" parent="itcXOkuhVqPN7WuCLbZP-142" vertex="1">
          <mxGeometry x="340" width="180" height="30" as="geometry">
            <mxRectangle width="180" height="30" as="alternateBounds" />
          </mxGeometry>
        </mxCell>
        <mxCell id="_g8NAPxAyyhOKIvRYlVc-1" style="shape=tableRow;horizontal=1;startSize=0;swimlaneHead=0;swimlaneBody=0;fillColor=none;collapsible=0;dropTarget=0;points=[[0,0.5],[1,0.5]];portConstraint=eastwest;top=0;left=0;right=0;bottom=0;spacingTop=1;spacing=2;verticalAlign=middle;fontFamily=Lucida Console;" parent="itcXOkuhVqPN7WuCLbZP-111" vertex="1">
          <mxGeometry y="210" width="520" height="30" as="geometry" />
        </mxCell>
        <mxCell id="_g8NAPxAyyhOKIvRYlVc-2" style="shape=partialRectangle;connectable=0;fillColor=none;top=0;left=0;bottom=0;right=0;editable=1;overflow=hidden;whiteSpace=wrap;spacingTop=1;spacing=2;verticalAlign=middle;horizontal=1;fontFamily=Lucida Console;" parent="_g8NAPxAyyhOKIvRYlVc-1" vertex="1">
          <mxGeometry width="40" height="30" as="geometry">
            <mxRectangle width="40" height="30" as="alternateBounds" />
          </mxGeometry>
        </mxCell>
        <mxCell id="_g8NAPxAyyhOKIvRYlVc-3" value="commentCount" style="shape=partialRectangle;connectable=0;fillColor=none;top=0;left=0;bottom=0;right=0;align=left;spacingLeft=6;overflow=hidden;whiteSpace=wrap;spacingTop=1;spacing=2;verticalAlign=middle;horizontal=1;fontFamily=Lucida Console;strokeColor=default;fontStyle=0" parent="_g8NAPxAyyhOKIvRYlVc-1" vertex="1">
          <mxGeometry x="40" width="100" height="30" as="geometry">
            <mxRectangle width="100" height="30" as="alternateBounds" />
          </mxGeometry>
        </mxCell>
        <mxCell id="_g8NAPxAyyhOKIvRYlVc-4" value="INT" style="shape=partialRectangle;connectable=0;fillColor=none;top=0;left=0;bottom=0;right=0;align=left;spacingLeft=6;overflow=hidden;whiteSpace=wrap;spacingTop=1;spacing=2;verticalAlign=middle;horizontal=1;fontFamily=Lucida Console;strokeColor=default;" parent="_g8NAPxAyyhOKIvRYlVc-1" vertex="1">
          <mxGeometry x="140" width="120" height="30" as="geometry">
            <mxRectangle width="120" height="30" as="alternateBounds" />
          </mxGeometry>
        </mxCell>
        <mxCell id="_g8NAPxAyyhOKIvRYlVc-5" value="NOT NULL" style="shape=partialRectangle;connectable=0;fillColor=none;top=0;left=0;bottom=0;right=0;align=left;spacingLeft=6;overflow=hidden;whiteSpace=wrap;spacingTop=1;spacing=2;verticalAlign=middle;horizontal=1;fontFamily=Lucida Console;strokeColor=default;" parent="_g8NAPxAyyhOKIvRYlVc-1" vertex="1">
          <mxGeometry x="260" width="80" height="30" as="geometry">
            <mxRectangle width="80" height="30" as="alternateBounds" />
          </mxGeometry>
        </mxCell>
        <mxCell id="_g8NAPxAyyhOKIvRYlVc-6" value="0" style="shape=partialRectangle;connectable=0;fillColor=none;top=0;left=0;bottom=0;right=0;align=left;spacingLeft=6;overflow=hidden;whiteSpace=wrap;spacingTop=1;spacing=2;verticalAlign=middle;horizontal=1;fontFamily=Lucida Console;strokeColor=default;" parent="_g8NAPxAyyhOKIvRYlVc-1" vertex="1">
          <mxGeometry x="340" width="180" height="30" as="geometry">
            <mxRectangle width="180" height="30" as="alternateBounds" />
          </mxGeometry>
        </mxCell>
        <mxCell id="itcXOkuhVqPN7WuCLbZP-148" style="shape=tableRow;horizontal=1;startSize=0;swimlaneHead=0;swimlaneBody=0;fillColor=none;collapsible=0;dropTarget=0;points=[[0,0.5],[1,0.5]];portConstraint=eastwest;top=0;left=0;right=0;bottom=0;spacingTop=1;spacing=2;verticalAlign=middle;fontFamily=Lucida Console;" parent="itcXOkuhVqPN7WuCLbZP-111" vertex="1">
          <mxGeometry y="240" width="520" height="30" as="geometry" />
        </mxCell>
        <mxCell id="itcXOkuhVqPN7WuCLbZP-149" style="shape=partialRectangle;connectable=0;fillColor=none;top=0;left=0;bottom=0;right=0;editable=1;overflow=hidden;whiteSpace=wrap;spacingTop=1;spacing=2;verticalAlign=middle;horizontal=1;fontFamily=Lucida Console;" parent="itcXOkuhVqPN7WuCLbZP-148" vertex="1">
          <mxGeometry width="40" height="30" as="geometry">
            <mxRectangle width="40" height="30" as="alternateBounds" />
          </mxGeometry>
        </mxCell>
        <mxCell id="itcXOkuhVqPN7WuCLbZP-150" value="ip" style="shape=partialRectangle;connectable=0;fillColor=none;top=0;left=0;bottom=0;right=0;align=left;spacingLeft=6;overflow=hidden;whiteSpace=wrap;spacingTop=1;spacing=2;verticalAlign=middle;horizontal=1;fontFamily=Lucida Console;strokeColor=default;" parent="itcXOkuhVqPN7WuCLbZP-148" vertex="1">
          <mxGeometry x="40" width="100" height="30" as="geometry">
            <mxRectangle width="100" height="30" as="alternateBounds" />
          </mxGeometry>
        </mxCell>
        <mxCell id="itcXOkuhVqPN7WuCLbZP-151" value="VARCHAR(15)" style="shape=partialRectangle;connectable=0;fillColor=none;top=0;left=0;bottom=0;right=0;align=left;spacingLeft=6;overflow=hidden;whiteSpace=wrap;spacingTop=1;spacing=2;verticalAlign=middle;horizontal=1;fontFamily=Lucida Console;strokeColor=default;" parent="itcXOkuhVqPN7WuCLbZP-148" vertex="1">
          <mxGeometry x="140" width="120" height="30" as="geometry">
            <mxRectangle width="120" height="30" as="alternateBounds" />
          </mxGeometry>
        </mxCell>
        <mxCell id="itcXOkuhVqPN7WuCLbZP-152" value="NULL" style="shape=partialRectangle;connectable=0;fillColor=none;top=0;left=0;bottom=0;right=0;align=left;spacingLeft=6;overflow=hidden;whiteSpace=wrap;spacingTop=1;spacing=2;verticalAlign=middle;horizontal=1;fontFamily=Lucida Console;strokeColor=default;" parent="itcXOkuhVqPN7WuCLbZP-148" vertex="1">
          <mxGeometry x="260" width="80" height="30" as="geometry">
            <mxRectangle width="80" height="30" as="alternateBounds" />
          </mxGeometry>
        </mxCell>
        <mxCell id="itcXOkuhVqPN7WuCLbZP-153" style="shape=partialRectangle;connectable=0;fillColor=none;top=0;left=0;bottom=0;right=0;align=left;spacingLeft=6;overflow=hidden;whiteSpace=wrap;spacingTop=1;spacing=2;verticalAlign=middle;horizontal=1;fontFamily=Lucida Console;strokeColor=default;" parent="itcXOkuhVqPN7WuCLbZP-148" vertex="1">
          <mxGeometry x="340" width="180" height="30" as="geometry">
            <mxRectangle width="180" height="30" as="alternateBounds" />
          </mxGeometry>
        </mxCell>
        <mxCell id="itcXOkuhVqPN7WuCLbZP-154" style="shape=tableRow;horizontal=1;startSize=0;swimlaneHead=0;swimlaneBody=0;fillColor=none;collapsible=0;dropTarget=0;points=[[0,0.5],[1,0.5]];portConstraint=eastwest;top=0;left=0;right=0;bottom=0;spacingTop=1;spacing=2;verticalAlign=middle;fontFamily=Lucida Console;" parent="itcXOkuhVqPN7WuCLbZP-111" vertex="1">
          <mxGeometry y="270" width="520" height="30" as="geometry" />
        </mxCell>
        <mxCell id="itcXOkuhVqPN7WuCLbZP-155" value="FK" style="shape=partialRectangle;connectable=0;fillColor=none;top=0;left=0;bottom=0;right=0;editable=1;overflow=hidden;whiteSpace=wrap;spacingTop=1;spacing=2;verticalAlign=middle;horizontal=1;fontFamily=Lucida Console;" parent="itcXOkuhVqPN7WuCLbZP-154" vertex="1">
          <mxGeometry width="40" height="30" as="geometry">
            <mxRectangle width="40" height="30" as="alternateBounds" />
          </mxGeometry>
        </mxCell>
        <mxCell id="itcXOkuhVqPN7WuCLbZP-156" value="authorId" style="shape=partialRectangle;connectable=0;fillColor=none;top=0;left=0;bottom=0;right=0;align=left;spacingLeft=6;overflow=hidden;whiteSpace=wrap;spacingTop=1;spacing=2;verticalAlign=middle;horizontal=1;fontFamily=Lucida Console;strokeColor=default;fontStyle=1" parent="itcXOkuhVqPN7WuCLbZP-154" vertex="1">
          <mxGeometry x="40" width="100" height="30" as="geometry">
            <mxRectangle width="100" height="30" as="alternateBounds" />
          </mxGeometry>
        </mxCell>
        <mxCell id="itcXOkuhVqPN7WuCLbZP-157" value="INT" style="shape=partialRectangle;connectable=0;fillColor=none;top=0;left=0;bottom=0;right=0;align=left;spacingLeft=6;overflow=hidden;whiteSpace=wrap;spacingTop=1;spacing=2;verticalAlign=middle;horizontal=1;fontFamily=Lucida Console;strokeColor=default;" parent="itcXOkuhVqPN7WuCLbZP-154" vertex="1">
          <mxGeometry x="140" width="120" height="30" as="geometry">
            <mxRectangle width="120" height="30" as="alternateBounds" />
          </mxGeometry>
        </mxCell>
        <mxCell id="itcXOkuhVqPN7WuCLbZP-158" value="NULL" style="shape=partialRectangle;connectable=0;fillColor=none;top=0;left=0;bottom=0;right=0;align=left;spacingLeft=6;overflow=hidden;whiteSpace=wrap;spacingTop=1;spacing=2;verticalAlign=middle;horizontal=1;fontFamily=Lucida Console;strokeColor=default;" parent="itcXOkuhVqPN7WuCLbZP-154" vertex="1">
          <mxGeometry x="260" width="80" height="30" as="geometry">
            <mxRectangle width="80" height="30" as="alternateBounds" />
          </mxGeometry>
        </mxCell>
        <mxCell id="itcXOkuhVqPN7WuCLbZP-159" value="REFERENCES users(id)" style="shape=partialRectangle;connectable=0;fillColor=none;top=0;left=0;bottom=0;right=0;align=left;spacingLeft=6;overflow=hidden;whiteSpace=wrap;spacingTop=1;spacing=2;verticalAlign=middle;horizontal=1;fontFamily=Lucida Console;strokeColor=default;" parent="itcXOkuhVqPN7WuCLbZP-154" vertex="1">
          <mxGeometry x="340" width="180" height="30" as="geometry">
            <mxRectangle width="180" height="30" as="alternateBounds" />
          </mxGeometry>
        </mxCell>
        <mxCell id="itcXOkuhVqPN7WuCLbZP-160" style="shape=tableRow;horizontal=1;startSize=0;swimlaneHead=0;swimlaneBody=0;fillColor=none;collapsible=0;dropTarget=0;points=[[0,0.5],[1,0.5]];portConstraint=eastwest;top=0;left=0;right=0;bottom=0;spacingTop=1;spacing=2;verticalAlign=middle;fontFamily=Lucida Console;" parent="itcXOkuhVqPN7WuCLbZP-111" vertex="1">
          <mxGeometry y="300" width="520" height="30" as="geometry" />
        </mxCell>
        <mxCell id="itcXOkuhVqPN7WuCLbZP-161" value="FK" style="shape=partialRectangle;connectable=0;fillColor=none;top=0;left=0;bottom=0;right=0;editable=1;overflow=hidden;whiteSpace=wrap;spacingTop=1;spacing=2;verticalAlign=middle;horizontal=1;fontFamily=Lucida Console;" parent="itcXOkuhVqPN7WuCLbZP-160" vertex="1">
          <mxGeometry width="40" height="30" as="geometry">
            <mxRectangle width="40" height="30" as="alternateBounds" />
          </mxGeometry>
        </mxCell>
        <mxCell id="itcXOkuhVqPN7WuCLbZP-162" value="topicId" style="shape=partialRectangle;connectable=0;fillColor=none;top=0;left=0;bottom=0;right=0;align=left;spacingLeft=6;overflow=hidden;whiteSpace=wrap;spacingTop=1;spacing=2;verticalAlign=middle;horizontal=1;fontFamily=Lucida Console;strokeColor=default;fontStyle=1" parent="itcXOkuhVqPN7WuCLbZP-160" vertex="1">
          <mxGeometry x="40" width="100" height="30" as="geometry">
            <mxRectangle width="100" height="30" as="alternateBounds" />
          </mxGeometry>
        </mxCell>
        <mxCell id="itcXOkuhVqPN7WuCLbZP-163" value="INT" style="shape=partialRectangle;connectable=0;fillColor=none;top=0;left=0;bottom=0;right=0;align=left;spacingLeft=6;overflow=hidden;whiteSpace=wrap;spacingTop=1;spacing=2;verticalAlign=middle;horizontal=1;fontFamily=Lucida Console;strokeColor=default;" parent="itcXOkuhVqPN7WuCLbZP-160" vertex="1">
          <mxGeometry x="140" width="120" height="30" as="geometry">
            <mxRectangle width="120" height="30" as="alternateBounds" />
          </mxGeometry>
        </mxCell>
        <mxCell id="itcXOkuhVqPN7WuCLbZP-164" value="NULL" style="shape=partialRectangle;connectable=0;fillColor=none;top=0;left=0;bottom=0;right=0;align=left;spacingLeft=6;overflow=hidden;whiteSpace=wrap;spacingTop=1;spacing=2;verticalAlign=middle;horizontal=1;fontFamily=Lucida Console;strokeColor=default;" parent="itcXOkuhVqPN7WuCLbZP-160" vertex="1">
          <mxGeometry x="260" width="80" height="30" as="geometry">
            <mxRectangle width="80" height="30" as="alternateBounds" />
          </mxGeometry>
        </mxCell>
        <mxCell id="itcXOkuhVqPN7WuCLbZP-165" value="REFERENCES topics(id)" style="shape=partialRectangle;connectable=0;fillColor=none;top=0;left=0;bottom=0;right=0;align=left;spacingLeft=6;overflow=hidden;whiteSpace=wrap;spacingTop=1;spacing=2;verticalAlign=middle;horizontal=1;fontFamily=Lucida Console;strokeColor=default;" parent="itcXOkuhVqPN7WuCLbZP-160" vertex="1">
          <mxGeometry x="340" width="180" height="30" as="geometry">
            <mxRectangle width="180" height="30" as="alternateBounds" />
          </mxGeometry>
        </mxCell>
        <mxCell id="itcXOkuhVqPN7WuCLbZP-166" value="comments" style="shape=table;startSize=30;container=1;collapsible=1;childLayout=tableLayout;fixedRows=1;rowLines=0;align=center;resizeLast=1;spacingTop=1;spacing=2;verticalAlign=middle;horizontal=1;fontFamily=Lucida Console;fontStyle=1;fillColor=#ffe6cc;strokeColor=#d79b00;" parent="1" vertex="1">
          <mxGeometry x="870" y="2060" width="520" height="180" as="geometry">
            <mxRectangle x="620" y="320" width="70" height="30" as="alternateBounds" />
          </mxGeometry>
        </mxCell>
        <mxCell id="itcXOkuhVqPN7WuCLbZP-167" value="" style="shape=tableRow;horizontal=1;startSize=0;swimlaneHead=0;swimlaneBody=0;fillColor=none;collapsible=0;dropTarget=0;points=[[0,0.5],[1,0.5]];portConstraint=eastwest;top=0;left=0;right=0;bottom=1;spacingTop=1;spacing=2;verticalAlign=middle;fontFamily=Lucida Console;" parent="itcXOkuhVqPN7WuCLbZP-166" vertex="1">
          <mxGeometry y="30" width="520" height="30" as="geometry" />
        </mxCell>
        <mxCell id="itcXOkuhVqPN7WuCLbZP-168" value="PK" style="shape=partialRectangle;connectable=0;fillColor=none;top=0;left=0;bottom=0;right=0;overflow=hidden;whiteSpace=wrap;spacingTop=1;spacing=2;verticalAlign=middle;horizontal=1;fontFamily=Lucida Console;fontStyle=1" parent="itcXOkuhVqPN7WuCLbZP-167" vertex="1">
          <mxGeometry width="40" height="30" as="geometry">
            <mxRectangle width="40" height="30" as="alternateBounds" />
          </mxGeometry>
        </mxCell>
        <mxCell id="itcXOkuhVqPN7WuCLbZP-169" value="id" style="shape=partialRectangle;connectable=0;fillColor=none;top=0;left=0;bottom=0;right=0;align=left;spacingLeft=6;overflow=hidden;whiteSpace=wrap;spacingTop=1;spacing=2;verticalAlign=middle;horizontal=1;fontFamily=Lucida Console;fontStyle=1" parent="itcXOkuhVqPN7WuCLbZP-167" vertex="1">
          <mxGeometry x="40" width="100" height="30" as="geometry">
            <mxRectangle width="100" height="30" as="alternateBounds" />
          </mxGeometry>
        </mxCell>
        <mxCell id="itcXOkuhVqPN7WuCLbZP-170" value="INT" style="shape=partialRectangle;connectable=0;fillColor=none;top=0;left=0;bottom=0;right=0;align=left;spacingLeft=6;overflow=hidden;whiteSpace=wrap;spacingTop=1;spacing=2;verticalAlign=middle;horizontal=1;fontFamily=Lucida Console;fontStyle=1" parent="itcXOkuhVqPN7WuCLbZP-167" vertex="1">
          <mxGeometry x="140" width="120" height="30" as="geometry">
            <mxRectangle width="120" height="30" as="alternateBounds" />
          </mxGeometry>
        </mxCell>
        <mxCell id="itcXOkuhVqPN7WuCLbZP-171" value="NOT NULL" style="shape=partialRectangle;connectable=0;fillColor=none;top=0;left=0;bottom=0;right=0;align=left;spacingLeft=6;overflow=hidden;whiteSpace=wrap;spacingTop=1;spacing=2;verticalAlign=middle;horizontal=1;fontFamily=Lucida Console;fontStyle=1" parent="itcXOkuhVqPN7WuCLbZP-167" vertex="1">
          <mxGeometry x="260" width="80" height="30" as="geometry">
            <mxRectangle width="80" height="30" as="alternateBounds" />
          </mxGeometry>
        </mxCell>
        <mxCell id="itcXOkuhVqPN7WuCLbZP-172" style="shape=partialRectangle;connectable=0;fillColor=none;top=0;left=0;bottom=0;right=0;align=left;spacingLeft=6;overflow=hidden;whiteSpace=wrap;spacingTop=1;spacing=2;verticalAlign=middle;horizontal=1;fontFamily=Lucida Console;fontStyle=1" parent="itcXOkuhVqPN7WuCLbZP-167" vertex="1">
          <mxGeometry x="340" width="180" height="30" as="geometry">
            <mxRectangle width="180" height="30" as="alternateBounds" />
          </mxGeometry>
        </mxCell>
        <mxCell id="itcXOkuhVqPN7WuCLbZP-173" value="" style="shape=tableRow;horizontal=1;startSize=0;swimlaneHead=0;swimlaneBody=0;fillColor=none;collapsible=0;dropTarget=0;points=[[0,0.5],[1,0.5]];portConstraint=eastwest;top=0;left=0;right=0;bottom=0;spacingTop=1;spacing=2;verticalAlign=middle;fontFamily=Lucida Console;" parent="itcXOkuhVqPN7WuCLbZP-166" vertex="1">
          <mxGeometry y="60" width="520" height="30" as="geometry" />
        </mxCell>
        <mxCell id="itcXOkuhVqPN7WuCLbZP-174" value="" style="shape=partialRectangle;connectable=0;fillColor=none;top=0;left=0;bottom=0;right=0;editable=1;overflow=hidden;whiteSpace=wrap;spacingTop=1;spacing=2;verticalAlign=middle;horizontal=1;fontFamily=Lucida Console;" parent="itcXOkuhVqPN7WuCLbZP-173" vertex="1">
          <mxGeometry width="40" height="30" as="geometry">
            <mxRectangle width="40" height="30" as="alternateBounds" />
          </mxGeometry>
        </mxCell>
        <mxCell id="itcXOkuhVqPN7WuCLbZP-175" value="content" style="shape=partialRectangle;connectable=0;fillColor=none;top=0;left=0;bottom=0;right=0;align=left;spacingLeft=6;overflow=hidden;whiteSpace=wrap;spacingTop=1;spacing=2;verticalAlign=middle;horizontal=1;fontFamily=Lucida Console;" parent="itcXOkuhVqPN7WuCLbZP-173" vertex="1">
          <mxGeometry x="40" width="100" height="30" as="geometry">
            <mxRectangle width="100" height="30" as="alternateBounds" />
          </mxGeometry>
        </mxCell>
        <mxCell id="itcXOkuhVqPN7WuCLbZP-176" value="TEXT" style="shape=partialRectangle;connectable=0;fillColor=none;top=0;left=0;bottom=0;right=0;align=left;spacingLeft=6;overflow=hidden;whiteSpace=wrap;spacingTop=1;spacing=2;verticalAlign=middle;horizontal=1;fontFamily=Lucida Console;" parent="itcXOkuhVqPN7WuCLbZP-173" vertex="1">
          <mxGeometry x="140" width="120" height="30" as="geometry">
            <mxRectangle width="120" height="30" as="alternateBounds" />
          </mxGeometry>
        </mxCell>
        <mxCell id="itcXOkuhVqPN7WuCLbZP-177" value="NOT NULL" style="shape=partialRectangle;connectable=0;fillColor=none;top=0;left=0;bottom=0;right=0;align=left;spacingLeft=6;overflow=hidden;whiteSpace=wrap;spacingTop=1;spacing=2;verticalAlign=middle;horizontal=1;fontFamily=Lucida Console;" parent="itcXOkuhVqPN7WuCLbZP-173" vertex="1">
          <mxGeometry x="260" width="80" height="30" as="geometry">
            <mxRectangle width="80" height="30" as="alternateBounds" />
          </mxGeometry>
        </mxCell>
        <mxCell id="itcXOkuhVqPN7WuCLbZP-178" value="" style="shape=partialRectangle;connectable=0;fillColor=none;top=0;left=0;bottom=0;right=0;align=left;spacingLeft=6;overflow=hidden;whiteSpace=wrap;spacingTop=1;spacing=2;verticalAlign=middle;horizontal=1;fontFamily=Lucida Console;" parent="itcXOkuhVqPN7WuCLbZP-173" vertex="1">
          <mxGeometry x="340" width="180" height="30" as="geometry">
            <mxRectangle width="180" height="30" as="alternateBounds" />
          </mxGeometry>
        </mxCell>
        <mxCell id="itcXOkuhVqPN7WuCLbZP-179" value="" style="shape=tableRow;horizontal=1;startSize=0;swimlaneHead=0;swimlaneBody=0;fillColor=none;collapsible=0;dropTarget=0;points=[[0,0.5],[1,0.5]];portConstraint=eastwest;top=0;left=0;right=0;bottom=0;spacingTop=1;spacing=2;verticalAlign=middle;fontFamily=Lucida Console;" parent="itcXOkuhVqPN7WuCLbZP-166" vertex="1">
          <mxGeometry y="90" width="520" height="30" as="geometry" />
        </mxCell>
        <mxCell id="itcXOkuhVqPN7WuCLbZP-180" value="" style="shape=partialRectangle;connectable=0;fillColor=none;top=0;left=0;bottom=0;right=0;editable=1;overflow=hidden;whiteSpace=wrap;spacingTop=1;spacing=2;verticalAlign=middle;horizontal=1;fontFamily=Lucida Console;" parent="itcXOkuhVqPN7WuCLbZP-179" vertex="1">
          <mxGeometry width="40" height="30" as="geometry">
            <mxRectangle width="40" height="30" as="alternateBounds" />
          </mxGeometry>
        </mxCell>
        <mxCell id="itcXOkuhVqPN7WuCLbZP-181" value="createdAt" style="shape=partialRectangle;connectable=0;fillColor=none;top=0;left=0;bottom=0;right=0;align=left;spacingLeft=6;overflow=hidden;whiteSpace=wrap;spacingTop=1;spacing=2;verticalAlign=middle;horizontal=1;fontFamily=Lucida Console;" parent="itcXOkuhVqPN7WuCLbZP-179" vertex="1">
          <mxGeometry x="40" width="100" height="30" as="geometry">
            <mxRectangle width="100" height="30" as="alternateBounds" />
          </mxGeometry>
        </mxCell>
        <mxCell id="itcXOkuhVqPN7WuCLbZP-182" value="TIMESTAMPTZ" style="shape=partialRectangle;connectable=0;fillColor=none;top=0;left=0;bottom=0;right=0;align=left;spacingLeft=6;overflow=hidden;whiteSpace=wrap;spacingTop=1;spacing=2;verticalAlign=middle;horizontal=1;fontFamily=Lucida Console;" parent="itcXOkuhVqPN7WuCLbZP-179" vertex="1">
          <mxGeometry x="140" width="120" height="30" as="geometry">
            <mxRectangle width="120" height="30" as="alternateBounds" />
          </mxGeometry>
        </mxCell>
        <mxCell id="itcXOkuhVqPN7WuCLbZP-183" value="NOT NULL" style="shape=partialRectangle;connectable=0;fillColor=none;top=0;left=0;bottom=0;right=0;align=left;spacingLeft=6;overflow=hidden;whiteSpace=wrap;spacingTop=1;spacing=2;verticalAlign=middle;horizontal=1;fontFamily=Lucida Console;" parent="itcXOkuhVqPN7WuCLbZP-179" vertex="1">
          <mxGeometry x="260" width="80" height="30" as="geometry">
            <mxRectangle width="80" height="30" as="alternateBounds" />
          </mxGeometry>
        </mxCell>
        <mxCell id="itcXOkuhVqPN7WuCLbZP-184" value="CURRENT_TIMESTAMP" style="shape=partialRectangle;connectable=0;fillColor=none;top=0;left=0;bottom=0;right=0;align=left;spacingLeft=6;overflow=hidden;whiteSpace=wrap;spacingTop=1;spacing=2;verticalAlign=middle;horizontal=1;fontFamily=Lucida Console;" parent="itcXOkuhVqPN7WuCLbZP-179" vertex="1">
          <mxGeometry x="340" width="180" height="30" as="geometry">
            <mxRectangle width="180" height="30" as="alternateBounds" />
          </mxGeometry>
        </mxCell>
        <mxCell id="itcXOkuhVqPN7WuCLbZP-185" value="" style="shape=tableRow;horizontal=1;startSize=0;swimlaneHead=0;swimlaneBody=0;fillColor=none;collapsible=0;dropTarget=0;points=[[0,0.5],[1,0.5]];portConstraint=eastwest;top=0;left=0;right=0;bottom=0;spacingTop=1;spacing=2;verticalAlign=middle;fontFamily=Lucida Console;" parent="itcXOkuhVqPN7WuCLbZP-166" vertex="1">
          <mxGeometry y="120" width="520" height="30" as="geometry" />
        </mxCell>
        <mxCell id="itcXOkuhVqPN7WuCLbZP-186" value="FK" style="shape=partialRectangle;connectable=0;fillColor=none;top=0;left=0;bottom=0;right=0;editable=1;overflow=hidden;whiteSpace=wrap;spacingTop=1;spacing=2;verticalAlign=middle;horizontal=1;fontFamily=Lucida Console;" parent="itcXOkuhVqPN7WuCLbZP-185" vertex="1">
          <mxGeometry width="40" height="30" as="geometry">
            <mxRectangle width="40" height="30" as="alternateBounds" />
          </mxGeometry>
        </mxCell>
        <mxCell id="itcXOkuhVqPN7WuCLbZP-187" value="userId" style="shape=partialRectangle;connectable=0;fillColor=none;top=0;left=0;bottom=0;right=0;align=left;spacingLeft=6;overflow=hidden;whiteSpace=wrap;spacingTop=1;spacing=2;verticalAlign=middle;horizontal=1;fontFamily=Lucida Console;gradientColor=none;strokeColor=default;perimeterSpacing=0;fontStyle=1" parent="itcXOkuhVqPN7WuCLbZP-185" vertex="1">
          <mxGeometry x="40" width="100" height="30" as="geometry">
            <mxRectangle width="100" height="30" as="alternateBounds" />
          </mxGeometry>
        </mxCell>
        <mxCell id="itcXOkuhVqPN7WuCLbZP-188" value="INT" style="shape=partialRectangle;connectable=0;fillColor=none;top=0;left=0;bottom=0;right=0;align=left;spacingLeft=6;overflow=hidden;whiteSpace=wrap;spacingTop=1;spacing=2;verticalAlign=middle;horizontal=1;fontFamily=Lucida Console;gradientColor=none;strokeColor=default;perimeterSpacing=0;" parent="itcXOkuhVqPN7WuCLbZP-185" vertex="1">
          <mxGeometry x="140" width="120" height="30" as="geometry">
            <mxRectangle width="120" height="30" as="alternateBounds" />
          </mxGeometry>
        </mxCell>
        <mxCell id="itcXOkuhVqPN7WuCLbZP-189" value="NULL" style="shape=partialRectangle;connectable=0;fillColor=none;top=0;left=0;bottom=0;right=0;align=left;spacingLeft=6;overflow=hidden;whiteSpace=wrap;spacingTop=1;spacing=2;verticalAlign=middle;horizontal=1;fontFamily=Lucida Console;gradientColor=none;strokeColor=default;perimeterSpacing=0;" parent="itcXOkuhVqPN7WuCLbZP-185" vertex="1">
          <mxGeometry x="260" width="80" height="30" as="geometry">
            <mxRectangle width="80" height="30" as="alternateBounds" />
          </mxGeometry>
        </mxCell>
        <mxCell id="itcXOkuhVqPN7WuCLbZP-190" value="REFERENCES users(id)" style="shape=partialRectangle;connectable=0;fillColor=none;top=0;left=0;bottom=0;right=0;align=left;spacingLeft=6;overflow=hidden;whiteSpace=wrap;spacingTop=1;spacing=2;verticalAlign=middle;horizontal=1;fontFamily=Lucida Console;gradientColor=none;strokeColor=default;perimeterSpacing=0;" parent="itcXOkuhVqPN7WuCLbZP-185" vertex="1">
          <mxGeometry x="340" width="180" height="30" as="geometry">
            <mxRectangle width="180" height="30" as="alternateBounds" />
          </mxGeometry>
        </mxCell>
        <mxCell id="itcXOkuhVqPN7WuCLbZP-191" value="" style="shape=tableRow;horizontal=1;startSize=0;swimlaneHead=0;swimlaneBody=0;fillColor=none;collapsible=0;dropTarget=0;points=[[0,0.5],[1,0.5]];portConstraint=eastwest;top=0;left=0;right=0;bottom=0;spacingTop=1;spacing=2;verticalAlign=middle;fontFamily=Lucida Console;fontStyle=0" parent="itcXOkuhVqPN7WuCLbZP-166" vertex="1">
          <mxGeometry y="150" width="520" height="30" as="geometry" />
        </mxCell>
        <mxCell id="itcXOkuhVqPN7WuCLbZP-192" value="FK" style="shape=partialRectangle;connectable=0;fillColor=none;top=0;left=0;bottom=0;right=0;editable=1;overflow=hidden;whiteSpace=wrap;spacingTop=1;spacing=2;verticalAlign=middle;horizontal=1;fontFamily=Lucida Console;" parent="itcXOkuhVqPN7WuCLbZP-191" vertex="1">
          <mxGeometry width="40" height="30" as="geometry">
            <mxRectangle width="40" height="30" as="alternateBounds" />
          </mxGeometry>
        </mxCell>
        <mxCell id="itcXOkuhVqPN7WuCLbZP-193" value="postId" style="shape=partialRectangle;connectable=0;fillColor=none;top=0;left=0;bottom=0;right=0;align=left;spacingLeft=6;overflow=hidden;whiteSpace=wrap;spacingTop=1;spacing=2;verticalAlign=middle;horizontal=1;fontFamily=Lucida Console;strokeColor=default;fontStyle=1" parent="itcXOkuhVqPN7WuCLbZP-191" vertex="1">
          <mxGeometry x="40" width="100" height="30" as="geometry">
            <mxRectangle width="100" height="30" as="alternateBounds" />
          </mxGeometry>
        </mxCell>
        <mxCell id="itcXOkuhVqPN7WuCLbZP-194" value="INT" style="shape=partialRectangle;connectable=0;fillColor=none;top=0;left=0;bottom=0;right=0;align=left;spacingLeft=6;overflow=hidden;whiteSpace=wrap;spacingTop=1;spacing=2;verticalAlign=middle;horizontal=1;fontFamily=Lucida Console;strokeColor=default;" parent="itcXOkuhVqPN7WuCLbZP-191" vertex="1">
          <mxGeometry x="140" width="120" height="30" as="geometry">
            <mxRectangle width="120" height="30" as="alternateBounds" />
          </mxGeometry>
        </mxCell>
        <mxCell id="itcXOkuhVqPN7WuCLbZP-195" value="NULL" style="shape=partialRectangle;connectable=0;fillColor=none;top=0;left=0;bottom=0;right=0;align=left;spacingLeft=6;overflow=hidden;whiteSpace=wrap;spacingTop=1;spacing=2;verticalAlign=middle;horizontal=1;fontFamily=Lucida Console;strokeColor=default;" parent="itcXOkuhVqPN7WuCLbZP-191" vertex="1">
          <mxGeometry x="260" width="80" height="30" as="geometry">
            <mxRectangle width="80" height="30" as="alternateBounds" />
          </mxGeometry>
        </mxCell>
        <mxCell id="itcXOkuhVqPN7WuCLbZP-196" value="REFERENCES posts(id)" style="shape=partialRectangle;connectable=0;fillColor=none;top=0;left=0;bottom=0;right=0;align=left;spacingLeft=6;overflow=hidden;whiteSpace=wrap;spacingTop=1;spacing=2;verticalAlign=middle;horizontal=1;fontFamily=Lucida Console;strokeColor=default;" parent="itcXOkuhVqPN7WuCLbZP-191" vertex="1">
          <mxGeometry x="340" width="180" height="30" as="geometry">
            <mxRectangle width="180" height="30" as="alternateBounds" />
          </mxGeometry>
        </mxCell>
        <mxCell id="itcXOkuhVqPN7WuCLbZP-197" value="" style="edgeStyle=elbowEdgeStyle;fontSize=12;html=1;endArrow=ERzeroToMany;startArrow=ERmandOne;rounded=1;" parent="1" source="itcXOkuhVqPN7WuCLbZP-81" target="itcXOkuhVqPN7WuCLbZP-74" edge="1">
          <mxGeometry width="100" height="100" relative="1" as="geometry">
            <mxPoint x="660" y="1892.5" as="sourcePoint" />
            <mxPoint x="760" y="1792.5" as="targetPoint" />
          </mxGeometry>
        </mxCell>
        <mxCell id="itcXOkuhVqPN7WuCLbZP-198" value="" style="fontSize=12;html=1;endArrow=ERzeroToMany;startArrow=ERmandOne;rounded=1;entryX=1;entryY=0.5;entryDx=0;entryDy=0;exitX=1;exitY=0.522;exitDx=0;exitDy=0;exitPerimeter=0;" parent="1" source="itcXOkuhVqPN7WuCLbZP-81" target="itcXOkuhVqPN7WuCLbZP-154" edge="1">
          <mxGeometry width="100" height="100" relative="1" as="geometry">
            <mxPoint x="940" y="1822.5" as="sourcePoint" />
            <mxPoint x="820" y="1942.5" as="targetPoint" />
            <Array as="points">
              <mxPoint x="1450" y="1718" />
              <mxPoint x="1450" y="2280" />
              <mxPoint x="830" y="2280" />
              <mxPoint x="830" y="2198" />
            </Array>
          </mxGeometry>
        </mxCell>
        <mxCell id="itcXOkuhVqPN7WuCLbZP-199" value="" style="edgeStyle=elbowEdgeStyle;fontSize=12;html=1;endArrow=ERzeroToMany;startArrow=ERmandOne;rounded=1;exitX=1;exitY=0.775;exitDx=0;exitDy=0;exitPerimeter=0;" parent="1" source="itcXOkuhVqPN7WuCLbZP-81" target="itcXOkuhVqPN7WuCLbZP-185" edge="1">
          <mxGeometry width="100" height="100" relative="1" as="geometry">
            <mxPoint x="940" y="1882.5" as="sourcePoint" />
            <mxPoint x="820" y="2372.5" as="targetPoint" />
            <Array as="points">
              <mxPoint x="1430" y="1960" />
            </Array>
          </mxGeometry>
        </mxCell>
        <mxCell id="itcXOkuhVqPN7WuCLbZP-200" value="" style="edgeStyle=elbowEdgeStyle;fontSize=12;html=1;endArrow=ERzeroToMany;startArrow=ERmandOne;rounded=1;exitX=1;exitY=0.58;exitDx=0;exitDy=0;exitPerimeter=0;" parent="1" source="itcXOkuhVqPN7WuCLbZP-112" target="itcXOkuhVqPN7WuCLbZP-191" edge="1">
          <mxGeometry width="100" height="100" relative="1" as="geometry">
            <mxPoint x="1060" y="2182.5" as="sourcePoint" />
            <mxPoint x="940" y="2672.5" as="targetPoint" />
            <Array as="points">
              <mxPoint x="840" y="2090" />
            </Array>
          </mxGeometry>
        </mxCell>
        <mxCell id="itcXOkuhVqPN7WuCLbZP-201" value="" style="edgeStyle=elbowEdgeStyle;fontSize=12;html=1;endArrow=ERzeroToMany;startArrow=ERmandOne;rounded=1;" parent="1" source="itcXOkuhVqPN7WuCLbZP-56" target="itcXOkuhVqPN7WuCLbZP-160" edge="1">
          <mxGeometry width="100" height="100" relative="1" as="geometry">
            <mxPoint x="760" y="2172.5" as="sourcePoint" />
            <mxPoint x="700" y="2232.5" as="targetPoint" />
            <Array as="points">
              <mxPoint x="120" y="1962.5" />
            </Array>
          </mxGeometry>
        </mxCell>
        <mxCell id="itcXOkuhVqPN7WuCLbZP-414" value="" style="fillColor=none;strokeColor=#559E83;verticalAlign=top;fontStyle=0;whiteSpace=wrap;html=1;fontColor=none;noLabel=1;movable=1;resizable=1;rotatable=1;deletable=1;editable=1;locked=0;connectable=1;" parent="1" vertex="1">
          <mxGeometry x="730" y="1012.5" width="780" height="60" as="geometry" />
        </mxCell>
        <mxCell id="itcXOkuhVqPN7WuCLbZP-422" value="" style="endArrow=classic;html=1;rounded=1;curved=0;fillColor=#dae8fc;strokeColor=#6c8ebf;dashed=1;strokeWidth=1.5;entryX=0.5;entryY=0;entryDx=0;entryDy=0;exitX=1;exitY=0.5;exitDx=0;exitDy=0;" parent="1" source="itcXOkuhVqPN7WuCLbZP-419" target="itcXOkuhVqPN7WuCLbZP-80" edge="1">
          <mxGeometry width="50" height="50" relative="1" as="geometry">
            <mxPoint x="1230" y="962.5" as="sourcePoint" />
            <mxPoint x="910" y="1662.5" as="targetPoint" />
            <Array as="points">
              <mxPoint x="1560" y="963" />
              <mxPoint x="1560" y="1643" />
              <mxPoint x="1140" y="1642.5" />
            </Array>
          </mxGeometry>
        </mxCell>
        <mxCell id="_g8NAPxAyyhOKIvRYlVc-94" value="User Repository" style="edgeLabel;html=1;align=center;verticalAlign=middle;resizable=0;points=[];" parent="itcXOkuhVqPN7WuCLbZP-422" vertex="1" connectable="0">
          <mxGeometry x="0.7645" relative="1" as="geometry">
            <mxPoint x="106" as="offset" />
          </mxGeometry>
        </mxCell>
        <mxCell id="itcXOkuhVqPN7WuCLbZP-424" value="Swagger" style="shape=image;verticalLabelPosition=bottom;labelBackgroundColor=default;verticalAlign=top;aspect=fixed;imageAspect=0;image=https://images.icon-icons.com/2107/PNG/512/file_type_swagger_icon_130134.png;" parent="1" vertex="1">
          <mxGeometry x="140" y="822.5" width="40" height="40" as="geometry" />
        </mxCell>
        <mxCell id="itcXOkuhVqPN7WuCLbZP-425" value="PostgreSQL" style="shape=image;verticalLabelPosition=bottom;labelBackgroundColor=default;verticalAlign=top;aspect=fixed;imageAspect=0;image=https://upload.wikimedia.org/wikipedia/commons/thumb/2/29/Postgresql_elephant.svg/800px-Postgresql_elephant.svg.png;" parent="1" vertex="1">
          <mxGeometry x="60" y="1622.5" width="38.79" height="40" as="geometry" />
        </mxCell>
        <mxCell id="itcXOkuhVqPN7WuCLbZP-426" value="" style="endArrow=classic;html=1;rounded=1;fontFamily=Helvetica;fontSize=12;fontColor=#5A6C86;fontStyle=0;resizable=0;exitX=1;exitY=0.5;exitDx=0;exitDy=0;fillColor=#647687;strokeColor=#314354;dashed=1;curved=0;" parent="1" source="itcXOkuhVqPN7WuCLbZP-366" target="itcXOkuhVqPN7WuCLbZP-362" edge="1">
          <mxGeometry width="50" height="50" relative="1" as="geometry">
            <mxPoint x="1061" y="1077" as="sourcePoint" />
            <mxPoint x="1111" y="1027" as="targetPoint" />
            <Array as="points">
              <mxPoint x="980" y="963" />
              <mxPoint x="980" y="920" />
              <mxPoint x="1400" y="920" />
            </Array>
          </mxGeometry>
        </mxCell>
        <mxCell id="itcXOkuhVqPN7WuCLbZP-428" value="" style="edgeLabel;html=1;align=center;verticalAlign=middle;resizable=0;points=[];strokeColor=#5A6C86;fontFamily=Helvetica;fontSize=12;fontColor=#5A6C86;fontStyle=0;fillColor=none;" parent="itcXOkuhVqPN7WuCLbZP-426" vertex="1" connectable="0">
          <mxGeometry x="-0.5419" y="1" relative="1" as="geometry">
            <mxPoint as="offset" />
          </mxGeometry>
        </mxCell>
        <mxCell id="itcXOkuhVqPN7WuCLbZP-429" value="JWT Refresh Token, View Count (IP Based)" style="edgeLabel;html=1;align=center;verticalAlign=middle;resizable=0;points=[];strokeColor=#5A6C86;fontFamily=Helvetica;fontSize=10;fontColor=#000000;fontStyle=0;fillColor=none;" parent="itcXOkuhVqPN7WuCLbZP-426" vertex="1" connectable="0">
          <mxGeometry x="-0.4688" relative="1" as="geometry">
            <mxPoint x="235" y="-1" as="offset" />
          </mxGeometry>
        </mxCell>
        <mxCell id="itcXOkuhVqPN7WuCLbZP-427" value="" style="endArrow=none;html=1;rounded=1;fontFamily=Helvetica;fontSize=12;fontColor=#5A6C86;fontStyle=0;resizable=0;exitX=1;exitY=0.5;exitDx=0;exitDy=0;fillColor=#647687;strokeColor=#314354;dashed=1;curved=0;" parent="1" source="itcXOkuhVqPN7WuCLbZP-368" edge="1">
          <mxGeometry width="50" height="50" relative="1" as="geometry">
            <mxPoint x="1076" y="1091" as="sourcePoint" />
            <mxPoint x="980" y="960" as="targetPoint" />
            <Array as="points">
              <mxPoint x="980" y="1123" />
            </Array>
          </mxGeometry>
        </mxCell>
        <mxCell id="_g8NAPxAyyhOKIvRYlVc-19" value="likes" style="shape=table;startSize=30;container=1;collapsible=1;childLayout=tableLayout;fixedRows=1;rowLines=0;align=center;resizeLast=1;spacingTop=1;spacing=2;verticalAlign=middle;horizontal=1;fontFamily=Lucida Console;fontStyle=1;fillColor=#e1d5e7;strokeColor=#9673a6;" parent="1" vertex="1">
          <mxGeometry x="640" y="2360" width="520" height="150" as="geometry">
            <mxRectangle x="620" y="320" width="70" height="30" as="alternateBounds" />
          </mxGeometry>
        </mxCell>
        <mxCell id="_g8NAPxAyyhOKIvRYlVc-20" value="" style="shape=tableRow;horizontal=1;startSize=0;swimlaneHead=0;swimlaneBody=0;fillColor=none;collapsible=0;dropTarget=0;points=[[0,0.5],[1,0.5]];portConstraint=eastwest;top=0;left=0;right=0;bottom=1;spacingTop=1;spacing=2;verticalAlign=middle;fontFamily=Lucida Console;" parent="_g8NAPxAyyhOKIvRYlVc-19" vertex="1">
          <mxGeometry y="30" width="520" height="30" as="geometry" />
        </mxCell>
        <mxCell id="_g8NAPxAyyhOKIvRYlVc-21" value="PK" style="shape=partialRectangle;connectable=0;fillColor=none;top=0;left=0;bottom=0;right=0;overflow=hidden;whiteSpace=wrap;spacingTop=1;spacing=2;verticalAlign=middle;horizontal=1;fontFamily=Lucida Console;fontStyle=1" parent="_g8NAPxAyyhOKIvRYlVc-20" vertex="1">
          <mxGeometry width="40" height="30" as="geometry">
            <mxRectangle width="40" height="30" as="alternateBounds" />
          </mxGeometry>
        </mxCell>
        <mxCell id="_g8NAPxAyyhOKIvRYlVc-22" value="id" style="shape=partialRectangle;connectable=0;fillColor=none;top=0;left=0;bottom=0;right=0;align=left;spacingLeft=6;overflow=hidden;whiteSpace=wrap;spacingTop=1;spacing=2;verticalAlign=middle;horizontal=1;fontFamily=Lucida Console;fontStyle=1" parent="_g8NAPxAyyhOKIvRYlVc-20" vertex="1">
          <mxGeometry x="40" width="100" height="30" as="geometry">
            <mxRectangle width="100" height="30" as="alternateBounds" />
          </mxGeometry>
        </mxCell>
        <mxCell id="_g8NAPxAyyhOKIvRYlVc-23" value="INT" style="shape=partialRectangle;connectable=0;fillColor=none;top=0;left=0;bottom=0;right=0;align=left;spacingLeft=6;overflow=hidden;whiteSpace=wrap;spacingTop=1;spacing=2;verticalAlign=middle;horizontal=1;fontFamily=Lucida Console;fontStyle=1" parent="_g8NAPxAyyhOKIvRYlVc-20" vertex="1">
          <mxGeometry x="140" width="120" height="30" as="geometry">
            <mxRectangle width="120" height="30" as="alternateBounds" />
          </mxGeometry>
        </mxCell>
        <mxCell id="_g8NAPxAyyhOKIvRYlVc-24" value="NOT NULL" style="shape=partialRectangle;connectable=0;fillColor=none;top=0;left=0;bottom=0;right=0;align=left;spacingLeft=6;overflow=hidden;whiteSpace=wrap;spacingTop=1;spacing=2;verticalAlign=middle;horizontal=1;fontFamily=Lucida Console;fontStyle=1" parent="_g8NAPxAyyhOKIvRYlVc-20" vertex="1">
          <mxGeometry x="260" width="80" height="30" as="geometry">
            <mxRectangle width="80" height="30" as="alternateBounds" />
          </mxGeometry>
        </mxCell>
        <mxCell id="_g8NAPxAyyhOKIvRYlVc-25" style="shape=partialRectangle;connectable=0;fillColor=none;top=0;left=0;bottom=0;right=0;align=left;spacingLeft=6;overflow=hidden;whiteSpace=wrap;spacingTop=1;spacing=2;verticalAlign=middle;horizontal=1;fontFamily=Lucida Console;fontStyle=1" parent="_g8NAPxAyyhOKIvRYlVc-20" vertex="1">
          <mxGeometry x="340" width="180" height="30" as="geometry">
            <mxRectangle width="180" height="30" as="alternateBounds" />
          </mxGeometry>
        </mxCell>
        <mxCell id="_g8NAPxAyyhOKIvRYlVc-26" value="" style="shape=tableRow;horizontal=1;startSize=0;swimlaneHead=0;swimlaneBody=0;fillColor=none;collapsible=0;dropTarget=0;points=[[0,0.5],[1,0.5]];portConstraint=eastwest;top=0;left=0;right=0;bottom=0;spacingTop=1;spacing=2;verticalAlign=middle;fontFamily=Lucida Console;" parent="_g8NAPxAyyhOKIvRYlVc-19" vertex="1">
          <mxGeometry y="60" width="520" height="30" as="geometry" />
        </mxCell>
        <mxCell id="_g8NAPxAyyhOKIvRYlVc-27" value="" style="shape=partialRectangle;connectable=0;fillColor=none;top=0;left=0;bottom=0;right=0;editable=1;overflow=hidden;whiteSpace=wrap;spacingTop=1;spacing=2;verticalAlign=middle;horizontal=1;fontFamily=Lucida Console;" parent="_g8NAPxAyyhOKIvRYlVc-26" vertex="1">
          <mxGeometry width="40" height="30" as="geometry">
            <mxRectangle width="40" height="30" as="alternateBounds" />
          </mxGeometry>
        </mxCell>
        <mxCell id="_g8NAPxAyyhOKIvRYlVc-28" value="createdAt" style="shape=partialRectangle;connectable=0;fillColor=none;top=0;left=0;bottom=0;right=0;align=left;spacingLeft=6;overflow=hidden;whiteSpace=wrap;spacingTop=1;spacing=2;verticalAlign=middle;horizontal=1;fontFamily=Lucida Console;" parent="_g8NAPxAyyhOKIvRYlVc-26" vertex="1">
          <mxGeometry x="40" width="100" height="30" as="geometry">
            <mxRectangle width="100" height="30" as="alternateBounds" />
          </mxGeometry>
        </mxCell>
        <mxCell id="_g8NAPxAyyhOKIvRYlVc-29" value="TIMESTAMPTZ" style="shape=partialRectangle;connectable=0;fillColor=none;top=0;left=0;bottom=0;right=0;align=left;spacingLeft=6;overflow=hidden;whiteSpace=wrap;spacingTop=1;spacing=2;verticalAlign=middle;horizontal=1;fontFamily=Lucida Console;" parent="_g8NAPxAyyhOKIvRYlVc-26" vertex="1">
          <mxGeometry x="140" width="120" height="30" as="geometry">
            <mxRectangle width="120" height="30" as="alternateBounds" />
          </mxGeometry>
        </mxCell>
        <mxCell id="_g8NAPxAyyhOKIvRYlVc-30" value="NOT NULL" style="shape=partialRectangle;connectable=0;fillColor=none;top=0;left=0;bottom=0;right=0;align=left;spacingLeft=6;overflow=hidden;whiteSpace=wrap;spacingTop=1;spacing=2;verticalAlign=middle;horizontal=1;fontFamily=Lucida Console;" parent="_g8NAPxAyyhOKIvRYlVc-26" vertex="1">
          <mxGeometry x="260" width="80" height="30" as="geometry">
            <mxRectangle width="80" height="30" as="alternateBounds" />
          </mxGeometry>
        </mxCell>
        <mxCell id="_g8NAPxAyyhOKIvRYlVc-31" value="CURRENT_TIMESTAMP" style="shape=partialRectangle;connectable=0;fillColor=none;top=0;left=0;bottom=0;right=0;align=left;spacingLeft=6;overflow=hidden;whiteSpace=wrap;spacingTop=1;spacing=2;verticalAlign=middle;horizontal=1;fontFamily=Lucida Console;" parent="_g8NAPxAyyhOKIvRYlVc-26" vertex="1">
          <mxGeometry x="340" width="180" height="30" as="geometry">
            <mxRectangle width="180" height="30" as="alternateBounds" />
          </mxGeometry>
        </mxCell>
        <mxCell id="_g8NAPxAyyhOKIvRYlVc-38" value="" style="shape=tableRow;horizontal=1;startSize=0;swimlaneHead=0;swimlaneBody=0;fillColor=none;collapsible=0;dropTarget=0;points=[[0,0.5],[1,0.5]];portConstraint=eastwest;top=0;left=0;right=0;bottom=0;spacingTop=1;spacing=2;verticalAlign=middle;fontFamily=Lucida Console;" parent="_g8NAPxAyyhOKIvRYlVc-19" vertex="1">
          <mxGeometry y="90" width="520" height="30" as="geometry" />
        </mxCell>
        <mxCell id="_g8NAPxAyyhOKIvRYlVc-39" value="FK" style="shape=partialRectangle;connectable=0;fillColor=none;top=0;left=0;bottom=0;right=0;editable=1;overflow=hidden;whiteSpace=wrap;spacingTop=1;spacing=2;verticalAlign=middle;horizontal=1;fontFamily=Lucida Console;" parent="_g8NAPxAyyhOKIvRYlVc-38" vertex="1">
          <mxGeometry width="40" height="30" as="geometry">
            <mxRectangle width="40" height="30" as="alternateBounds" />
          </mxGeometry>
        </mxCell>
        <mxCell id="_g8NAPxAyyhOKIvRYlVc-40" value="userId" style="shape=partialRectangle;connectable=0;fillColor=none;top=0;left=0;bottom=0;right=0;align=left;spacingLeft=6;overflow=hidden;whiteSpace=wrap;spacingTop=1;spacing=2;verticalAlign=middle;horizontal=1;fontFamily=Lucida Console;gradientColor=none;strokeColor=default;perimeterSpacing=0;fontStyle=1" parent="_g8NAPxAyyhOKIvRYlVc-38" vertex="1">
          <mxGeometry x="40" width="100" height="30" as="geometry">
            <mxRectangle width="100" height="30" as="alternateBounds" />
          </mxGeometry>
        </mxCell>
        <mxCell id="_g8NAPxAyyhOKIvRYlVc-41" value="INT" style="shape=partialRectangle;connectable=0;fillColor=none;top=0;left=0;bottom=0;right=0;align=left;spacingLeft=6;overflow=hidden;whiteSpace=wrap;spacingTop=1;spacing=2;verticalAlign=middle;horizontal=1;fontFamily=Lucida Console;gradientColor=none;strokeColor=default;perimeterSpacing=0;" parent="_g8NAPxAyyhOKIvRYlVc-38" vertex="1">
          <mxGeometry x="140" width="120" height="30" as="geometry">
            <mxRectangle width="120" height="30" as="alternateBounds" />
          </mxGeometry>
        </mxCell>
        <mxCell id="_g8NAPxAyyhOKIvRYlVc-42" value="NULL" style="shape=partialRectangle;connectable=0;fillColor=none;top=0;left=0;bottom=0;right=0;align=left;spacingLeft=6;overflow=hidden;whiteSpace=wrap;spacingTop=1;spacing=2;verticalAlign=middle;horizontal=1;fontFamily=Lucida Console;gradientColor=none;strokeColor=default;perimeterSpacing=0;" parent="_g8NAPxAyyhOKIvRYlVc-38" vertex="1">
          <mxGeometry x="260" width="80" height="30" as="geometry">
            <mxRectangle width="80" height="30" as="alternateBounds" />
          </mxGeometry>
        </mxCell>
        <mxCell id="_g8NAPxAyyhOKIvRYlVc-43" value="REFERENCES users(id)" style="shape=partialRectangle;connectable=0;fillColor=none;top=0;left=0;bottom=0;right=0;align=left;spacingLeft=6;overflow=hidden;whiteSpace=wrap;spacingTop=1;spacing=2;verticalAlign=middle;horizontal=1;fontFamily=Lucida Console;gradientColor=none;strokeColor=default;perimeterSpacing=0;" parent="_g8NAPxAyyhOKIvRYlVc-38" vertex="1">
          <mxGeometry x="340" width="180" height="30" as="geometry">
            <mxRectangle width="180" height="30" as="alternateBounds" />
          </mxGeometry>
        </mxCell>
        <mxCell id="_g8NAPxAyyhOKIvRYlVc-44" value="" style="shape=tableRow;horizontal=1;startSize=0;swimlaneHead=0;swimlaneBody=0;fillColor=none;collapsible=0;dropTarget=0;points=[[0,0.5],[1,0.5]];portConstraint=eastwest;top=0;left=0;right=0;bottom=0;spacingTop=1;spacing=2;verticalAlign=middle;fontFamily=Lucida Console;fontStyle=0" parent="_g8NAPxAyyhOKIvRYlVc-19" vertex="1">
          <mxGeometry y="120" width="520" height="30" as="geometry" />
        </mxCell>
        <mxCell id="_g8NAPxAyyhOKIvRYlVc-45" value="FK" style="shape=partialRectangle;connectable=0;fillColor=none;top=0;left=0;bottom=0;right=0;editable=1;overflow=hidden;whiteSpace=wrap;spacingTop=1;spacing=2;verticalAlign=middle;horizontal=1;fontFamily=Lucida Console;" parent="_g8NAPxAyyhOKIvRYlVc-44" vertex="1">
          <mxGeometry width="40" height="30" as="geometry">
            <mxRectangle width="40" height="30" as="alternateBounds" />
          </mxGeometry>
        </mxCell>
        <mxCell id="_g8NAPxAyyhOKIvRYlVc-46" value="postId" style="shape=partialRectangle;connectable=0;fillColor=none;top=0;left=0;bottom=0;right=0;align=left;spacingLeft=6;overflow=hidden;whiteSpace=wrap;spacingTop=1;spacing=2;verticalAlign=middle;horizontal=1;fontFamily=Lucida Console;strokeColor=default;fontStyle=1" parent="_g8NAPxAyyhOKIvRYlVc-44" vertex="1">
          <mxGeometry x="40" width="100" height="30" as="geometry">
            <mxRectangle width="100" height="30" as="alternateBounds" />
          </mxGeometry>
        </mxCell>
        <mxCell id="_g8NAPxAyyhOKIvRYlVc-47" value="INT" style="shape=partialRectangle;connectable=0;fillColor=none;top=0;left=0;bottom=0;right=0;align=left;spacingLeft=6;overflow=hidden;whiteSpace=wrap;spacingTop=1;spacing=2;verticalAlign=middle;horizontal=1;fontFamily=Lucida Console;strokeColor=default;" parent="_g8NAPxAyyhOKIvRYlVc-44" vertex="1">
          <mxGeometry x="140" width="120" height="30" as="geometry">
            <mxRectangle width="120" height="30" as="alternateBounds" />
          </mxGeometry>
        </mxCell>
        <mxCell id="_g8NAPxAyyhOKIvRYlVc-48" value="NULL" style="shape=partialRectangle;connectable=0;fillColor=none;top=0;left=0;bottom=0;right=0;align=left;spacingLeft=6;overflow=hidden;whiteSpace=wrap;spacingTop=1;spacing=2;verticalAlign=middle;horizontal=1;fontFamily=Lucida Console;strokeColor=default;" parent="_g8NAPxAyyhOKIvRYlVc-44" vertex="1">
          <mxGeometry x="260" width="80" height="30" as="geometry">
            <mxRectangle width="80" height="30" as="alternateBounds" />
          </mxGeometry>
        </mxCell>
        <mxCell id="_g8NAPxAyyhOKIvRYlVc-49" value="REFERENCES posts(id)" style="shape=partialRectangle;connectable=0;fillColor=none;top=0;left=0;bottom=0;right=0;align=left;spacingLeft=6;overflow=hidden;whiteSpace=wrap;spacingTop=1;spacing=2;verticalAlign=middle;horizontal=1;fontFamily=Lucida Console;strokeColor=default;" parent="_g8NAPxAyyhOKIvRYlVc-44" vertex="1">
          <mxGeometry x="340" width="180" height="30" as="geometry">
            <mxRectangle width="180" height="30" as="alternateBounds" />
          </mxGeometry>
        </mxCell>
        <mxCell id="_g8NAPxAyyhOKIvRYlVc-68" value="" style="fontSize=12;html=1;endArrow=ERzeroToMany;startArrow=ERmandOne;rounded=1;exitX=1;exitY=0.921;exitDx=0;exitDy=0;exitPerimeter=0;" parent="1" source="itcXOkuhVqPN7WuCLbZP-112" target="_g8NAPxAyyhOKIvRYlVc-44" edge="1">
          <mxGeometry width="100" height="100" relative="1" as="geometry">
            <mxPoint x="1560" y="2260" as="sourcePoint" />
            <mxPoint x="920" y="2740" as="targetPoint" />
            <Array as="points">
              <mxPoint x="740" y="1970" />
              <mxPoint x="740" y="2190" />
              <mxPoint x="730" y="2190" />
              <mxPoint x="730" y="2210" />
              <mxPoint x="740" y="2210" />
              <mxPoint x="740" y="2320" />
              <mxPoint x="600" y="2320" />
              <mxPoint x="600" y="2495" />
            </Array>
          </mxGeometry>
        </mxCell>
        <mxCell id="_g8NAPxAyyhOKIvRYlVc-83" value="" style="edgeStyle=elbowEdgeStyle;fontSize=12;html=1;endArrow=ERzeroToMany;startArrow=ERmandOne;rounded=1;exitX=1;exitY=0.268;exitDx=0;exitDy=0;exitPerimeter=0;" parent="1" source="itcXOkuhVqPN7WuCLbZP-81" target="_g8NAPxAyyhOKIvRYlVc-38" edge="1">
          <mxGeometry width="100" height="100" relative="1" as="geometry">
            <mxPoint x="1790" y="2270" as="sourcePoint" />
            <mxPoint x="1150" y="2750" as="targetPoint" />
            <Array as="points">
              <mxPoint x="1470" y="2080" />
            </Array>
          </mxGeometry>
        </mxCell>
        <mxCell id="_g8NAPxAyyhOKIvRYlVc-84" value="" style="endArrow=none;html=1;rounded=1;dashed=1;strokeWidth=1.5;strokeColor=#AE5A41;entryX=0;entryY=0.792;entryDx=0;entryDy=0;curved=0;entryPerimeter=0;" parent="1" target="itcXOkuhVqPN7WuCLbZP-414" edge="1">
          <mxGeometry width="50" height="50" relative="1" as="geometry">
            <mxPoint x="700" y="1130" as="sourcePoint" />
            <mxPoint x="730" y="1040" as="targetPoint" />
            <Array as="points">
              <mxPoint x="700" y="1060" />
            </Array>
          </mxGeometry>
        </mxCell>
        <mxCell id="_g8NAPxAyyhOKIvRYlVc-85" value="" style="endArrow=none;html=1;rounded=1;entryX=0;entryY=0.292;entryDx=0;entryDy=0;entryPerimeter=0;dashed=1;strokeColor=#AE5A41;strokeWidth=1.5;curved=0;" parent="1" target="itcXOkuhVqPN7WuCLbZP-421" edge="1">
          <mxGeometry width="50" height="50" relative="1" as="geometry">
            <mxPoint x="700" y="1170" as="sourcePoint" />
            <mxPoint x="800" y="1160" as="targetPoint" />
            <Array as="points">
              <mxPoint x="700" y="1190" />
            </Array>
          </mxGeometry>
        </mxCell>
        <mxCell id="_g8NAPxAyyhOKIvRYlVc-86" value="Likes Module (/likes)" style="points=[[0,0],[0.25,0],[0.5,0],[0.75,0],[1,0],[1,0.25],[1,0.5],[1,0.75],[1,1],[0.75,1],[0.5,1],[0.25,1],[0,1],[0,0.75],[0,0.5],[0,0.25]];outlineConnect=0;gradientColor=none;html=1;whiteSpace=wrap;fontSize=12;fontStyle=0;container=1;pointerEvents=0;collapsible=0;recursiveResize=0;shape=mxgraph.aws4.group;grIcon=mxgraph.aws4.group_on_premise;strokeColor=light-dark(#AE5A41,#9577A3);fillColor=none;verticalAlign=top;align=left;spacingLeft=30;fontColor=#5A6C86;dashed=0;" parent="1" vertex="1">
          <mxGeometry x="1020" y="1102.5" width="200" height="40" as="geometry" />
        </mxCell>
        <mxCell id="_g8NAPxAyyhOKIvRYlVc-87" value="" style="endArrow=classic;html=1;rounded=1;endFill=1;entryX=1.003;entryY=0.092;entryDx=0;entryDy=0;entryPerimeter=0;curved=0;dashed=1;strokeWidth=1.5;strokeColor=#884BB1;" parent="1" target="_g8NAPxAyyhOKIvRYlVc-19" edge="1">
          <mxGeometry width="50" height="50" relative="1" as="geometry">
            <mxPoint x="1510" y="1123" as="sourcePoint" />
            <mxPoint x="1240" y="2360" as="targetPoint" />
            <Array as="points">
              <mxPoint x="1550" y="1123" />
              <mxPoint x="1550" y="1630" />
              <mxPoint x="1540" y="1630" />
              <mxPoint x="1540" y="1650" />
              <mxPoint x="1550" y="1650" />
              <mxPoint x="1550" y="1670" />
              <mxPoint x="1550" y="2374" />
              <mxPoint x="1480" y="2374" />
              <mxPoint x="1480" y="2360" />
              <mxPoint x="1460" y="2360" />
              <mxPoint x="1460" y="2374" />
            </Array>
          </mxGeometry>
        </mxCell>
        <mxCell id="_g8NAPxAyyhOKIvRYlVc-95" value="Like Repository" style="edgeLabel;html=1;align=center;verticalAlign=middle;resizable=0;points=[];" parent="_g8NAPxAyyhOKIvRYlVc-87" vertex="1" connectable="0">
          <mxGeometry x="0.7559" y="1" relative="1" as="geometry">
            <mxPoint x="-19" as="offset" />
          </mxGeometry>
        </mxCell>
        <mxCell id="_g8NAPxAyyhOKIvRYlVc-88" value="" style="endArrow=none;html=1;rounded=1;curved=0;dashed=1;strokeWidth=1.5;strokeColor=light-dark(#6c8ebf, #ededed);" parent="1" edge="1">
          <mxGeometry width="50" height="50" relative="1" as="geometry">
            <mxPoint x="1510" y="1112.5" as="sourcePoint" />
            <mxPoint x="1560" y="1122.5" as="targetPoint" />
            <Array as="points">
              <mxPoint x="1560" y="1112.5" />
            </Array>
          </mxGeometry>
        </mxCell>
      </root>
    </mxGraphModel>
  </diagram>
</mxfile>
